<?xml version="1.0" encoding="UTF-8" standalone="no"?><!DOCTYPE svg PUBLIC "-//W3C//DTD SVG 1.1//EN" "http://www.w3.org/Graphics/SVG/1.1/DTD/svg11.dtd"><svg width="100%" height="100%" viewBox="0 0 4081 1066" version="1.1" xmlns="http://www.w3.org/2000/svg" xmlns:xlink="http://www.w3.org/1999/xlink" xml:space="preserve" xmlns:serif="http://www.serif.com/" style="fill-rule:evenodd;clip-rule:evenodd;stroke-linejoin:round;stroke-miterlimit:2;"><path d="M320.912,1034.97l227.575,0c-80.216,-62.471 -169.8,-91.683 -273.204,-79.129c15.717,27.254 30.658,53.171 45.629,79.129m425.75,-454.871c-54.104,-4.458 -97.116,-28.008 -130.487,-69.975c-30.034,13.88 -61.254,21.234 -93.829,22.759l0,57.275c76.566,15.404 150.125,40.25 224.316,65.554l0,-75.613Zm-26.725,356.838c3.129,-2.271 5.054,-4.179 7.371,-5.238c4.454,-2.037 9.025,-4.725 13.729,-5.154c21.217,-1.946 38.259,6.679 51.029,23.142c10.888,14.037 8.888,29.579 2.505,44.871c-4.555,10.896 -11.7,20.158 -19.509,28.908c-3.258,3.65 -6.587,7.242 -10.587,11.629l137.837,0c15.088,-26.125 30.088,-52.108 45.159,-78.204c-1.138,-1.475 -1.934,-2.679 -2.896,-3.729c-22.717,-24.813 -48.634,-45.429 -79.438,-59.329c-29.316,-13.229 -59.741,-17.679 -91.296,-9.309c-19.225,5.1 -35.245,15.271 -46.937,31.613c-4.075,5.7 -7.4,11.825 -6.967,20.8m-34.379,98.175c-4.271,-6.088 -7.687,-11.458 -11.592,-16.446c-16.487,-21.087 -35.791,-39.383 -57.654,-54.679c-88.154,-61.658 -184.883,-98.742 -293.541,-100.713c-29.871,-0.541 -59.475,2.35 -88.663,8.9c-1.825,0.405 -3.508,1.425 -5.787,2.384c11.875,20.566 23.37,40.471 34.837,60.325c123.129,-16.721 229.296,19.046 321.833,100.229l100.567,0Zm44.721,-0.008c13.917,-11.205 27.058,-22.842 36.833,-37.6c3.975,-6.005 7.113,-12.721 9.609,-19.492c2.533,-6.883 0.2,-13.275 -5.075,-18.338c-5.809,-5.566 -12.73,-9.237 -20.53,-11.208c-6.358,-1.604 -11.8,0.163 -15.308,5.638c-2.312,3.604 -3.846,7.795 -5.246,11.887c-3.5,10.271 -13.141,12.846 -20.179,4.796c-10.3,-11.792 -15.262,-25.583 -12.346,-41.3c1.309,-7.075 3.925,-13.896 6.042,-21.15c-2.008,-1.479 -4.063,-3.096 -6.217,-4.554c-52.2,-35.313 -107.654,-64.375 -166.696,-86.454c-73.4,-27.455 -148.9,-43.213 -227.695,-40.584c-33.98,1.134 -67.442,5.688 -100.359,14.154c-6.387,1.638 -12.721,3.484 -19.95,5.471c11.429,19.754 22.163,38.321 32.792,56.696c2.096,-0.225 3.279,-0.212 4.392,-0.483c36.233,-8.846 73,-12.342 110.254,-11.321c29.55,0.808 58.821,4.112 87.683,10.4c68.913,15.008 132.633,42.604 191.775,80.771c28.583,18.441 54.904,39.8 76.367,66.446c9.112,11.312 17.004,23.616 25.987,36.225l17.867,0Zm21.85,-784.596c12.842,106.629 -25.663,189.787 -115.388,249.612c28.867,34.417 64.85,53.7 110.325,57.613l0,-11.404c0,-50.859 -0.004,-101.721 0.017,-152.588c0,-3.208 -0.1,-6.462 0.383,-9.617c0.917,-5.987 5.1,-9.362 10.871,-9.27c5.509,0.091 9.9,3.929 10.75,9.62c0.296,2.005 0.154,4.08 0.154,6.13c0.009,16.366 -0.012,32.737 0.025,49.108c0.009,2.108 0.313,4.217 0.55,7.217c12,-12.35 23.05,-23.963 34.375,-35.3c8.98,-8.984 17.517,-6.3 21.063,7.454c-1.592,2.371 -3.304,5.758 -5.783,8.441c-7.33,7.942 -14.98,15.592 -22.471,23.384c-9.292,9.671 -18.55,19.371 -27.85,29.083c0.208,3.25 0.4,6.171 0.683,10.588c12.138,-12.467 23.208,-23.655 34.038,-35.067c3.725,-3.929 7.625,-6.275 13.133,-4.688c5.658,1.63 7.546,5.917 8.154,12.834c-2.142,2.737 -4.679,6.596 -7.812,9.883c-15.917,16.7 -31.992,33.246 -48.1,49.942c0,5.737 -0.167,11.287 0.05,16.816c0.22,5.68 -1.005,11.484 0.891,17.021c78.238,-5.321 151.054,-75.983 140.4,-170.641c-10.883,-96.742 -98.208,-142.45 -158.458,-136.171m207.321,685.637c18.808,-32.596 37.141,-64.362 55.941,-96.929c-3.183,-0.167 -5.158,-0.25 -7.137,-0.371c-21.85,-1.325 -43.804,-1.721 -65.529,-4.183c-38.384,-4.35 -75.784,-13.725 -112.759,-24.808c-51.47,-15.43 -101.75,-34.3 -152.291,-52.421c-39.004,-13.992 -78.142,-27.596 -117.142,-41.604c-56.767,-20.38 -115.617,-27.759 -175.542,-28.471c-37.133,-0.438 -74.137,1.596 -111.07,5.616c-43.596,4.746 -86.73,12.075 -129.55,21.4c-2.205,0.48 -4.321,1.38 -7.2,2.317c11.695,20.233 23.041,39.858 34.458,59.608c3.046,-0.775 5.292,-1.266 7.496,-1.916c53.733,-15.879 108.625,-22.054 164.529,-19.579c43.342,1.916 85.917,8.862 127.783,20.091c86.288,23.146 165.771,61.046 239.671,110.971c2.392,1.617 4.817,3.183 7.429,4.904c2.521,-2.108 4.7,-3.983 6.938,-5.787c12.671,-10.196 26.721,-17.654 42.508,-21.863c31.25,-8.329 61.929,-5.937 92.121,4.813c33.35,11.879 61.646,31.696 86.987,56.041c3.963,3.809 7.834,7.713 12.359,12.171m107.729,-186.571c-13.038,-0.575 -24.388,-1.116 -35.738,-1.562c-37.137,-1.471 -73.854,-6.113 -110.233,-13.788c-40.662,-8.57 -80.075,-21.308 -119.192,-35.075c-60.004,-21.12 -119.966,-42.275 -180.758,-61.137c-88.058,-27.317 -177.975,-40.767 -270.071,-40.096c-41.208,0.3 -82.291,2.675 -123.262,7.367c-45.304,5.187 -90.2,12.591 -134.596,23.016c-1.85,0.438 -3.613,1.284 -5.596,2.005c11.775,23.654 26.729,44.358 42.338,64.516c67.466,-15.246 134.929,-25.562 203.35,-28.808c42.075,-1.996 84.07,-1.058 125.975,3.921c37.87,4.5 74.77,12.866 110.675,25.621c44.82,15.92 89.591,31.97 134.37,48.004c50.005,17.9 99.846,36.287 151.075,50.529c42.313,11.762 85.18,20.45 129.209,21.983c14.55,0.509 29.133,0.079 43.8,0.079c12.883,-22.191 25.466,-43.862 38.654,-66.575m-567.758,-354.366c-1.205,-1.346 -2.138,-2.459 -3.146,-3.5c-22.292,-23.142 -44.592,-46.267 -66.879,-69.413c-1.621,-1.675 -3.367,-3.3 -4.65,-5.221c-3.175,-4.758 -2.521,-10.879 1.291,-14.454c4.188,-3.921 10.3,-3.916 15.092,0.104c1.337,1.121 2.525,2.43 3.742,3.688c14.8,15.354 29.562,30.742 44.416,46.042c2.892,2.979 5.438,6.479 10.484,8.958l0,-10.638c0,-25.72 -0.034,-51.437 0.037,-77.158c0.008,-3.483 0.092,-7.067 0.904,-10.421c1.25,-5.129 6.25,-8.329 11.238,-7.871c5.171,0.467 9.208,4.234 9.866,9.571c0.321,2.596 0.13,5.25 0.13,7.879c0.004,75.696 0.004,151.388 0.004,227.084l0,10.183c100.508,-1.717 202.821,-83.083 210.229,-205.275c7.708,-127.137 -93.1,-231.8 -217.633,-232.517c-119.25,-0.687 -220.913,95.096 -220.33,219.705c0.621,132.07 108.684,214.691 204.955,217.604l0,-53.504c-1.134,-1.3 -2.4,-2.892 -3.809,-4.35c-18.025,-18.73 -36.083,-37.438 -54.112,-56.159c-5.267,-5.466 -10.696,-10.804 -15.667,-16.529c-4.162,-4.796 -3.837,-10.971 0.129,-15.096c4.375,-4.546 10.446,-4.679 15.725,-0.287c0.888,0.741 1.6,1.691 2.404,2.529c16.617,17.262 33.217,34.529 49.871,51.746c1.438,1.491 3.234,2.637 5.709,4.621l0,-27.321Zm402.8,-365.071l-581.13,0c-96.804,167.679 -193.441,335.058 -290.154,502.575c14.879,25.733 29.6,51.204 44.05,76.192c28.746,-5.592 56.4,-11.646 84.296,-16.209c28.225,-4.616 56.613,-8.537 85.067,-11.312c28.175,-2.75 56.504,-4.567 84.796,-5.171c28.591,-0.604 57.275,-0.05 85.829,1.533c28.083,1.559 56.062,5.054 84.325,7.721l0,-52.754c-66.146,-5.029 -122.092,-31.208 -166.042,-80.613c-44.196,-49.675 -64.167,-108.35 -60.733,-174.829c5.346,-103.566 79.679,-198.271 190.666,-221.908c54.009,-11.504 106.5,-5.3 156.117,19.283c64.458,31.942 106.1,83.504 127.263,152.734c31.958,-1.067 62.366,4.454 90.808,19.062c28.183,14.475 50.954,34.921 68.204,61.483c17.425,26.83 26.888,56.388 28.121,88.238c1.625,42.012 -9.9,80.35 -35.533,113.9c-32.259,42.229 -75.517,64.937 -128.492,70.046l0,83.416c100.121,39.3 202.129,67.725 311.062,62.555c37.271,-64.571 74.459,-128.996 111.63,-193.392c-96.996,-168 -193.625,-335.363 -290.15,-502.55m322.975,501.783l0,1.75c-2.092,4.146 -3.992,8.396 -6.3,12.413c-24.742,42.971 -49.546,85.904 -74.334,128.854c-72.471,125.55 -144.921,251.108 -217.504,376.596c-2.842,4.908 -7,9.058 -10.546,13.566l-608.6,0c-5.308,-2.958 -8.429,-7.729 -11.391,-12.862c-97.325,-168.708 -194.659,-337.413 -292.259,-505.958c-5.487,-9.484 -5.8,-17.046 -0.216,-26.688c85.333,-147.312 170.35,-294.804 255.445,-442.254c12.696,-22.004 25.588,-43.896 38.046,-66.033c4.325,-7.68 9.913,-12.05 18.963,-11.196c1.45,0.137 2.925,0.016 4.383,0.016c193.775,0 387.55,0 581.325,0.005c2.338,0 4.675,0.033 7.013,0.02c6.72,-0.054 11.866,2.534 14.987,8.705c0.917,1.82 2.067,3.525 3.088,5.3c96.495,167.158 193,334.32 289.454,501.504c3.046,5.287 5.641,10.833 8.446,16.262" style="fill:#3c3b3a;fill-rule:nonzero;"/><path d="M294.219,291.952c0.617,132.071 108.683,214.692 204.954,217.605l0,-53.505c-1.133,-1.3 -2.404,-2.891 -3.812,-4.35c-18.025,-18.733 -36.08,-37.437 -54.113,-56.158c-5.267,-5.471 -10.696,-10.804 -15.662,-16.529c-4.163,-4.796 -3.842,-10.971 0.125,-15.096c4.375,-4.542 10.445,-4.679 15.725,-0.287c0.887,0.737 1.6,1.691 2.408,2.529c16.612,17.258 33.212,34.529 49.867,51.746c1.441,1.487 3.237,2.633 5.712,4.62l0,-27.32c-1.204,-1.346 -2.142,-2.459 -3.146,-3.5c-22.296,-23.138 -44.596,-46.271 -66.883,-69.417c-1.617,-1.675 -3.367,-3.296 -4.65,-5.217c-3.171,-4.758 -2.517,-10.879 1.296,-14.454c4.187,-3.921 10.296,-3.917 15.087,0.1c1.342,1.125 2.525,2.433 3.746,3.692c14.8,15.354 29.558,30.741 44.413,46.041c2.891,2.98 5.437,6.475 10.487,8.955l0,-10.634c0,-25.721 -0.037,-51.437 0.033,-77.154c0.009,-3.487 0.092,-7.071 0.905,-10.425c1.25,-5.129 6.25,-8.325 11.241,-7.875c5.171,0.471 9.204,4.238 9.867,9.571c0.317,2.6 0.125,5.254 0.125,7.883l0.004,237.263c100.513,-1.709 202.825,-83.079 210.229,-205.271c7.709,-127.138 -93.096,-231.8 -217.633,-232.517c-0.429,0 -0.854,-0.004 -1.283,-0.004c-118.688,0.004 -219.63,95.546 -219.042,219.708Z" style="fill:url(#_Linear1);fill-rule:nonzero;"/><path d="M351.186,597.919c-41.205,0.296 -82.292,2.671 -123.259,7.363c-45.304,5.187 -90.204,12.591 -134.596,23.016c-1.854,0.438 -3.616,1.284 -5.6,2.004c11.775,23.65 26.734,44.359 42.338,64.517c67.467,-15.246 134.929,-25.562 203.354,-28.808c42.071,-1.996 84.067,-1.059 125.971,3.916c37.871,4.5 74.771,12.867 110.679,25.625c44.817,15.921 89.592,31.967 134.371,48c50,17.905 99.846,36.292 151.071,50.534c42.316,11.762 85.179,20.446 129.208,21.979c14.55,0.512 29.133,0.083 43.804,0.083c12.879,-22.191 25.467,-43.862 38.654,-66.579c-13.041,-0.571 -24.387,-1.112 -35.737,-1.558c-37.138,-1.471 -73.854,-6.113 -110.238,-13.788c-40.662,-8.575 -80.075,-21.308 -119.187,-35.075c-60.004,-21.121 -119.967,-42.279 -180.758,-61.137c-85.971,-26.671 -173.7,-40.117 -263.509,-40.117c-2.187,0 -4.379,0.008 -6.566,0.025Z" style="fill:url(#_Linear2);fill-rule:nonzero;"/><path d="M273.919,692.973c-43.592,4.742 -86.725,12.075 -129.546,21.396c-2.204,0.479 -4.321,1.379 -7.204,2.321c11.696,20.233 23.042,39.854 34.462,59.608c3.042,-0.775 5.292,-1.266 7.492,-1.916c53.733,-15.88 108.625,-22.055 164.533,-19.58c43.338,1.917 85.917,8.863 127.784,20.092c86.287,23.146 165.771,61.046 239.671,110.971c2.387,1.612 4.816,3.179 7.425,4.9c2.525,-2.108 4.7,-3.983 6.941,-5.788c12.667,-10.195 26.717,-17.654 42.504,-21.858c31.25,-8.329 61.93,-5.937 92.125,4.813c33.346,11.875 61.642,31.691 86.984,56.041c3.962,3.809 7.833,7.713 12.358,12.171c18.813,-32.6 37.142,-64.367 55.942,-96.933c-3.179,-0.163 -5.159,-0.246 -7.134,-0.367c-21.85,-1.325 -43.808,-1.721 -65.533,-4.187c-38.379,-4.35 -75.783,-13.725 -112.758,-24.809c-51.467,-15.429 -101.746,-34.296 -152.292,-52.416c-39.004,-13.992 -78.142,-27.596 -117.142,-41.605c-56.762,-20.379 -115.616,-27.762 -175.541,-28.47c-3.342,-0.038 -6.688,-0.059 -10.029,-0.059c-33.767,0 -67.434,2.017 -101.042,5.675Z" style="fill:url(#_Linear3);fill-rule:nonzero;"/><path d="M752.127,250.502c12.846,106.634 -25.658,189.792 -115.383,249.617c28.862,34.417 64.85,53.7 110.325,57.613l0,-11.409c0,-50.854 -0.008,-101.721 0.017,-152.583c0,-3.208 -0.105,-6.463 0.379,-9.617c0.921,-5.987 5.1,-9.366 10.875,-9.271c5.504,0.088 9.896,3.925 10.746,9.617c0.3,2.008 0.154,4.083 0.158,6.129c0.004,16.371 -0.013,32.742 0.025,49.109c0.004,2.108 0.312,4.22 0.546,7.22c12,-12.35 23.05,-23.962 34.379,-35.3c8.975,-8.983 17.517,-6.304 21.062,7.455c-1.595,2.366 -3.308,5.758 -5.787,8.437c-7.325,7.946 -14.979,15.596 -22.471,23.388c-9.292,9.666 -18.55,19.366 -27.85,29.079c0.213,3.254 0.4,6.175 0.683,10.591c12.138,-12.47 23.209,-23.654 34.038,-35.07c3.725,-3.925 7.625,-6.275 13.133,-4.688c5.663,1.633 7.55,5.917 8.154,12.838c-2.137,2.737 -4.679,6.595 -7.812,9.879c-15.917,16.7 -31.988,33.25 -48.096,49.946c0,5.737 -0.171,11.287 0.046,16.816c0.221,5.679 -1.004,11.484 0.892,17.021c78.237,-5.321 151.054,-75.987 140.4,-170.642c-10.225,-90.9 -87.934,-136.75 -147.267,-136.745c-3.813,0 -7.554,0.191 -11.192,0.57Z" style="fill:url(#_Linear4);fill-rule:nonzero;"/><path d="M303.469,776.744c-33.979,1.133 -67.438,5.683 -100.358,14.15c-6.388,1.646 -12.721,3.483 -19.95,5.475c11.429,19.754 22.162,38.321 32.791,56.696c2.096,-0.225 3.279,-0.213 4.392,-0.488c36.233,-8.845 73,-12.337 110.254,-11.32c29.554,0.812 58.825,4.116 87.683,10.404c68.913,15.008 132.638,42.604 191.78,80.766c28.579,18.446 54.9,39.805 76.362,66.446c9.113,11.317 17.004,23.621 25.988,36.229l17.866,0c13.921,-11.204 27.059,-22.845 36.838,-37.6c3.971,-6.004 7.112,-12.72 9.604,-19.491c2.537,-6.888 0.204,-13.275 -5.071,-18.338c-5.812,-5.571 -12.733,-9.237 -20.529,-11.208c-6.358,-1.604 -11.8,0.162 -15.313,5.633c-2.312,3.609 -3.845,7.796 -5.241,11.892c-3.504,10.271 -13.146,12.846 -20.184,4.792c-10.295,-11.788 -15.262,-25.58 -12.341,-41.296c1.308,-7.075 3.925,-13.9 6.037,-21.146c-2.008,-1.483 -4.058,-3.1 -6.216,-4.563c-52.196,-35.308 -107.655,-64.37 -166.696,-86.45c-68.084,-25.466 -137.967,-40.87 -210.621,-40.866c-5.671,0 -11.371,0.091 -17.075,0.283Z" style="fill:url(#_Linear5);fill-rule:nonzero;"/><path d="M234.106,872.169c-1.82,0.408 -3.504,1.429 -5.787,2.383c11.879,20.567 23.375,40.471 34.837,60.334c123.134,-16.725 229.3,19.041 321.834,100.225l100.566,0c-4.27,-6.088 -7.687,-11.459 -11.591,-16.446c-16.488,-21.088 -35.788,-39.383 -57.65,-54.679c-88.154,-61.659 -184.888,-98.742 -293.542,-100.717c-2.346,-0.042 -4.683,-0.062 -7.025,-0.062c-27.487,0 -54.742,2.933 -81.642,8.962Z" style="fill:url(#_Linear6);fill-rule:nonzero;"/><path d="M773.84,884.523c-19.221,5.1 -35.246,15.271 -46.934,31.617c-4.079,5.696 -7.404,11.821 -6.97,20.792c3.129,-2.267 5.058,-4.18 7.375,-5.234c4.45,-2.041 9.02,-4.725 13.729,-5.158c21.212,-1.946 38.254,6.683 51.025,23.146c10.891,14.037 8.891,29.575 2.504,44.871c-4.55,10.895 -11.7,20.158 -19.508,28.908c-3.259,3.65 -6.588,7.237 -10.588,11.629l137.838,0c15.087,-26.129 30.087,-52.108 45.158,-78.204c-1.138,-1.475 -1.933,-2.679 -2.896,-3.729c-22.712,-24.813 -48.633,-45.429 -79.437,-59.329c-19.196,-8.663 -38.867,-13.563 -59.017,-13.563c-10.625,0 -21.383,1.363 -32.279,4.254Z" style="fill:url(#_Linear7);fill-rule:nonzero;"/><path d="M275.281,955.84c15.717,27.25 30.659,53.167 45.63,79.129l227.579,0c-67.975,-52.937 -142.663,-81.992 -226.796,-81.992c-15.158,0.005 -30.629,0.946 -46.413,2.863Z" style="fill:url(#_Linear8);fill-rule:nonzero;"/><path d="M1516.29,421.125c38.413,0 68.608,-8.354 90.604,-25.062c21.984,-16.692 32.988,-41.742 32.988,-75.146c0,-33.408 -10.438,-57.892 -31.317,-73.492c-20.875,-15.579 -50.808,-23.383 -89.767,-23.383c-12.816,0 -25.475,0.563 -38,1.671c-12.525,1.125 -23.795,2.504 -33.816,4.179l0,191.233l69.308,0Zm-68.471,72.655l0,172.854c-4.466,1.666 -10.316,3.187 -17.546,4.587c-7.233,1.388 -15.312,2.088 -24.208,2.088c-17.267,0 -29.646,-3.204 -37.162,-9.6c-7.513,-6.392 -11.28,-17.125 -11.28,-32.15l0,-430.896c0,-9.463 2.642,-16.833 7.938,-22.133c5.283,-5.275 12.654,-9.317 22.129,-12.109c17.25,-6.121 37.854,-10.291 61.796,-12.525c23.933,-2.216 46.479,-3.333 67.642,-3.333c72.366,0 125.95,15.317 160.75,45.929c34.779,30.617 52.187,72.1 52.187,124.425c0,52.333 -17.408,94.229 -52.187,125.671c-34.8,31.462 -86.717,47.192 -155.738,47.192l-74.321,0Z" style="fill:#3c3b3a;fill-rule:nonzero;"/><path d="M1949.36,411.934c36.179,0 64.842,-7.788 86.008,-23.379c21.146,-15.584 31.734,-39.246 31.734,-70.98c0,-31.179 -10.73,-54.55 -32.15,-70.145c-21.438,-15.584 -53.03,-23.388 -94.784,-23.388c-12.812,0 -25.471,0.563 -37.996,1.671c-12.525,1.125 -23.795,2.504 -33.816,4.183l0,182.038l81.004,0Zm-80.167,254.7c-4.466,1.666 -10.316,3.191 -17.541,4.587c-7.238,1.388 -15.317,2.088 -24.213,2.088c-17.262,0 -29.646,-3.204 -37.162,-9.6c-7.513,-6.392 -11.28,-17.125 -11.28,-32.15l0,-430.896c0,-9.463 2.642,-16.833 7.938,-22.133c5.283,-5.275 12.654,-9.317 22.133,-12.109c17.246,-6.121 37.85,-10.291 61.792,-12.525c23.933,-2.216 47.875,-3.333 71.817,-3.333c72.362,0 126.225,14.604 161.583,43.837c35.35,29.234 53.029,70.292 53.029,123.175c0,36.746 -9.608,68.059 -28.808,93.942c-19.213,25.888 -46.638,45.233 -82.254,58.038c13.358,16.708 26.433,33.275 39.245,49.687c12.796,16.421 24.909,32.017 36.321,46.767c11.413,14.758 21.717,28.121 30.9,40.083c9.188,11.975 16.563,21.85 22.129,29.646c-2.791,12.812 -8.912,22.546 -18.37,29.225c-9.471,6.683 -19.767,10.017 -30.896,10.017c-13.363,0 -23.942,-3.209 -31.729,-9.6c-7.813,-6.396 -15.596,-15.167 -23.384,-26.309l-107.729,-155.325l-93.521,0l0,182.888Z" style="fill:#3c3b3a;fill-rule:nonzero;"/><path d="M2239.7,655.777c-8.913,-8.904 -13.363,-20.587 -13.363,-35.079l0,-411.683c0,-14.471 4.45,-26.017 13.363,-34.655c8.904,-8.62 20.587,-12.945 35.075,-12.945l276.408,0c2.779,3.337 5.138,8.079 7.092,14.2c1.95,6.133 2.929,12.812 2.929,20.037c0,12.254 -2.929,21.713 -8.767,28.392c-5.85,6.675 -13.779,10.021 -23.804,10.021l-213.779,0l0,138.62l211.271,0c2.783,3.338 5.15,8.08 7.1,14.2c1.946,6.134 2.921,12.809 2.921,20.038c0,12.812 -2.921,22.275 -8.767,28.392c-5.837,6.137 -13.779,9.191 -23.796,9.191l-188.729,0l0,151.984l240.504,0c2.217,3.337 4.45,8.07 6.675,14.191c2.229,6.129 3.342,12.809 3.342,20.046c0,12.808 -2.917,22.408 -8.763,28.804c-5.854,6.409 -13.779,9.609 -23.8,9.609l-258.037,0c-14.488,0 -26.171,-4.45 -35.075,-13.363" style="fill:#3c3b3a;fill-rule:nonzero;"/><path d="M2965.37,411.103c0,-32.846 -4.729,-61.091 -14.187,-84.762c-9.484,-23.654 -22.555,-43.009 -39.25,-58.034c-16.709,-15.033 -36.2,-26.162 -58.455,-33.404c-22.275,-7.225 -46.22,-10.862 -71.825,-10.862c-29.508,0 -54,1.958 -73.483,5.854l0,368.262c11.129,2.792 23.513,4.592 37.163,5.43c13.633,0.833 27.412,1.254 41.333,1.254c57.892,0 102.154,-16.292 132.779,-48.859c30.608,-32.562 45.925,-80.858 45.925,-144.879m91.863,-0.837c0,45.087 -6.405,84.483 -19.209,118.162c-12.812,33.692 -31.041,61.663 -54.691,83.929c-23.671,22.267 -52.192,38.825 -85.6,49.684c-33.405,10.854 -70.43,16.283 -111.067,16.283c-17.821,0 -38.7,-0.837 -62.625,-2.508c-23.95,-1.667 -46.217,-5.846 -66.804,-12.525c-25.617,-8.354 -38.421,-23.384 -38.421,-45.096l0,-418.371c0,-9.454 2.642,-16.825 7.937,-22.121c5.284,-5.287 12.655,-9.316 22.13,-12.112c19.483,-6.117 40.633,-10.15 63.462,-12.109c22.825,-1.945 45.1,-2.916 66.808,-2.916c41.192,0 78.913,5.291 113.155,15.854c34.237,10.587 63.595,26.725 88.091,48.442c24.492,21.708 43.434,48.845 56.788,81.42c13.362,32.567 20.046,70.563 20.046,113.984" style="fill:#3c3b3a;fill-rule:nonzero;"/><path d="M3192.76,671.223c-7.517,1.387 -15.454,2.087 -23.808,2.087c-17.25,0 -29.642,-3.208 -37.159,-9.604c-7.516,-6.391 -11.271,-17.121 -11.271,-32.15l0,-470.141c4.45,-1.113 10.442,-2.363 17.959,-3.759c7.512,-1.383 15.446,-2.083 23.796,-2.083c16.141,0 28.104,3.067 35.908,9.179c7.792,6.138 11.692,16.996 11.692,32.571l0,469.308c-3.9,1.671 -9.6,3.192 -17.117,4.592" style="fill:#3c3b3a;fill-rule:nonzero;"/><path d="M3480.5,233.235c-5.571,15.029 -11.687,32.017 -18.371,50.937c-6.679,18.934 -13.646,38.825 -20.879,59.705c-7.237,20.875 -14.483,42.045 -21.708,63.47c-7.242,21.438 -14.2,42.167 -20.879,62.209l164.508,0c-7.238,-22.259 -14.617,-44.675 -22.129,-67.221c-7.513,-22.55 -14.754,-44.117 -21.709,-64.721c-6.975,-20.592 -13.504,-39.933 -19.625,-58.037c-6.133,-18.088 -11.141,-33.53 -15.029,-46.342l-4.179,0Zm101.879,308.133l-203.754,0l-40.921,127.771c-5.008,2.217 -10.312,3.888 -15.862,5.008c-5.579,1.113 -12.259,1.671 -20.042,1.671c-13.925,0 -25.346,-3.066 -34.237,-9.183c-8.913,-6.117 -13.367,-15.308 -13.367,-27.567c0,-6.112 0.842,-12.1 2.508,-17.946c1.663,-5.85 3.888,-12.383 6.679,-19.625c7.225,-23.383 17.396,-53.579 30.48,-90.608c13.075,-37.017 27,-76.117 41.758,-117.325c14.742,-41.192 29.642,-81.696 44.671,-121.504c15.033,-39.796 28.104,-73.904 39.25,-102.292c5.562,-3.346 14.191,-6.537 25.887,-9.608c11.688,-3.05 23.654,-4.588 35.909,-4.588c16.137,0 30.608,2.23 43.42,6.68c12.805,4.458 21.43,12.25 25.888,23.379c12.237,31.733 25.6,67.787 40.087,108.146c14.467,40.366 28.934,81.979 43.421,124.841c14.475,42.871 28.392,84.896 41.754,126.096c13.359,41.204 25.325,78.492 35.913,111.9c-5.017,5.567 -11.563,10.167 -19.625,13.779c-8.083,3.613 -17.683,5.425 -28.817,5.425c-15.033,0 -25.887,-2.921 -32.566,-8.771c-6.675,-5.845 -12.255,-15.72 -16.7,-29.641l-31.734,-96.038Z" style="fill:#3c3b3a;fill-rule:nonzero;"/><path d="M3766.59,655.777c-8.912,-8.904 -13.362,-20.587 -13.362,-35.079l0,-459.283c4.45,-1.113 10.441,-2.363 17.958,-3.759c7.512,-1.383 15.454,-2.083 23.796,-2.083c16.146,0 28.25,3.067 36.329,9.179c8.067,6.138 12.108,16.996 12.108,32.571l0,396.658l226.304,0c2.775,3.9 5.284,8.913 7.517,15.029c2.217,6.138 3.338,13.084 3.338,20.88c0,12.812 -3.071,22.541 -9.188,29.229c-6.125,6.675 -14.192,10.021 -24.212,10.021l-245.509,0c-14.491,0 -26.175,-4.45 -35.079,-13.363" style="fill:#3c3b3a;fill-rule:nonzero;"/><path d="M1470.2,897.346c0,2.642 -0.662,4.817 -1.983,6.513c-1.321,1.704 -3.371,3.246 -6.138,4.633c-3.275,1.763 -7.808,3.208 -13.6,4.342c-5.796,1.133 -11.708,1.7 -17.754,1.7c-8.942,0 -17.158,-1.167 -24.65,-3.496c-7.492,-2.325 -13.946,-5.95 -19.358,-10.858c-5.417,-4.913 -9.634,-11.146 -12.654,-18.7c-3.021,-7.555 -4.534,-16.496 -4.534,-26.821c0,-10.071 1.571,-18.884 4.721,-26.442c3.146,-7.554 7.396,-13.817 12.75,-18.796c5.35,-4.971 11.646,-8.712 18.888,-11.237c7.237,-2.513 14.95,-3.775 23.137,-3.775c5.413,0 10.388,0.471 14.921,1.416c4.533,0.942 8.433,2.171 11.708,3.684c3.275,1.512 5.792,3.241 7.559,5.196c1.762,1.95 2.645,4 2.645,6.133c0,2.146 -0.57,4 -1.704,5.571c-1.133,1.579 -2.521,2.808 -4.154,3.683c-3.4,-2.137 -7.429,-4.15 -12.087,-6.042c-4.659,-1.887 -10.517,-2.833 -17.563,-2.833c-5.671,0 -10.958,0.946 -15.871,2.833c-4.908,1.892 -9.158,4.663 -12.746,8.309c-3.587,3.658 -6.391,8.187 -8.408,13.604c-2.012,5.412 -3.021,11.642 -3.021,18.696c0,7.429 1.042,13.883 3.117,19.358c2.079,5.479 4.908,9.983 8.5,13.508c3.587,3.525 7.867,6.134 12.842,7.834c4.975,1.704 10.358,2.554 16.15,2.554c4.029,0 7.808,-0.346 11.333,-1.042c3.525,-0.687 6.233,-1.537 8.121,-2.55l0,-30.221l-26.063,0c-0.633,-0.75 -1.166,-1.854 -1.604,-3.3c-0.446,-1.45 -0.667,-2.933 -0.667,-4.441c0,-2.892 0.667,-5.034 1.988,-6.425c1.321,-1.379 3.117,-2.075 5.379,-2.075l31.733,0c2.642,0 4.817,0.787 6.517,2.358c1.7,1.575 2.55,3.813 2.55,6.708l0,40.421Z" style="fill:#3c3b3a;fill-rule:nonzero;"/><path d="M1498.11,909.057c-2.013,-2.013 -3.021,-4.659 -3.021,-7.934l0,-93.116c0,-3.275 1.008,-5.884 3.021,-7.838c2.012,-1.954 4.658,-2.929 7.933,-2.929l62.517,0c0.633,0.758 1.166,1.829 1.608,3.217c0.438,1.383 0.658,2.895 0.658,4.525c0,2.77 -0.658,4.912 -1.979,6.42c-1.325,1.517 -3.116,2.271 -5.383,2.271l-48.354,0l0,31.354l47.787,0c0.629,0.755 1.163,1.825 1.604,3.209c0.442,1.387 0.663,2.904 0.663,4.533c0,2.9 -0.663,5.038 -1.983,6.421c-1.325,1.387 -3.117,2.079 -5.384,2.079l-42.687,0l0,34.375l54.396,0c0.504,0.758 1.004,1.829 1.512,3.213c0.5,1.387 0.754,2.895 0.754,4.533c0,2.9 -0.658,5.067 -1.983,6.517c-1.321,1.445 -3.117,2.17 -5.383,2.17l-58.363,0c-3.275,0 -5.921,-1.008 -7.933,-3.02" style="fill:#3c3b3a;fill-rule:nonzero;"/><path d="M1626.47,897.912c7.933,0 13.787,-1.634 17.566,-4.913c3.775,-3.271 5.663,-7.492 5.663,-12.654c0,-4.533 -1.446,-8.183 -4.342,-10.954c-2.9,-2.767 -7.496,-5.096 -13.787,-6.988l-14.167,-4.341c-4.408,-1.384 -8.404,-2.992 -11.996,-4.821c-3.587,-1.821 -6.642,-3.967 -9.158,-6.421c-2.521,-2.454 -4.438,-5.35 -5.763,-8.688c-1.321,-3.333 -1.979,-7.204 -1.979,-11.616c0,-9.942 3.679,-17.784 11.046,-23.513c7.367,-5.729 17.346,-8.596 29.937,-8.596c5.163,0 9.946,0.413 14.355,1.225c4.408,0.821 8.216,1.959 11.429,3.405c3.208,1.445 5.725,3.145 7.554,5.1c1.825,1.95 2.737,4.062 2.737,6.329c0,2.137 -0.537,3.996 -1.604,5.566c-1.071,1.58 -2.358,2.867 -3.871,3.871c-3.15,-2.391 -7.27,-4.437 -12.37,-6.137c-5.1,-1.7 -10.742,-2.55 -16.909,-2.55c-6.925,0 -12.275,1.387 -16.054,4.154c-3.775,2.775 -5.662,6.487 -5.662,11.146c0,3.775 1.32,6.833 3.962,9.158c2.646,2.333 6.992,4.375 13.033,6.142l10.955,3.212c10.579,3.146 18.795,7.463 24.65,12.938c5.854,5.479 8.783,12.941 8.783,22.379c0,5.037 -0.979,9.667 -2.929,13.879c-1.954,4.225 -4.754,7.842 -8.404,10.867c-3.655,3.016 -8.217,5.35 -13.692,6.983c-5.479,1.638 -11.683,2.458 -18.608,2.458c-5.792,0 -11.08,-0.504 -15.863,-1.512c-4.787,-1.008 -8.908,-2.329 -12.371,-3.963c-3.466,-1.637 -6.141,-3.529 -8.029,-5.67c-1.887,-2.134 -2.833,-4.4 -2.833,-6.796c0,-2.517 0.758,-4.659 2.266,-6.421c1.513,-1.763 3.275,-3.088 5.292,-3.971c3.021,2.771 7.142,5.417 12.371,7.938c5.221,2.516 11.487,3.775 18.792,3.775" style="fill:#3c3b3a;fill-rule:nonzero;"/><path d="M1736.85,813.862l0,97.65c-0.884,0.375 -2.171,0.721 -3.871,1.042c-1.7,0.308 -3.496,0.466 -5.384,0.466c-3.908,0 -6.675,-0.725 -8.312,-2.17c-1.638,-1.446 -2.454,-3.871 -2.454,-7.271l0,-89.717l-33.434,0c-0.629,-0.879 -1.162,-2.012 -1.604,-3.396c-0.441,-1.387 -0.662,-2.962 -0.662,-4.725c0,-2.766 0.662,-4.879 1.987,-6.329c1.321,-1.446 3.113,-2.171 5.384,-2.171l82.158,0c0.5,0.754 0.975,1.825 1.417,3.213c0.441,1.383 0.662,2.9 0.662,4.529c0,5.921 -2.458,8.879 -7.367,8.879l-28.52,0Z" style="fill:#3c3b3a;fill-rule:nonzero;"/><path d="M1806.05,912.552c-1.7,0.308 -3.491,0.467 -5.383,0.467c-3.904,0 -6.704,-0.725 -8.404,-2.167c-1.7,-1.45 -2.55,-3.875 -2.55,-7.271l0,-106.341c1.004,-0.25 2.362,-0.534 4.062,-0.85c1.696,-0.313 3.492,-0.471 5.379,-0.471c3.655,0 6.359,0.696 8.121,2.079c1.763,1.387 2.646,3.842 2.646,7.362l0,106.15c-0.883,0.38 -2.171,0.725 -3.871,1.042" style="fill:#3c3b3a;fill-rule:nonzero;"/><path d="M1903.11,755.687c3.396,0.125 6.042,1.009 7.93,2.646c1.891,1.634 2.833,3.588 2.833,5.854c0,2.013 -0.442,3.684 -1.321,5.005c-0.879,1.325 -2.392,2.866 -4.533,4.629l-16.809,13.408c-3.15,-0.125 -5.57,-0.85 -7.275,-2.171c-1.695,-1.325 -2.545,-2.991 -2.545,-5.004c0,-2.396 1.066,-4.596 3.208,-6.608l18.512,-17.759Zm20.584,98.784c0,-14.104 -3.209,-24.838 -9.629,-32.204c-6.425,-7.367 -15.046,-11.05 -25.88,-11.05c-10.575,0 -19.104,3.716 -25.591,11.141c-6.484,7.434 -9.725,18.138 -9.725,32.113c0,14.104 3.208,24.871 9.629,32.296c6.425,7.433 14.987,11.145 25.687,11.145c10.834,0 19.455,-3.712 25.88,-11.145c6.42,-7.425 9.629,-18.192 9.629,-32.296m20.591,0c0,9.821 -1.416,18.483 -4.25,25.966c-2.833,7.496 -6.77,13.763 -11.804,18.796c-5.037,5.038 -10.958,8.846 -17.754,11.425c-6.8,2.584 -14.233,3.875 -22.292,3.875c-8.058,0 -15.516,-1.291 -22.379,-3.875c-6.866,-2.579 -12.783,-6.387 -17.754,-11.425c-4.975,-5.033 -8.879,-11.3 -11.708,-18.796c-2.838,-7.483 -4.25,-16.145 -4.25,-25.966c0,-9.821 1.446,-18.446 4.341,-25.875c2.896,-7.429 6.863,-13.696 11.9,-18.796c5.034,-5.096 10.984,-8.938 17.846,-11.521c6.863,-2.579 14.196,-3.871 22.004,-3.871c7.934,0 15.3,1.292 22.1,3.871c6.8,2.583 12.717,6.425 17.755,11.521c5.037,5.1 9.004,11.367 11.9,18.796c2.895,7.429 4.345,16.054 4.345,25.875" style="fill:#3c3b3a;fill-rule:nonzero;"/><path d="M2055.61,912.076c-2.142,0.758 -4.662,1.133 -7.554,1.133c-3.529,0 -6.583,-0.658 -9.163,-1.983c-2.579,-1.321 -4.941,-3.804 -7.083,-7.459l-31.162,-54.208c-1.388,-2.392 -2.805,-4.912 -4.25,-7.554c-1.45,-2.646 -2.834,-5.292 -4.155,-7.933c-1.32,-2.642 -2.583,-5.196 -3.779,-7.655c-1.196,-2.45 -2.237,-4.625 -3.116,-6.512l-0.946,0.187c0.633,6.55 1.071,13.571 1.325,21.063c0.25,7.492 0.375,14.579 0.375,21.246l0,49.3c-0.884,0.25 -2.171,0.533 -3.871,0.85c-1.7,0.308 -3.433,0.471 -5.192,0.471c-3.779,0 -6.516,-0.692 -8.216,-2.075c-1.7,-1.388 -2.55,-3.717 -2.55,-6.988l0,-103.504c1.254,-1.388 3.05,-2.492 5.383,-3.308c2.325,-0.817 4.812,-1.23 7.458,-1.23c3.525,0 6.613,0.63 9.254,1.888c2.646,1.262 5.038,3.717 7.18,7.367l31.354,54.395c1.383,2.396 2.766,4.913 4.154,7.559c1.383,2.641 2.742,5.283 4.062,7.929c1.321,2.646 2.58,5.196 3.775,7.65c1.196,2.458 2.234,4.629 3.117,6.521l0.754,-0.192c-1.008,-9.567 -1.571,-19.046 -1.7,-28.429c-0.125,-9.379 -0.187,-18.538 -0.187,-27.475l0,-35.892c1.008,-0.25 2.329,-0.529 3.966,-0.85c1.638,-0.312 3.4,-0.471 5.292,-0.471c3.775,0 6.517,0.696 8.213,2.08c1.7,1.387 2.55,3.716 2.55,6.987l0,104.258c-1.388,1.134 -3.146,2.08 -5.288,2.834" style="fill:#3c3b3a;fill-rule:nonzero;"/><path d="M2146.18,912.552c-1.7,0.308 -3.496,0.467 -5.384,0.467c-3.904,0 -6.704,-0.725 -8.408,-2.167c-1.696,-1.45 -2.546,-3.875 -2.546,-7.271l0,-106.341c1.004,-0.25 2.363,-0.534 4.063,-0.85c1.696,-0.313 3.491,-0.471 5.379,-0.471c3.654,0 6.358,0.696 8.125,2.079c1.758,1.387 2.642,3.842 2.642,7.362l0,106.15c-0.884,0.38 -2.175,0.725 -3.871,1.042" style="fill:#3c3b3a;fill-rule:nonzero;"/><path d="M2267.35,912.076c-2.146,0.758 -4.658,1.133 -7.554,1.133c-3.525,0 -6.584,-0.658 -9.163,-1.983c-2.583,-1.321 -4.941,-3.804 -7.083,-7.459l-31.163,-54.208c-1.387,-2.392 -2.804,-4.912 -4.25,-7.554c-1.45,-2.646 -2.837,-5.292 -4.154,-7.933c-1.321,-2.642 -2.583,-5.196 -3.779,-7.655c-1.196,-2.45 -2.233,-4.625 -3.112,-6.512l-0.95,0.187c0.633,6.55 1.07,13.571 1.325,21.063c0.25,7.492 0.375,14.579 0.375,21.246l0,49.3c-0.884,0.25 -2.171,0.533 -3.871,0.85c-1.7,0.308 -3.434,0.471 -5.192,0.471c-3.779,0 -6.517,-0.692 -8.217,-2.075c-1.7,-1.388 -2.55,-3.717 -2.55,-6.988l0,-103.504c1.255,-1.388 3.05,-2.492 5.384,-3.308c2.325,-0.817 4.816,-1.23 7.462,-1.23c3.521,0 6.609,0.63 9.25,1.888c2.646,1.262 5.034,3.717 7.179,7.367l31.355,54.395c1.383,2.396 2.766,4.913 4.154,7.559c1.383,2.641 2.741,5.283 4.062,7.929c1.321,2.646 2.579,5.196 3.775,7.65c1.196,2.458 2.234,4.629 3.117,6.521l0.758,-0.192c-1.008,-9.567 -1.579,-19.046 -1.7,-28.429c-0.129,-9.379 -0.191,-18.538 -0.191,-27.475l0,-35.892c1.008,-0.25 2.329,-0.529 3.966,-0.85c1.638,-0.312 3.4,-0.471 5.292,-0.471c3.775,0 6.517,0.696 8.212,2.08c1.7,1.387 2.555,3.716 2.555,6.987l0,104.258c-1.388,1.134 -3.15,2.08 -5.292,2.834" style="fill:#3c3b3a;fill-rule:nonzero;"/><path d="M2369.25,882.421c-1.008,0.887 -2.391,1.641 -4.154,2.271c-1.767,0.629 -3.775,0.941 -6.042,0.941c-2.645,0 -4.945,-0.404 -6.9,-1.225c-1.95,-0.821 -3.304,-2.108 -4.054,-3.875c-5.796,-13.341 -10.8,-25.183 -15.021,-35.508c-4.216,-10.321 -7.583,-18.946 -10.1,-25.875l-0.945,0c-0.38,8.942 -0.73,17.158 -1.038,24.646c-0.317,7.491 -0.662,14.829 -1.042,22.008c-0.379,7.171 -0.787,14.479 -1.225,21.908c-0.441,7.43 -0.916,15.425 -1.416,23.988c-1.013,0.375 -2.304,0.725 -3.875,1.037c-1.575,0.317 -3.242,0.475 -5.004,0.475c-6.8,0 -10.2,-2.77 -10.2,-8.312c0,-1.638 0.095,-4.533 0.283,-8.683c0.187,-4.159 0.442,-9.1 0.754,-14.834c0.313,-5.725 0.692,-12.054 1.138,-18.983c0.437,-6.925 0.908,-13.942 1.412,-21.058c0.504,-7.113 1.008,-14.096 1.513,-20.967c0.504,-6.858 1.008,-13.188 1.512,-18.979c1.004,-1.004 2.675,-2.075 5.004,-3.213c2.329,-1.133 5.192,-1.7 8.596,-1.7c4.025,0 7.238,0.729 9.629,2.171c2.392,1.45 4.284,3.625 5.671,6.517c2.008,4.412 4.088,9.162 6.233,14.266c2.134,5.096 4.275,10.263 6.421,15.488c2.138,5.221 4.213,10.417 6.234,15.579c2.008,5.163 3.962,10.008 5.85,14.542l0.95,0c2.387,-6.296 4.812,-12.529 7.27,-18.696c2.455,-6.171 4.846,-12.092 7.175,-17.754c2.33,-5.667 4.534,-11.021 6.609,-16.054c2.079,-5.038 3.996,-9.567 5.762,-13.6c1.384,-0.63 3.084,-1.196 5.1,-1.7c2.013,-0.5 4.092,-0.759 6.234,-0.759c4.154,0 7.27,0.629 9.35,1.892c2.079,1.258 3.429,3.083 4.062,5.479c0.5,2.267 1.063,6.013 1.7,11.238c0.625,5.225 1.258,11.237 1.888,18.037c0.625,6.796 1.258,14.008 1.887,21.625c0.625,7.617 1.196,14.988 1.7,22.096c0.5,7.117 0.946,13.667 1.325,19.646c0.371,5.979 0.625,10.666 0.75,14.071c-1.383,0.883 -2.862,1.541 -4.433,1.983c-1.579,0.442 -3.434,0.662 -5.575,0.662c-2.646,0 -4.946,-0.57 -6.892,-1.704c-1.954,-1.133 -3.058,-3.275 -3.308,-6.421c-0.504,-8.558 -0.975,-17 -1.417,-25.308c-0.442,-8.308 -0.846,-16.179 -1.225,-23.608c-0.379,-7.429 -0.729,-14.288 -1.042,-20.588c-0.312,-6.296 -0.6,-11.646 -0.845,-16.058l-0.759,0c-2.396,6.425 -5.633,14.612 -9.729,24.558c-4.092,9.95 -9.346,22.729 -15.771,38.338" style="fill:#3c3b3a;fill-rule:nonzero;"/><path d="M2529.62,854.471c0,-14.104 -3.213,-24.838 -9.633,-32.204c-6.421,-7.367 -15.046,-11.05 -25.871,-11.05c-10.584,0 -19.109,3.716 -25.596,11.141c-6.488,7.434 -9.725,18.138 -9.725,32.113c0,14.104 3.208,24.871 9.629,32.296c6.421,7.433 14.983,11.145 25.692,11.145c10.825,0 19.45,-3.712 25.871,-11.145c6.42,-7.425 9.633,-18.192 9.633,-32.296m20.587,0c0,9.821 -1.412,18.483 -4.245,25.966c-2.838,7.496 -6.771,13.763 -11.805,18.796c-5.037,5.038 -10.958,8.846 -17.758,11.425c-6.8,2.584 -14.229,3.875 -22.283,3.875c-8.063,0 -15.521,-1.291 -22.388,-3.875c-6.862,-2.579 -12.779,-6.387 -17.75,-11.425c-4.979,-5.033 -8.879,-11.3 -11.712,-18.796c-2.834,-7.483 -4.246,-16.145 -4.246,-25.966c0,-9.821 1.442,-18.446 4.342,-25.875c2.895,-7.429 6.858,-13.696 11.9,-18.796c5.033,-5.096 10.983,-8.938 17.845,-11.521c6.863,-2.579 14.196,-3.871 22.009,-3.871c7.929,0 15.296,1.292 22.096,3.871c6.8,2.583 12.716,6.425 17.754,11.521c5.037,5.1 9,11.367 11.896,18.796c2.9,7.429 4.345,16.054 4.345,25.875" style="fill:#3c3b3a;fill-rule:nonzero;"/><path d="M2640.02,879.023c0,-5.791 -2.146,-10.354 -6.421,-13.691c-4.283,-3.338 -10.454,-5.009 -18.512,-5.009l-23.417,0l0,35.892c2.642,0.629 5.788,1.104 9.442,1.417c3.65,0.312 7.3,0.466 10.954,0.466c8.942,0 15.833,-1.537 20.683,-4.625c4.842,-3.083 7.271,-7.904 7.271,-14.45m-48.35,-33.996l22.471,0c7.179,0 12.596,-1.57 16.242,-4.725c3.65,-3.145 5.483,-7.425 5.483,-12.841c0,-11.079 -8.692,-16.621 -26.067,-16.621c-3.654,0 -6.991,0.129 -10.008,0.379c-3.025,0.254 -5.733,0.563 -8.121,0.942l0,32.866Zm64.592,-18.695c0,5.541 -1.388,10.479 -4.154,14.82c-2.775,4.346 -7.175,7.78 -13.221,10.296c7.3,2.396 12.746,6.042 16.333,10.954c3.592,4.909 5.384,10.638 5.384,17.188c0,11.842 -4.246,20.558 -12.746,26.158c-8.5,5.604 -20.684,8.409 -36.55,8.409c-4.909,0 -10.1,-0.255 -15.579,-0.759c-5.48,-0.504 -10.55,-1.45 -15.205,-2.833c-5.795,-1.629 -8.687,-4.971 -8.687,-10.013l0,-94.433c0,-2.142 0.592,-3.808 1.792,-5.008c1.195,-1.192 2.862,-2.104 5.008,-2.734c4.279,-1.387 9.033,-2.329 14.254,-2.833c5.225,-0.504 10.863,-0.762 16.908,-0.762c14.734,0 26.159,2.583 34.284,7.745c8.121,5.167 12.179,13.1 12.179,23.805" style="fill:#3c3b3a;fill-rule:nonzero;"/><path d="M2699.29,912.552c-1.696,0.308 -3.492,0.467 -5.379,0.467c-3.909,0 -6.709,-0.725 -8.409,-2.167c-1.7,-1.45 -2.55,-3.875 -2.55,-7.271l0,-106.341c1.009,-0.25 2.363,-0.534 4.063,-0.85c1.7,-0.313 3.496,-0.471 5.383,-0.471c3.65,0 6.358,0.696 8.121,2.079c1.762,1.387 2.646,3.842 2.646,7.362l0,106.15c-0.884,0.38 -2.175,0.725 -3.875,1.042" style="fill:#3c3b3a;fill-rule:nonzero;"/><path d="M2734.16,909.057c-2.017,-2.013 -3.025,-4.659 -3.025,-7.934l0,-103.883c1.008,-0.25 2.362,-0.533 4.062,-0.85c1.696,-0.313 3.496,-0.471 5.379,-0.471c3.655,0 6.392,0.696 8.221,2.079c1.821,1.388 2.738,3.842 2.738,7.363l0,89.716l51.183,0c0.625,0.884 1.196,2.017 1.7,3.405c0.5,1.383 0.758,2.958 0.758,4.72c0,2.896 -0.695,5.096 -2.079,6.609c-1.387,1.512 -3.212,2.266 -5.479,2.266l-55.529,0c-3.275,0 -5.921,-1.008 -7.929,-3.02" style="fill:#3c3b3a;fill-rule:nonzero;"/><path d="M2839.02,912.552c-1.7,0.308 -3.496,0.467 -5.387,0.467c-3.9,0 -6.7,-0.725 -8.404,-2.167c-1.696,-1.45 -2.55,-3.875 -2.55,-7.271l0,-106.341c1.004,-0.25 2.362,-0.534 4.062,-0.85c1.7,-0.313 3.496,-0.471 5.383,-0.471c3.65,0 6.355,0.696 8.121,2.079c1.763,1.387 2.646,3.842 2.646,7.362l0,106.15c-0.883,0.38 -2.175,0.725 -3.871,1.042" style="fill:#3c3b3a;fill-rule:nonzero;"/><path d="M2911.49,813.484c-1.262,3.396 -2.645,7.241 -4.154,11.521c-1.512,4.283 -3.087,8.783 -4.725,13.504c-1.633,4.725 -3.271,9.508 -4.908,14.354c-1.638,4.85 -3.208,9.537 -4.721,14.071l37.208,0c-1.637,-5.034 -3.308,-10.104 -5.008,-15.2c-1.696,-5.104 -3.337,-9.979 -4.912,-14.642c-1.575,-4.654 -3.05,-9.033 -4.438,-13.125c-1.383,-4.092 -2.521,-7.587 -3.396,-10.483l-0.946,0Zm23.042,69.696l-46.083,0l-9.259,28.895c-1.129,0.5 -2.329,0.88 -3.587,1.138c-1.258,0.25 -2.771,0.375 -4.533,0.375c-3.15,0 -5.73,-0.696 -7.746,-2.079c-2.013,-1.384 -3.017,-3.463 -3.017,-6.234c0,-1.383 0.188,-2.733 0.567,-4.058c0.371,-1.321 0.875,-2.8 1.508,-4.437c1.633,-5.288 3.933,-12.121 6.892,-20.496c2.958,-8.371 6.108,-17.217 9.45,-26.538c3.333,-9.316 6.7,-18.475 10.1,-27.479c3.404,-9.004 6.358,-16.712 8.879,-23.137c1.254,-0.755 3.208,-1.48 5.854,-2.171c2.642,-0.696 5.35,-1.042 8.121,-1.042c3.654,0 6.925,0.504 9.821,1.508c2.9,1.017 4.846,2.775 5.858,5.292c2.771,7.179 5.788,15.333 9.063,24.463c3.279,9.129 6.55,18.541 9.825,28.233c3.27,9.7 6.42,19.204 9.441,28.521c3.021,9.321 5.725,17.754 8.125,25.308c-1.133,1.258 -2.616,2.3 -4.441,3.117c-1.825,0.821 -4,1.229 -6.513,1.229c-3.404,0 -5.862,-0.663 -7.371,-1.983c-1.508,-1.321 -2.771,-3.559 -3.779,-6.709l-7.175,-21.716Z" style="fill:#3c3b3a;fill-rule:nonzero;"/><path d="M3019.29,853.905c8.188,0 14.671,-1.766 19.454,-5.291c4.784,-3.521 7.179,-8.875 7.179,-16.054c0,-7.046 -2.425,-12.342 -7.275,-15.867c-4.845,-3.521 -11.991,-5.288 -21.437,-5.288c-2.896,0 -5.758,0.13 -8.592,0.38c-2.833,0.254 -5.383,0.562 -7.646,0.941l0,41.179l18.317,0Zm-18.133,57.605c-1.009,0.379 -2.329,0.725 -3.967,1.041c-1.633,0.309 -3.462,0.471 -5.475,0.471c-3.904,0 -6.708,-0.725 -8.408,-2.171c-1.696,-1.45 -2.546,-3.875 -2.546,-7.271l0,-97.462c0,-2.138 0.596,-3.808 1.796,-5.008c1.196,-1.192 2.862,-2.105 5.004,-2.734c3.9,-1.387 8.558,-2.329 13.975,-2.833c5.412,-0.504 10.829,-0.758 16.246,-0.758c16.362,0 28.55,3.304 36.546,9.916c7.995,6.609 11.995,15.9 11.995,27.859c0,8.312 -2.17,15.391 -6.516,21.25c-4.346,5.858 -10.55,10.233 -18.604,13.125c3.016,3.779 5.975,7.529 8.879,11.237c2.891,3.717 5.629,7.242 8.208,10.575c2.579,3.342 4.913,6.367 6.992,9.071c2.079,2.708 3.746,4.942 5.008,6.704c-0.633,2.9 -2.017,5.1 -4.158,6.613c-2.142,1.508 -4.471,2.262 -6.992,2.262c-3.017,0 -5.408,-0.721 -7.175,-2.171c-1.762,-1.446 -3.525,-3.429 -5.287,-5.95l-24.363,-35.133l-21.158,0l0,41.367Z" style="fill:#3c3b3a;fill-rule:nonzero;"/><path d="M3105.76,912.552c-1.695,0.308 -3.495,0.467 -5.383,0.467c-3.904,0 -6.7,-0.725 -8.404,-2.167c-1.7,-1.45 -2.554,-3.875 -2.554,-7.271l0,-106.341c1.008,-0.25 2.366,-0.534 4.066,-0.85c1.696,-0.313 3.492,-0.471 5.384,-0.471c3.65,0 6.354,0.696 8.116,2.079c1.767,1.387 2.646,3.842 2.646,7.362l0,106.15c-0.879,0.38 -2.171,0.725 -3.871,1.042" style="fill:#3c3b3a;fill-rule:nonzero;"/><path d="M3178.23,813.484c-1.263,3.396 -2.646,7.241 -4.159,11.521c-1.508,4.283 -3.083,8.783 -4.721,13.504c-1.633,4.725 -3.275,9.508 -4.908,14.354c-1.637,4.85 -3.212,9.537 -4.721,14.071l37.204,0c-1.633,-5.034 -3.304,-10.104 -5.004,-15.2c-1.7,-5.104 -3.337,-9.979 -4.912,-14.642c-1.575,-4.654 -3.054,-9.033 -4.438,-13.125c-1.387,-4.092 -2.521,-7.587 -3.396,-10.483l-0.945,0Zm23.037,69.696l-46.079,0l-9.258,28.895c-1.13,0.5 -2.334,0.88 -3.588,1.138c-1.262,0.25 -2.771,0.375 -4.533,0.375c-3.15,0 -5.729,-0.696 -7.746,-2.079c-2.017,-1.384 -3.017,-3.463 -3.017,-6.234c0,-1.383 0.188,-2.733 0.567,-4.058c0.371,-1.321 0.875,-2.8 1.508,-4.437c1.629,-5.288 3.934,-12.121 6.892,-20.496c2.958,-8.371 6.108,-17.217 9.45,-26.538c3.333,-9.316 6.7,-18.475 10.1,-27.479c3.4,-9.004 6.358,-16.712 8.879,-23.137c1.254,-0.755 3.208,-1.48 5.854,-2.171c2.642,-0.696 5.35,-1.042 8.121,-1.042c3.654,0 6.925,0.504 9.821,1.508c2.896,1.017 4.846,2.775 5.854,5.292c2.775,7.179 5.792,15.333 9.067,24.463c3.275,9.129 6.55,18.541 9.825,28.233c3.271,9.7 6.421,19.204 9.441,28.521c3.021,9.321 5.725,17.754 8.125,25.308c-1.137,1.258 -2.616,2.3 -4.441,3.117c-1.825,0.821 -4,1.229 -6.513,1.229c-3.404,0 -5.862,-0.663 -7.371,-1.983c-1.508,-1.321 -2.77,-3.559 -3.779,-6.709l-7.179,-21.716Z" style="fill:#3c3b3a;fill-rule:nonzero;"/><path d="M3305.25,912.552c-1.7,0.308 -3.496,0.467 -5.384,0.467c-3.904,0 -6.704,-0.725 -8.404,-2.167c-1.7,-1.45 -2.554,-3.875 -2.554,-7.271l0,-106.341c1.008,-0.25 2.367,-0.534 4.062,-0.85c1.7,-0.313 3.496,-0.471 5.388,-0.471c3.646,0 6.354,0.696 8.117,2.079c1.766,1.387 2.645,3.842 2.645,7.362l0,106.15c-0.879,0.38 -2.17,0.725 -3.87,1.042" style="fill:#3c3b3a;fill-rule:nonzero;"/><path d="M3426.42,912.076c-2.142,0.758 -4.658,1.133 -7.55,1.133c-3.529,0 -6.588,-0.658 -9.163,-1.983c-2.583,-1.321 -4.941,-3.804 -7.083,-7.459l-31.162,-54.208c-1.388,-2.392 -2.805,-4.912 -4.255,-7.554c-1.445,-2.646 -2.833,-5.292 -4.154,-7.933c-1.321,-2.642 -2.579,-5.196 -3.775,-7.655c-1.196,-2.45 -2.237,-4.625 -3.116,-6.512l-0.946,0.187c0.629,6.55 1.066,13.571 1.321,21.063c0.254,7.492 0.379,14.579 0.379,21.246l0,49.3c-0.884,0.25 -2.171,0.533 -3.871,0.85c-1.7,0.308 -3.433,0.471 -5.192,0.471c-3.783,0 -6.521,-0.692 -8.221,-2.075c-1.695,-1.388 -2.545,-3.717 -2.545,-6.988l0,-103.504c1.254,-1.388 3.05,-2.492 5.379,-3.308c2.329,-0.817 4.821,-1.23 7.462,-1.23c3.521,0 6.609,0.63 9.254,1.888c2.646,1.262 5.034,3.717 7.175,7.367l31.355,54.395c1.383,2.396 2.766,4.913 4.154,7.559c1.383,2.641 2.741,5.283 4.066,7.929c1.317,2.646 2.575,5.196 3.775,7.65c1.196,2.458 2.234,4.629 3.117,6.521l0.754,-0.192c-1.008,-9.567 -1.575,-19.046 -1.7,-28.429c-0.129,-9.379 -0.187,-18.538 -0.187,-27.475l0,-35.892c1.008,-0.25 2.325,-0.529 3.966,-0.85c1.638,-0.312 3.396,-0.471 5.288,-0.471c3.779,0 6.517,0.696 8.217,2.08c1.695,1.387 2.55,3.716 2.55,6.987l0,104.258c-1.388,1.134 -3.15,2.08 -5.292,2.834" style="fill:#3c3b3a;fill-rule:nonzero;"/><path d="M3504.13,813.862l0,97.65c-0.884,0.375 -2.171,0.721 -3.875,1.042c-1.7,0.308 -3.492,0.466 -5.384,0.466c-3.904,0 -6.675,-0.725 -8.308,-2.17c-1.637,-1.446 -2.454,-3.871 -2.454,-7.271l0,-89.717l-33.433,0c-0.63,-0.879 -1.167,-2.012 -1.605,-3.396c-0.441,-1.387 -0.662,-2.962 -0.662,-4.725c0,-2.766 0.662,-4.879 1.987,-6.329c1.317,-1.446 3.113,-2.171 5.38,-2.171l82.158,0c0.504,0.754 0.979,1.825 1.421,3.213c0.437,1.383 0.658,2.9 0.658,4.529c0,5.921 -2.454,8.879 -7.362,8.879l-28.521,0Z" style="fill:#3c3b3a;fill-rule:nonzero;"/><path d="M3559.92,909.057c-2.017,-2.013 -3.025,-4.659 -3.025,-7.934l0,-93.116c0,-3.275 1.008,-5.884 3.025,-7.838c2.008,-1.954 4.654,-2.929 7.929,-2.929l62.521,0c0.629,0.758 1.162,1.829 1.604,3.217c0.442,1.383 0.663,2.895 0.663,4.525c0,2.77 -0.663,4.912 -1.98,6.42c-1.329,1.517 -3.12,2.271 -5.387,2.271l-48.354,0l0,31.354l47.787,0c0.625,0.755 1.163,1.825 1.609,3.209c0.437,1.387 0.658,2.904 0.658,4.533c0,2.9 -0.658,5.038 -1.983,6.421c-1.321,1.387 -3.117,2.079 -5.384,2.079l-42.687,0l0,34.375l54.4,0c0.5,0.758 1.004,1.829 1.508,3.213c0.5,1.387 0.758,2.895 0.758,4.533c0,2.9 -0.658,5.067 -1.987,6.517c-1.317,1.445 -3.117,2.17 -5.379,2.17l-58.367,0c-3.275,0 -5.921,-1.008 -7.929,-3.02" style="fill:#3c3b3a;fill-rule:nonzero;"/><path d="M3746.82,897.346c0,2.642 -0.663,4.817 -1.984,6.513c-1.325,1.704 -3.37,3.246 -6.137,4.633c-3.275,1.763 -7.808,3.208 -13.604,4.342c-5.792,1.133 -11.704,1.7 -17.754,1.7c-8.938,0 -17.159,-1.167 -24.646,-3.496c-7.492,-2.325 -13.946,-5.95 -19.359,-10.858c-5.416,-4.913 -9.633,-11.146 -12.654,-18.7c-3.025,-7.555 -4.533,-16.496 -4.533,-26.821c0,-10.071 1.575,-18.884 4.721,-26.442c3.146,-7.554 7.391,-13.817 12.746,-18.796c5.354,-4.971 11.645,-8.712 18.887,-11.237c7.246,-2.513 14.95,-3.775 23.142,-3.775c5.412,0 10.387,0.471 14.921,1.416c4.529,0.942 8.433,2.171 11.708,3.684c3.275,1.512 5.792,3.241 7.554,5.196c1.763,1.95 2.646,4 2.646,6.133c0,2.146 -0.567,4 -1.696,5.571c-1.137,1.579 -2.525,2.808 -4.158,3.683c-3.4,-2.137 -7.429,-4.15 -12.092,-6.042c-4.658,-1.887 -10.512,-2.833 -17.562,-2.833c-5.667,0 -10.955,0.946 -15.867,2.833c-4.908,1.892 -9.158,4.663 -12.75,8.309c-3.588,3.658 -6.392,8.187 -8.404,13.604c-2.017,5.412 -3.021,11.642 -3.021,18.696c0,7.429 1.037,13.883 3.117,19.358c2.075,5.479 4.912,9.983 8.495,13.508c3.596,3.525 7.871,6.134 12.846,7.834c4.975,1.704 10.359,2.554 16.146,2.554c4.033,0 7.808,-0.346 11.338,-1.042c3.52,-0.687 6.229,-1.537 8.12,-2.55l0,-30.221l-26.066,0c-0.629,-0.75 -1.163,-1.854 -1.6,-3.3c-0.446,-1.45 -0.667,-2.933 -0.667,-4.441c0,-2.892 0.667,-5.034 1.983,-6.425c1.325,-1.379 3.117,-2.075 5.388,-2.075l31.725,0c2.646,0 4.817,0.787 6.521,2.358c1.7,1.575 2.55,3.813 2.55,6.708l0,40.421Z" style="fill:#3c3b3a;fill-rule:nonzero;"/><path d="M3810.01,853.905c8.183,0 14.67,-1.766 19.454,-5.291c4.783,-3.521 7.175,-8.875 7.175,-16.054c0,-7.046 -2.421,-12.342 -7.271,-15.867c-4.85,-3.521 -11.992,-5.288 -21.438,-5.288c-2.895,0 -5.762,0.13 -8.595,0.38c-2.83,0.254 -5.384,0.562 -7.642,0.941l0,41.179l18.317,0Zm-18.134,57.605c-1.012,0.379 -2.329,0.725 -3.966,1.041c-1.638,0.309 -3.463,0.471 -5.475,0.471c-3.909,0 -6.709,-0.725 -8.409,-2.171c-1.7,-1.45 -2.546,-3.875 -2.546,-7.271l0,-97.462c0,-2.138 0.596,-3.808 1.796,-5.008c1.192,-1.192 2.859,-2.105 5,-2.734c3.904,-1.387 8.563,-2.329 13.979,-2.833c5.413,-0.504 10.83,-0.758 16.242,-0.758c16.367,0 28.55,3.304 36.546,9.916c7.996,6.609 11.996,15.9 11.996,27.859c0,8.312 -2.171,15.391 -6.517,21.25c-4.342,5.858 -10.546,10.233 -18.6,13.125c3.017,3.779 5.975,7.529 8.875,11.237c2.892,3.717 5.633,7.242 8.213,10.575c2.579,3.342 4.912,6.367 6.991,9.071c2.075,2.708 3.746,4.942 5.004,6.704c-0.629,2.9 -2.016,5.1 -4.158,6.613c-2.137,1.508 -4.467,2.262 -6.987,2.262c-3.021,0 -5.409,-0.721 -7.175,-2.171c-1.767,-1.446 -3.53,-3.429 -5.288,-5.95l-24.362,-35.133l-21.159,0l0,41.367Z" style="fill:#3c3b3a;fill-rule:nonzero;"/><path d="M3925.57,813.484c-1.266,3.396 -2.645,7.241 -4.158,11.521c-1.512,4.283 -3.083,8.783 -4.725,13.504c-1.633,4.725 -3.271,9.508 -4.908,14.354c-1.634,4.85 -3.209,9.537 -4.721,14.071l37.208,0c-1.637,-5.034 -3.308,-10.104 -5.004,-15.2c-1.7,-5.104 -3.342,-9.979 -4.912,-14.642c-1.575,-4.654 -3.055,-9.033 -4.442,-13.125c-1.383,-4.092 -2.517,-7.587 -3.396,-10.483l-0.942,0Zm23.038,69.696l-46.083,0l-9.255,28.895c-1.133,0.5 -2.333,0.88 -3.591,1.138c-1.259,0.25 -2.771,0.375 -4.529,0.375c-3.155,0 -5.734,-0.696 -7.746,-2.079c-2.017,-1.384 -3.021,-3.463 -3.021,-6.234c0,-1.383 0.187,-2.733 0.567,-4.058c0.375,-1.321 0.879,-2.8 1.508,-4.437c1.633,-5.288 3.933,-12.121 6.892,-20.496c2.962,-8.371 6.112,-17.217 9.45,-26.538c3.333,-9.316 6.7,-18.475 10.104,-27.479c3.4,-9.004 6.354,-16.712 8.875,-23.137c1.258,-0.755 3.212,-1.48 5.858,-2.171c2.642,-0.696 5.35,-1.042 8.121,-1.042c3.65,0 6.925,0.504 9.821,1.508c2.896,1.017 4.846,2.775 5.854,5.292c2.771,7.179 5.787,15.333 9.067,24.463c3.275,9.129 6.545,18.541 9.82,28.233c3.275,9.7 6.421,19.204 9.442,28.521c3.025,9.321 5.729,17.754 8.125,25.308c-1.133,1.258 -2.617,2.3 -4.442,3.117c-1.825,0.821 -4,1.229 -6.512,1.229c-3.4,0 -5.858,-0.663 -7.371,-1.983c-1.504,-1.321 -2.771,-3.559 -3.775,-6.709l-7.179,-21.716Z" style="fill:#3c3b3a;fill-rule:nonzero;"/><path d="M3997.66,909.057c-2.017,-2.013 -3.025,-4.659 -3.025,-7.934l0,-103.883c1.008,-0.25 2.362,-0.533 4.062,-0.85c1.7,-0.313 3.496,-0.471 5.384,-0.471c3.65,0 6.387,0.696 8.216,2.079c1.821,1.388 2.738,3.842 2.738,7.363l0,89.716l51.183,0c0.629,0.884 1.196,2.017 1.7,3.405c0.5,1.383 0.758,2.958 0.758,4.72c0,2.896 -0.695,5.096 -2.075,6.609c-1.391,1.512 -3.216,2.266 -5.483,2.266l-55.529,0c-3.275,0 -5.921,-1.008 -7.929,-3.02" style="fill:#3c3b3a;fill-rule:nonzero;"/><defs><linearGradient id="_Linear1" x1="0" y1="0" x2="1" y2="0" gradientUnits="userSpaceOnUse" gradientTransform="matrix(169.125,-380.531,380.531,169.125,428.826,481.572)"><stop offset="0" style="stop-color:#4da388;stop-opacity:1"/><stop offset="1" style="stop-color:#92c462;stop-opacity:1"/></linearGradient><linearGradient id="_Linear2" x1="0" y1="0" x2="1" y2="0" gradientUnits="userSpaceOnUse" gradientTransform="matrix(35.2344,-253.687,253.687,35.2344,566.114,771.595)"><stop offset="0" style="stop-color:#4da388;stop-opacity:1"/><stop offset="1" style="stop-color:#92c462;stop-opacity:1"/></linearGradient><linearGradient id="_Linear3" x1="0" y1="0" x2="1" y2="0" gradientUnits="userSpaceOnUse" gradientTransform="matrix(-7.04687,211.406,-211.406,-7.04687,578.89,699.667)"><stop offset="0" style="stop-color:#aad29a;stop-opacity:1"/><stop offset="1" style="stop-color:#4da388;stop-opacity:1"/></linearGradient><linearGradient id="_Linear4" x1="0" y1="0" x2="1" y2="0" gradientUnits="userSpaceOnUse" gradientTransform="matrix(-204.359,239.594,-239.594,-204.359,874.922,305.334)"><stop offset="0" style="stop-color:#aad29a;stop-opacity:1"/><stop offset="1" style="stop-color:#4da388;stop-opacity:1"/></linearGradient><linearGradient id="_Linear5" x1="0" y1="0" x2="1" y2="0" gradientUnits="userSpaceOnUse" gradientTransform="matrix(28.1875,-232.547,232.547,28.1875,474.857,931.046)"><stop offset="0" style="stop-color:#4da388;stop-opacity:1"/><stop offset="1" style="stop-color:#92c462;stop-opacity:1"/></linearGradient><linearGradient id="_Linear6" x1="0" y1="0" x2="1" y2="0" gradientUnits="userSpaceOnUse" gradientTransform="matrix(-21.1406,133.891,-133.891,-21.1406,468.517,881.509)"><stop offset="0" style="stop-color:#aad29a;stop-opacity:1"/><stop offset="1" style="stop-color:#4da388;stop-opacity:1"/></linearGradient><linearGradient id="_Linear7" x1="0" y1="0" x2="1" y2="0" gradientUnits="userSpaceOnUse" gradientTransform="matrix(-35.2344,211.406,-211.406,-35.2344,845.795,872.236)"><stop offset="0" style="stop-color:#14b4b7;stop-opacity:1"/><stop offset="1" style="stop-color:#41789e;stop-opacity:1"/></linearGradient><linearGradient id="_Linear8" x1="0" y1="0" x2="1" y2="0" gradientUnits="userSpaceOnUse" gradientTransform="matrix(273.203,0,0,273.203,275.282,993.974)"><stop offset="0" style="stop-color:#4da388;stop-opacity:1"/><stop offset="1" style="stop-color:#92c462;stop-opacity:1"/></linearGradient></defs></svg>