<?xml version="1.0" encoding="UTF-8" standalone="no"?><!DOCTYPE svg PUBLIC "-//W3C//DTD SVG 1.1//EN" "http://www.w3.org/Graphics/SVG/1.1/DTD/svg11.dtd"><svg width="100%" height="100%" viewBox="0 0 2437 1466" version="1.1" xmlns="http://www.w3.org/2000/svg" xmlns:xlink="http://www.w3.org/1999/xlink" xml:space="preserve" xmlns:serif="http://www.serif.com/" style="fill-rule:evenodd;clip-rule:evenodd;stroke-linecap:round;stroke-linejoin:round;stroke-miterlimit:1.5;"><g><g><rect x="1022.91" y="2.083" width="33.508" height="677.448" style="fill:#3b3b3b;stroke:#000;stroke-opacity:0;stroke-width:4.17px;"/><path d="M1143.01,237.656c1.465,-3.744 -0.385,-7.973 -4.129,-9.439l-200.969,-78.66c-3.744,-1.465 -7.973,0.384 -9.438,4.128l-5.31,13.567c-1.466,3.744 0.384,7.973 4.128,9.438l200.969,78.661c3.744,1.465 7.973,-0.385 9.438,-4.129l5.311,-13.566Z" style="fill:#3b3b3b;stroke:#000;stroke-opacity:0;stroke-width:4.17px;"/></g><path d="M1065.16,720.527l-154.429,-29.137l0,256.41l154.429,20.396l0,-247.669Z" style="fill:#3b3b3b;stroke:#000;stroke-opacity:0;stroke-width:4.17px;"/><path d="M934.042,602.316l-467.657,-112.179c59.635,134.352 108.42,154.675 74.301,402.098l393.356,59.732l0,-349.651Zm-101.358,17.888c2.017,-11.784 -5.913,-22.988 -17.697,-25.005l-42.701,-7.309c-11.783,-2.017 -22.988,5.912 -25.005,17.696l-17.824,104.135c-2.017,11.783 5.913,22.988 17.696,25.005l42.702,7.308c11.783,2.017 22.988,-5.912 25.005,-17.696l17.824,-104.134Zm-109.47,-20.601c2.017,-11.783 -5.912,-22.988 -17.696,-25.005l-42.701,-7.309c-11.784,-2.016 -22.988,5.913 -25.005,17.697l-17.824,104.134c-2.017,11.784 5.912,22.988 17.696,25.005l42.701,7.309c11.784,2.017 22.988,-5.912 25.005,-17.696l17.824,-104.135Zm-130.413,92.289c-0.878,4.442 -4.406,7.798 -8.634,8.215c-4.229,0.416 -8.127,-2.208 -9.544,-6.425c-12.941,-38.527 -33.809,-100.655 -44.539,-132.599c-1.39,-4.138 -0.553,-8.813 2.187,-12.223c2.74,-3.411 6.957,-5.025 11.025,-4.22c18.247,3.609 44.743,8.849 61.054,12.075c3.876,0.766 7.267,3.151 9.426,6.63c2.16,3.479 2.912,7.767 2.09,11.921c-5.234,26.467 -15.953,80.668 -23.065,116.626Z" style="fill:#3b3b3b;stroke:#000;stroke-opacity:0;stroke-width:4.17px;"/><path d="M2111.2,769.857l-179.196,67.017l0,131.118l179.196,-30.594l0,-167.541Z" style="fill:#3b3b3b;stroke:#000;stroke-opacity:0;stroke-width:4.17px;"/></g><rect x="1993.19" y="695.557" width="29.138" height="77.214" style="fill:#3b3b3b;"/><path d="M2436.08,882.037c-770.416,248.402 -1571.81,86.877 -2338.29,-34.965l234.558,477.855c745.913,102.415 1314.93,100.183 1988.64,-49.534l115.093,-393.356Z" style="fill:#3b3b3b;"/><path d="M981.047,569.062c0.863,-3.721 -1.457,-7.442 -5.178,-8.305l-580.272,-134.563c-3.721,-0.863 -7.442,1.457 -8.305,5.178l-3.126,13.482c-0.863,3.721 1.457,7.442 5.178,8.305l580.272,134.563c3.721,0.863 7.442,-1.457 8.305,-5.178l3.126,-13.482Z" style="fill:#3b3b3b;"/><path d="M1118.73,690.393c0.663,-3.761 -1.853,-7.353 -5.615,-8.015l-159.979,-28.176c-3.762,-0.663 -7.353,1.853 -8.016,5.615l-2.401,13.63c-0.662,3.762 1.854,7.353 5.615,8.016l159.98,28.176c3.761,0.662 7.353,-1.854 8.015,-5.615l2.401,-13.631Z" style="fill:#3b3b3b;"/><g><path d="M43.228,767.859c-2.765,-5.808 -9.725,-8.28 -15.533,-5.515l-21.048,10.018c-5.808,2.764 -8.279,9.724 -5.515,15.532l274.536,576.812c2.764,5.809 9.724,8.28 15.532,5.515l21.048,-10.017c5.808,-2.765 8.28,-9.725 5.515,-15.533l-274.535,-576.812Z" style="fill:#3b3b3b;"/><path d="M2338.47,1337.38c-4.129,-14.534 -4.129,-32.436 -9.216,-32.436c-661.246,118.219 -1338.75,154.142 -2042.86,20.431c-0.298,-0.058 -0.602,-0.078 -0.904,-0.059c-4.75,0.536 -8.499,5.733 -8.499,12.064l0,24.081c0,6.645 4.13,12.04 9.216,12.04c685.124,139.516 1365.65,108.456 2043.05,-12.04c7.521,-29.476 9.216,-17.436 9.216,-24.081Z" style="fill:#3b3b3b;"/></g><path d="M2128.26,729.5c-0.96,-2.634 -3.879,-3.992 -6.513,-3.031l-195.784,71.417c-2.634,0.96 -3.992,3.879 -3.032,6.513l3.482,9.545c0.961,2.634 3.88,3.992 6.514,3.031l195.784,-71.416c2.634,-0.961 3.992,-3.88 3.031,-6.514l-3.482,-9.545Z" style="fill:#3b3b3b;"/><path d="M2051.86,663.836l8.575,51.742l-63.947,-2.693l-4.287,-25.871l59.659,-23.178Z" style="fill:#3b3b3b;"/></svg>