<?xml version="1.0" encoding="UTF-8" standalone="no"?><!DOCTYPE svg PUBLIC "-//W3C//DTD SVG 1.1//EN" "http://www.w3.org/Graphics/SVG/1.1/DTD/svg11.dtd"><svg width="100%" height="100%" viewBox="0 0 2437 1464" version="1.1" xmlns="http://www.w3.org/2000/svg" xmlns:xlink="http://www.w3.org/1999/xlink" xml:space="preserve" xmlns:serif="http://www.serif.com/" style="fill-rule:evenodd;clip-rule:evenodd;stroke-linejoin:round;stroke-miterlimit:2;"><rect x="1022.91" y="0" width="33.508" height="677.448" style="fill:#f8f8f8;"/><rect x="1993.19" y="693.473" width="29.138" height="77.214" style="fill:#696969;"/><path d="M2436.08,879.953c-770.416,248.403 -1571.81,86.878 -2338.29,-34.965l234.558,477.856c745.913,102.415 1314.93,100.183 1988.64,-49.534l115.093,-393.357Z" style="fill:#ffb800;"/><path d="M1065.16,718.444l-154.429,-29.137l0,256.41l154.429,20.396l0,-247.669Z" style="fill:#f5f5f5;"/><path d="M981.047,566.978c0.863,-3.72 -1.457,-7.441 -5.178,-8.304l-580.272,-134.563c-3.721,-0.863 -7.442,1.457 -8.305,5.178l-3.126,13.482c-0.863,3.721 1.457,7.442 5.178,8.305l580.272,134.563c3.721,0.863 7.442,-1.457 8.305,-5.178l3.126,-13.483Z"/><path d="M1118.73,688.31c0.663,-3.762 -1.853,-7.353 -5.615,-8.016l-159.979,-28.176c-3.762,-0.662 -7.353,1.854 -8.016,5.615l-2.401,13.631c-0.662,3.761 1.854,7.353 5.615,8.015l159.98,28.176c3.761,0.663 7.353,-1.853 8.015,-5.615l2.401,-13.63Z"/><path d="M2111.2,767.774l-179.196,67.016l0,131.119l179.196,-30.594l0,-167.541Z" style="fill:#f5f5f5;"/><path d="M43.228,765.776c-2.765,-5.809 -9.725,-8.28 -15.533,-5.515l-21.048,10.017c-5.808,2.765 -8.279,9.725 -5.515,15.533l274.536,576.812c2.764,5.808 9.724,8.279 15.532,5.515l21.048,-10.018c5.808,-2.764 8.28,-9.724 5.515,-15.532l-274.535,-576.812Z" style="fill:#af5233;"/><path d="M2128.26,727.417c-0.96,-2.634 -3.879,-3.993 -6.513,-3.032l-195.784,71.417c-2.634,0.961 -3.992,3.88 -3.032,6.514l3.482,9.545c0.961,2.634 3.88,3.992 6.514,3.031l195.784,-71.417c2.634,-0.961 3.992,-3.879 3.031,-6.513l-3.482,-9.545Z"/><path d="M2051.86,661.753l8.575,51.741l-63.947,-2.693l-4.287,-25.87l59.659,-23.178Z" style="fill:#696969;"/><path d="M1143.01,235.572c1.465,-3.743 -0.385,-7.973 -4.129,-9.438l-200.969,-78.66c-3.744,-1.466 -7.973,0.384 -9.438,4.128l-5.31,13.566c-1.466,3.744 0.384,7.973 4.128,9.439l200.969,78.66c3.744,1.466 7.973,-0.384 9.438,-4.128l5.311,-13.567Z" style="fill:#f8f8f8;"/><path d="M2338.47,1335.29c-4.129,-14.534 -4.129,-32.437 -9.216,-32.437c-661.246,118.22 -1338.75,154.143 -2042.86,20.432c-0.298,-0.059 -0.602,-0.078 -0.904,-0.059c-4.75,0.536 -8.499,5.733 -8.499,12.064l0,24.08c0,6.646 4.13,12.041 9.216,12.041c685.124,139.515 1365.65,108.456 2043.05,-12.041c7.521,-29.475 9.216,-17.435 9.216,-24.08Z" style="fill:#af5233;"/><path d="M934.042,600.233l-467.657,-112.179c59.635,134.352 108.42,154.675 74.301,402.097l393.356,59.732l0,-349.65Zm-101.358,17.887c2.017,-11.783 -5.913,-22.988 -17.697,-25.005l-42.701,-7.309c-11.783,-2.017 -22.988,5.913 -25.005,17.696l-17.824,104.135c-2.017,11.784 5.913,22.988 17.696,25.005l42.702,7.309c11.783,2.017 22.988,-5.912 25.005,-17.696l17.824,-104.135Zm-109.47,-20.6c2.017,-11.784 -5.912,-22.988 -17.696,-25.005l-42.701,-7.309c-11.784,-2.017 -22.988,5.913 -25.005,17.696l-17.824,104.135c-2.017,11.784 5.912,22.988 17.696,25.005l42.701,7.309c11.784,2.017 22.988,-5.912 25.005,-17.696l17.824,-104.135Zm-130.413,92.288c-0.878,4.443 -4.406,7.799 -8.634,8.216c-4.229,0.416 -8.127,-2.209 -9.544,-6.425c-12.941,-38.528 -33.809,-100.656 -44.539,-132.6c-1.39,-4.137 -0.553,-8.812 2.187,-12.223c2.74,-3.41 6.957,-5.024 11.025,-4.219c18.247,3.608 44.743,8.848 61.054,12.074c3.876,0.767 7.267,3.152 9.426,6.631c2.16,3.479 2.912,7.767 2.09,11.92c-5.234,26.467 -15.953,80.669 -23.065,116.626Z" style="fill:#f5f5f5;"/></svg>