<?xml version="1.0" encoding="UTF-8" standalone="no"?><!DOCTYPE svg PUBLIC "-//W3C//DTD SVG 1.1//EN" "http://www.w3.org/Graphics/SVG/1.1/DTD/svg11.dtd"><svg width="100%" height="100%" viewBox="0 0 2437 1466" version="1.1" xmlns="http://www.w3.org/2000/svg" xmlns:xlink="http://www.w3.org/1999/xlink" xml:space="preserve" xmlns:serif="http://www.serif.com/" style="fill-rule:evenodd;clip-rule:evenodd;stroke-linecap:round;stroke-linejoin:round;stroke-miterlimit:1.5;"><g><g><rect x="1022.91" y="2.083" width="33.508" height="677.448" style="fill:#6b6b6b;stroke:#000;stroke-opacity:0;stroke-width:4.17px;"/><path d="M1143.01,237.656c1.465,-3.744 -0.385,-7.973 -4.129,-9.439l-200.969,-78.66c-3.744,-1.465 -7.973,0.384 -9.438,4.128l-5.31,13.567c-1.466,3.744 0.384,7.973 4.128,9.438l200.969,78.661c3.744,1.465 7.973,-0.385 9.438,-4.129l5.311,-13.566Z" style="fill:#6b6b6b;stroke:#000;stroke-opacity:0;stroke-width:4.17px;"/></g><path d="M1065.16,720.527l-154.429,-29.137l0,256.41l154.429,20.396l0,-247.669Z" style="fill:#6b6b6b;stroke:#000;stroke-opacity:0;stroke-width:4.17px;"/><path d="M934.042,602.316l-467.657,-112.179c59.635,134.352 108.42,154.675 74.301,402.098l393.356,59.732l0,-349.651Zm-101.358,17.888c2.017,-11.784 -5.913,-22.988 -17.697,-25.005l-42.701,-7.309c-11.783,-2.017 -22.988,5.912 -25.005,17.696l-17.824,104.135c-2.017,11.783 5.913,22.988 17.696,25.005l42.702,7.308c11.783,2.017 22.988,-5.912 25.005,-17.696l17.824,-104.134Zm-109.47,-20.601c2.017,-11.783 -5.912,-22.988 -17.696,-25.005l-42.701,-7.309c-11.784,-2.016 -22.988,5.913 -25.005,17.697l-17.824,104.134c-2.017,11.784 5.912,22.988 17.696,25.005l42.701,7.309c11.784,2.017 22.988,-5.912 25.005,-17.696l17.824,-104.135Zm-130.413,92.289c-0.878,4.442 -4.406,7.798 -8.634,8.215c-4.229,0.416 -8.127,-2.208 -9.544,-6.425c-12.941,-38.527 -33.809,-100.655 -44.539,-132.599c-1.39,-4.138 -0.553,-8.813 2.187,-12.223c2.74,-3.411 6.957,-5.025 11.025,-4.22c18.247,3.609 44.743,8.849 61.054,12.075c3.876,0.766 7.267,3.151 9.426,6.63c2.16,3.479 2.912,7.767 2.09,11.921c-5.234,26.467 -15.953,80.668 -23.065,116.626Z" style="fill:#6b6b6b;stroke:#000;stroke-opacity:0;stroke-width:4.17px;"/><path d="M2111.2,769.857l-179.196,67.017l0,131.118l179.196,-30.594l0,-167.541Z" style="fill:#6b6b6b;stroke:#000;stroke-opacity:0;stroke-width:4.17px;"/></g><rect x="1993.19" y="695.557" width="29.138" height="77.214" style="fill:#696969;"/><path d="M2436.08,882.037c-770.416,248.402 -1571.81,86.877 -2338.29,-34.965l234.558,477.855c745.913,102.415 1314.93,100.183 1988.64,-49.534l115.093,-393.356Z" style="fill:#ffb800;"/><path d="M981.047,569.062c0.863,-3.721 -1.457,-7.442 -5.178,-8.305l-580.272,-134.563c-3.721,-0.863 -7.442,1.457 -8.305,5.178l-3.126,13.482c-0.863,3.721 1.457,7.442 5.178,8.305l580.272,134.563c3.721,0.863 7.442,-1.457 8.305,-5.178l3.126,-13.482Z"/><path d="M1118.73,690.393c0.663,-3.761 -1.853,-7.353 -5.615,-8.015l-159.979,-28.176c-3.762,-0.663 -7.353,1.853 -8.016,5.615l-2.401,13.63c-0.662,3.762 1.854,7.353 5.615,8.016l159.98,28.176c3.761,0.662 7.353,-1.854 8.015,-5.615l2.401,-13.631Z"/><path d="M43.228,767.859c-2.765,-5.808 -9.725,-8.28 -15.533,-5.515l-21.048,10.018c-5.808,2.764 -8.279,9.724 -5.515,15.532l274.536,576.812c2.764,5.809 9.724,8.28 15.532,5.515l21.048,-10.017c5.808,-2.765 8.28,-9.725 5.515,-15.533l-274.535,-576.812Z" style="fill:#af5233;"/><path d="M2128.26,729.5c-0.96,-2.634 -3.879,-3.992 -6.513,-3.031l-195.784,71.417c-2.634,0.96 -3.992,3.879 -3.032,6.513l3.482,9.545c0.961,2.634 3.88,3.992 6.514,3.031l195.784,-71.416c2.634,-0.961 3.992,-3.88 3.031,-6.514l-3.482,-9.545Z"/><path d="M2051.86,663.836l8.575,51.742l-63.947,-2.693l-4.287,-25.871l59.659,-23.178Z" style="fill:#696969;"/><path d="M2338.47,1337.38c-4.129,-14.534 -4.129,-32.436 -9.216,-32.436c-661.246,118.219 -1338.75,154.142 -2042.86,20.431c-0.298,-0.058 -0.602,-0.078 -0.904,-0.059c-4.75,0.536 -8.499,5.733 -8.499,12.064l0,24.081c0,6.645 4.13,12.04 9.216,12.04c685.124,139.516 1365.65,108.456 2043.05,-12.04c7.521,-29.476 9.216,-17.436 9.216,-24.081Z" style="fill:#af5233;"/><g transform="matrix(4.16666,-0.00784772,0.00784772,4.16666,-1160.45,713.547)"><g transform="matrix(0.952508,0.304513,-0.304513,0.952508,36.8952,-97.6272)"><g transform="matrix(27.1921,0,0,27.1921,331.436,69.4709)"><path d="M0.531,-0.263l0.14,0.044c-0.022,0.078 -0.057,0.136 -0.107,0.174c-0.05,0.038 -0.114,0.057 -0.19,0.057c-0.096,0 -0.174,-0.032 -0.235,-0.097c-0.061,-0.065 -0.092,-0.154 -0.092,-0.267c0,-0.119 0.031,-0.211 0.093,-0.277c0.061,-0.066 0.142,-0.099 0.242,-0.099c0.088,0 0.159,0.026 0.214,0.078c0.032,0.03 0.057,0.074 0.073,0.131l-0.143,0.035c-0.009,-0.037 -0.026,-0.067 -0.053,-0.088c-0.027,-0.022 -0.06,-0.032 -0.098,-0.032c-0.053,0 -0.096,0.019 -0.129,0.057c-0.033,0.038 -0.05,0.099 -0.05,0.185c0,0.09 0.017,0.155 0.049,0.193c0.033,0.038 0.075,0.058 0.127,0.058c0.038,0 0.072,-0.013 0.099,-0.037c0.028,-0.024 0.048,-0.063 0.06,-0.115Z" style="fill-rule:nonzero;"/></g></g><g transform="matrix(0.966206,0.257773,-0.257773,0.966206,31.2814,-87.6983)"><g transform="matrix(27.1921,0,0,27.1921,350.107,75.4527)"><path d="M0.043,-0.354c0,-0.072 0.011,-0.134 0.033,-0.183c0.016,-0.037 0.039,-0.069 0.067,-0.098c0.028,-0.029 0.059,-0.051 0.092,-0.065c0.045,-0.019 0.096,-0.028 0.155,-0.028c0.105,0 0.19,0.033 0.253,0.098c0.063,0.066 0.095,0.157 0.095,0.273c0,0.116 -0.032,0.206 -0.094,0.271c-0.063,0.066 -0.147,0.098 -0.252,0.098c-0.107,0 -0.191,-0.032 -0.254,-0.097c-0.063,-0.065 -0.095,-0.155 -0.095,-0.269Zm0.149,-0.004c0,0.081 0.019,0.142 0.057,0.184c0.037,0.042 0.084,0.063 0.142,0.063c0.058,0 0.105,-0.021 0.142,-0.063c0.037,-0.041 0.055,-0.103 0.055,-0.186c0,-0.082 -0.018,-0.144 -0.054,-0.184c-0.036,-0.04 -0.083,-0.06 -0.143,-0.06c-0.059,0 -0.107,0.02 -0.144,0.061c-0.036,0.041 -0.055,0.102 -0.055,0.185Zm0.11,-0.399l0.067,-0.146l0.154,0l-0.134,0.146l-0.087,0Z" style="fill-rule:nonzero;"/></g></g><g transform="matrix(0.976814,0.214091,-0.214091,0.976814,25.9107,-77.4597)"><g transform="matrix(27.1921,0,0,27.1921,370.567,80.8935)"><path d="M0.072,-0.716l0.264,0c0.06,0 0.105,0.005 0.137,0.014c0.042,0.012 0.078,0.034 0.108,0.066c0.03,0.031 0.052,0.07 0.068,0.116c0.016,0.045 0.023,0.102 0.023,0.169c0,0.059 -0.007,0.11 -0.022,0.152c-0.018,0.052 -0.043,0.095 -0.076,0.127c-0.025,0.024 -0.059,0.043 -0.102,0.057c-0.032,0.01 -0.074,0.015 -0.128,0.015l-0.272,0l0,-0.716Zm0.145,0.121l0,0.474l0.108,0c0.04,0 0.069,-0.002 0.087,-0.006c0.024,-0.006 0.043,-0.016 0.058,-0.03c0.016,-0.014 0.029,-0.037 0.038,-0.069c0.01,-0.032 0.015,-0.076 0.015,-0.131c0,-0.056 -0.005,-0.098 -0.015,-0.128c-0.009,-0.029 -0.023,-0.053 -0.041,-0.069c-0.017,-0.017 -0.04,-0.028 -0.067,-0.034c-0.02,-0.004 -0.059,-0.007 -0.118,-0.007l-0.065,0Z" style="fill-rule:nonzero;"/></g></g><g transform="matrix(0.982166,0.188015,-0.188015,0.982166,22.9361,-71.7648)"><g transform="matrix(27.1921,0,0,27.1921,389.761,85.0206)"><rect x="0.068" y="-0.716" width="0.145" height="0.716" style="fill-rule:nonzero;"/></g></g><g transform="matrix(0.986743,0.162292,-0.162292,0.986743,19.3069,-63.3073)"><g transform="matrix(27.1921,0,0,27.1921,397.15,86.5214)"><path d="M0.406,-0.263l0,-0.121l0.311,0l0,0.285c-0.03,0.03 -0.074,0.055 -0.131,0.078c-0.058,0.022 -0.116,0.033 -0.175,0.033c-0.075,0 -0.14,-0.015 -0.196,-0.047c-0.055,-0.031 -0.097,-0.076 -0.125,-0.135c-0.028,-0.058 -0.042,-0.122 -0.042,-0.19c0,-0.075 0.015,-0.141 0.047,-0.199c0.031,-0.058 0.077,-0.102 0.137,-0.133c0.046,-0.024 0.103,-0.036 0.171,-0.036c0.089,0 0.159,0.019 0.209,0.056c0.05,0.037 0.082,0.089 0.096,0.154l-0.144,0.027c-0.01,-0.035 -0.029,-0.063 -0.056,-0.083c-0.028,-0.02 -0.063,-0.03 -0.105,-0.03c-0.063,0 -0.113,0.02 -0.15,0.06c-0.038,0.04 -0.056,0.099 -0.056,0.178c0,0.085 0.019,0.148 0.056,0.191c0.038,0.042 0.088,0.064 0.149,0.064c0.03,0 0.06,-0.006 0.091,-0.018c0.03,-0.012 0.056,-0.026 0.078,-0.043l0,-0.091l-0.165,0Z" style="fill-rule:nonzero;"/></g></g><g transform="matrix(0.991893,0.127077,-0.127077,0.991893,14.8194,-52.3952)"><g transform="matrix(27.1921,0,0,27.1921,418.047,89.9472)"><path d="M0.043,-0.354c0,-0.072 0.011,-0.134 0.033,-0.183c0.016,-0.037 0.039,-0.069 0.067,-0.098c0.028,-0.029 0.059,-0.051 0.092,-0.065c0.045,-0.019 0.096,-0.028 0.155,-0.028c0.105,0 0.19,0.033 0.253,0.098c0.063,0.066 0.095,0.157 0.095,0.273c0,0.116 -0.032,0.206 -0.094,0.271c-0.063,0.066 -0.147,0.098 -0.252,0.098c-0.107,0 -0.191,-0.032 -0.254,-0.097c-0.063,-0.065 -0.095,-0.155 -0.095,-0.269Zm0.149,-0.004c0,0.081 0.019,0.142 0.057,0.184c0.037,0.042 0.084,0.063 0.142,0.063c0.058,0 0.105,-0.021 0.142,-0.063c0.037,-0.041 0.055,-0.103 0.055,-0.186c0,-0.082 -0.018,-0.144 -0.054,-0.184c-0.036,-0.04 -0.083,-0.06 -0.143,-0.06c-0.059,0 -0.107,0.02 -0.144,0.061c-0.036,0.041 -0.055,0.102 -0.055,0.185Z" style="fill-rule:nonzero;"/></g></g><g transform="matrix(0.996292,0.0860373,-0.0860373,0.996292,9.69461,-38.0717)"><g transform="matrix(27.1921,0,0,27.1921,446.529,93.4344)"><path d="M0.071,0l0,-0.716l0.216,0l0.13,0.488l0.128,-0.488l0.217,0l0,0.716l-0.134,0l0,-0.563l-0.142,0.563l-0.139,0l-0.142,-0.563l0,0.563l-0.134,0Z" style="fill-rule:nonzero;"/></g></g><g transform="matrix(0.996319,0.0857279,-0.0857279,0.996319,9.90089,-39.864)"><g transform="matrix(27.1921,0,0,27.1921,469.101,95.3474)"><rect x="0.068" y="-0.716" width="0.145" height="0.716" style="fill-rule:nonzero;"/></g></g><g transform="matrix(0.996589,0.0825198,-0.0825198,0.996589,9.54899,-39.0059)"><g transform="matrix(27.1921,0,0,27.1921,476.654,96.0173)"><path d="M0.074,0l0,-0.716l0.141,0l0.293,0.478l0,-0.478l0.134,0l0,0.716l-0.145,0l-0.289,-0.467l0,0.467l-0.134,0Z" style="fill-rule:nonzero;"/></g></g><g transform="matrix(0.998013,0.0630051,-0.0630051,0.998013,7.13946,-31.0691)"><g transform="matrix(27.1921,0,0,27.1921,496.201,97.6684)"><path d="M0.406,-0.263l0,-0.121l0.311,0l0,0.285c-0.03,0.03 -0.074,0.055 -0.131,0.078c-0.058,0.022 -0.116,0.033 -0.175,0.033c-0.075,0 -0.14,-0.015 -0.196,-0.047c-0.055,-0.031 -0.097,-0.076 -0.125,-0.135c-0.028,-0.058 -0.042,-0.122 -0.042,-0.19c0,-0.075 0.015,-0.141 0.047,-0.199c0.031,-0.058 0.077,-0.102 0.137,-0.133c0.046,-0.024 0.103,-0.036 0.171,-0.036c0.089,0 0.159,0.019 0.209,0.056c0.05,0.037 0.082,0.089 0.096,0.154l-0.144,0.027c-0.01,-0.035 -0.029,-0.063 -0.056,-0.083c-0.028,-0.02 -0.063,-0.03 -0.105,-0.03c-0.063,0 -0.113,0.02 -0.15,0.06c-0.038,0.04 -0.056,0.099 -0.056,0.178c0,0.085 0.019,0.148 0.056,0.191c0.038,0.042 0.088,0.064 0.149,0.064c0.03,0 0.06,-0.006 0.091,-0.018c0.03,-0.012 0.056,-0.026 0.078,-0.043l0,-0.091l-0.165,0Z" style="fill-rule:nonzero;"/></g></g><g transform="matrix(0.99967,0.0257046,-0.0257046,0.99967,2.71612,-13.2648)"><g transform="matrix(27.1921,0,0,27.1921,517.322,99.017)"><path d="M0.718,0l-0.157,0l-0.062,-0.163l-0.287,0l-0.059,0.163l-0.153,0l0.279,-0.716l0.153,0l0.286,0.716Zm-0.266,-0.283l-0.098,-0.266l-0.097,0.266l0.195,0Z" style="fill-rule:nonzero;"/></g></g></g></svg>