<svg xmlns="http://www.w3.org/2000/svg" viewBox="0 0 64 64" x="0px" y="0px"><title>Class</title><g><path fill="#F69E4D" d="M36.34,40.14h0a.83.83,0,0,1,.22,0h.11l.28.08.08,0a4.79,4.79,0,0,1,.62.22l.31.13.09,0,.3.16.27.15h2.79c.22-.13.45-.25.68-.36a7,7,0,0,1,.8-.31l.26-.08.53-.12A5.72,5.72,0,0,1,42.35,38h-4.7A5.81,5.81,0,0,1,36.34,40.14Z"/><path fill="#F69E4D" d="M28,34v2a4.17,4.17,0,0,0,.08.8,4,4,0,0,0,7.84,0A4.17,4.17,0,0,0,36,36V34a4,4,0,0,0-8,0Z"/><path fill="#F69E4D" d="M44,34v2a4.17,4.17,0,0,0,.08.8A4,4,0,0,0,52,36V34a4,4,0,0,0-8,0Z"/><path fill="#F69E4D" d="M12,36a4,4,0,0,0,7.92.8A4.17,4.17,0,0,0,20,36V34a4,4,0,0,0-8,0Z"/><path fill="#F69E4D" d="M20.34,40.13a7,7,0,0,1,2.27.87h2.78a7,7,0,0,1,2.27-.87A5.72,5.72,0,0,1,26.35,38h-4.7A5.72,5.72,0,0,1,20.34,40.13Z"/><path fill="#F69E4D" d="M52,12H12V29.54A5.93,5.93,0,0,1,16,28a6,6,0,0,1,6,6v2h4V34a6,6,0,0,1,12,0v2h4V34a6,6,0,0,1,6-6,5.93,5.93,0,0,1,4,1.54Z"/><path fill="#F69E4D" d="M55,7H9A2,2,0,0,0,7,9V39a2,2,0,0,0,2,2h.4a6.89,6.89,0,0,1,2.26-.87,5.85,5.85,0,0,1-1.45-2.55v0A6.12,6.12,0,0,1,10,36V11a1,1,0,0,1,1-1H53a1,1,0,0,1,1,1V36a5.84,5.84,0,0,1-.23,1.63h0a5.76,5.76,0,0,1-1.43,2.49c.13,0,.26,0,.38.09l.27.07.36.12.25.1a2,2,0,0,1,.31.13,1.15,1.15,0,0,1,.25.12l.39.21.05,0H55a2,2,0,0,0,2-2V9A2,2,0,0,0,55,7Z"/><path fill="#F69E4D" d="M19,42H13a5,5,0,0,0-5,5v9h2V47a1,1,0,0,1,2,0v9h8V47a1,1,0,0,1,2,0v9h2V47a4.92,4.92,0,0,0-.83-2.75A5,5,0,0,0,19,42Z"/><path fill="#F69E4D" d="M40,46.36a.36.36,0,0,1,0-.11l0-.16a.43.43,0,0,0,0-.12.43.43,0,0,1,0-.11l-.09-.36a3.73,3.73,0,0,0-.15-.38.92.92,0,0,1-.07-.54l-.11-.06a1,1,0,0,1-.31-.34l0,.06,0-.05a4.23,4.23,0,0,0-.32-.42,3.59,3.59,0,0,0-.38-.4l-.11-.09A2.6,2.6,0,0,0,38,43a.27.27,0,0,1-.08-.07c-.16-.11-.32-.2-.48-.29l-.24-.13-.08,0-.2-.08a3.1,3.1,0,0,0-.47-.17h0l-.23-.06-.09,0a4.2,4.2,0,0,0-.53-.09H29a5,5,0,0,0-3.8,1.75,7.43,7.43,0,0,1,.35.76c.05.15.11.31.15.46a4.6,4.6,0,0,1,.13.5c0,.13.06.26.08.4l0,.23c0,.12,0,.25,0,.38s0,.35,0,.52v9H36V47a1,1,0,0,1,2,0v9h2V47c0-.14,0-.28,0-.42S40,46.44,40,46.36Z"/><path fill="#F69E4D" d="M51,42H45a3.43,3.43,0,0,0-.56,0h0l-.54.09-.25.07a2.53,2.53,0,0,0-.36.12l-.12,0h0a2.64,2.64,0,0,0-.38.18l0,0-.09,0a4.66,4.66,0,0,0-.47.3,3.48,3.48,0,0,0-.48.38,4.47,4.47,0,0,0-.43.44h0a.6.6,0,0,0-.09.13.91.91,0,0,1,.35.4l0,.05a4.08,4.08,0,0,1,.21.56.83.83,0,0,1,0,.15,2,2,0,0,1,.1.4,2.33,2.33,0,0,1,.08.36,2.7,2.7,0,0,1,0,.28l0,.3c0,.25,0,.43,0,.61v9H52V47a1,1,0,0,1,2,0v9h2V47A5,5,0,0,0,51,42Z"/></g></svg>