<?xml version="1.0" encoding="utf-8"?>
<!-- Generator: Adobe Illustrator 23.0.2, SVG Export Plug-In . SVG Version: 6.00 Build 0)  -->
<svg version="1.1" xmlns="http://www.w3.org/2000/svg" xmlns:xlink="http://www.w3.org/1999/xlink" x="0px" y="0px"
	 viewBox="0 0 525.06 272.84" style="enable-background:new 0 0 525.06 272.84;" xml:space="preserve">
<style type="text/css">
	.st0{display:none;}
	.st1{fill:#E7EDF4;}
	.st2{fill:#FFFFFF;}
	.st3{fill:#D3DBE9;}
	.st4{fill:url(#SVGID_1_);}
	.st5{fill:#8F9CAF;}
	.st6{fill:#545B67;}
	.st7{fill:url(#SVGID_2_);}
	.st8{fill:url(#SVGID_3_);}
	.st9{fill:url(#SVGID_4_);}
	.st10{fill:url(#SVGID_5_);}
	.st11{fill:#F3BB81;}
	.st12{fill:url(#SVGID_6_);}
	.st13{fill:url(#SVGID_7_);}
	.st14{fill:url(#SVGID_8_);}
	.st15{fill:#F69377;}
	.st16{fill:#9E9D9D;}
	.st17{fill:#3A4049;}
	.st18{fill:#ADBDDC;}
	.st19{fill:#E8E8E7;}
	.st20{fill:#F8A087;}
	.st21{fill:#E31F2F;}
	.st22{fill:#25292E;}
	.st23{fill:#C99A6A;}
	.st24{fill:#C19466;}
	.st25{fill:#4677BC;}
	.st26{fill:#F7AD48;}
	.st27{fill:#194A66;}
	.st28{fill:#143F57;}
	.st29{fill:#3D68A4;}
	.st30{fill:none;stroke:#386096;stroke-linecap:round;stroke-linejoin:round;stroke-miterlimit:10;}
	.st31{fill:none;stroke:#000000;stroke-miterlimit:10;}
	.st32{fill:url(#SVGID_9_);}
	.st33{fill:url(#SVGID_10_);}
	.st34{fill:url(#SVGID_11_);}
	.st35{fill:url(#SVGID_12_);}
	.st36{fill:url(#SVGID_13_);}
	.st37{fill:url(#SVGID_14_);}
	.st38{fill:#FCD2C7;}
	.st39{fill:url(#SVGID_15_);}
	.st40{fill:url(#SVGID_16_);}
	.st41{fill:url(#SVGID_17_);}
	.st42{fill:url(#SVGID_18_);}
	.st43{fill:none;stroke:#F3BB81;stroke-width:0.75;stroke-linecap:round;stroke-linejoin:round;stroke-miterlimit:10;}
	.st44{fill:#80A13E;}
	.st45{fill:#AB845A;}
	.st46{fill:#F2BB80;}
	.st47{fill:#9EC53B;}
	.st48{fill:#3B4048;}
	.st49{fill:none;stroke:#000000;stroke-width:2;stroke-miterlimit:10;}
	.st50{fill:#B82027;}
</style>
<g id="Layer_12" class="st0">
</g>
<g id="Layer_9">
</g>
<g id="Layer_8">
</g>
<g id="Layer_2">
</g>
<g id="Layer_7">
</g>
<g id="Layer_3">
</g>
<g id="Layer_4">
</g>
<g id="Layer_5">
</g>
<g id="Layer_6">
	<g>
		<ellipse class="st1" cx="262.53" cy="195.98" rx="262.53" ry="76.86"/>
		<g>
			<g>
				<path class="st2" d="M426.17,57.07c-2.96-0.64-5.9-0.74-8.73-0.35c-1.29-5.23-5.44-9.55-11.06-10.77
					c-0.45-0.1-0.89-0.17-1.34-0.22c0.43-1.15,0.79-2.34,1.05-3.57c2.96-13.67-5.72-27.14-19.39-30.1
					c-11.08-2.4-22.04,2.86-27.36,12.22c-3-3.93-7.36-6.86-12.57-7.99c-10.99-2.38-21.83,4.09-25.12,14.62
					c-5.11-0.23-9.83,2.78-11.79,7.49c-2.8-2.73-6.38-4.7-10.49-5.59c-11.64-2.52-23.16,39.12-25.65,50.63l171.3,3.07
					C447.87,73.35,439.48,59.95,426.17,57.07z"/>
			</g>
			<g>
				<g>
					<path class="st3" d="M411.58,50.67c-0.27,1.23-0.62,2.43-1.05,3.57c0.44,0.05,0.89,0.13,1.34,0.22
						c5.62,1.22,9.78,5.53,11.06,10.77c2.83-0.39,5.77-0.29,8.73,0.35c4.83,1.05,9,3.48,12.24,6.78
						c-2.9-7.48-9.33-13.47-17.71-15.28c-2.96-0.64-5.9-0.74-8.73-0.35c-0.81-3.3-2.76-6.23-5.5-8.25
						C411.85,49.2,411.73,49.93,411.58,50.67z"/>
				</g>
				<g>
					<path class="st3" d="M304.85,41.32c4.11,0.89,7.69,2.85,10.49,5.59c1.95-4.71,6.68-7.72,11.79-7.49
						c3.29-10.53,14.13-17,25.12-14.62c5.21,1.13,9.57,4.06,12.57,7.99c5.33-9.36,16.28-14.61,27.36-12.22
						c5.04,1.09,9.41,3.62,12.76,7.06c-2.98-7.64-9.62-13.7-18.24-15.56c-11.08-2.4-22.04,2.86-27.36,12.22
						c-3-3.93-7.36-6.86-12.57-7.99c-10.99-2.38-21.83,4.09-25.12,14.62c-5.11-0.23-9.83,2.78-11.79,7.49
						c-2.8-2.73-6.38-4.7-10.49-5.59c-11.64-2.52-23.16,5.12-25.65,16.63l8.2,1.77C286.58,43.66,295.68,39.33,304.85,41.32z"/>
				</g>
			</g>
		</g>
		<g>
			<g>
				<path class="st2" d="M188.78,69.15c4.92,0,9.63,0.85,13.98,2.45c3.84-7.87,11.92-13.29,21.27-13.29c0.74,0,1.48,0.04,2.2,0.1
					c-0.29-1.97-0.45-3.99-0.45-6.04c0-22.72,18.42-41.14,41.14-41.14c18.42,0,34.01,12.11,39.25,28.81
					c6.12-5.21,14.04-8.37,22.71-8.37c18.27,0,33.27,14.01,34.87,31.86c8.19,1.39,14.66,7.79,16.14,15.95
					c5.39-3.37,11.75-5.26,18.58-5.26c19.35,0,35.03,16.09,35.03,35.22H148.72C148.72,87.54,166.65,69.15,188.78,69.15z"/>
			</g>
			<g>
				<g>
					<path class="st3" d="M214.16,63.99c0,2.05,0.16,4.07,0.45,6.04c-0.72-0.07-1.46-0.11-2.2-0.11c-9.35,0-17.43,5.42-21.27,13.3
						c-4.35-1.59-9.06-2.45-13.98-2.45c-8.03,0-15.5,2.43-21.76,6.56c7.17-10.88,19.45-18.18,33.39-18.18
						c4.92,0,9.63,0.85,13.98,2.45c2.42-4.96,6.52-8.94,11.56-11.21C214.22,61.57,214.16,62.77,214.16,63.99z"/>
				</g>
				<g>
					<path class="st3" d="M386.85,85.83c-6.83,0-13.19,1.89-18.58,5.26c-1.48-8.16-7.95-14.56-16.14-15.95
						c-1.6-17.85-16.6-31.86-34.87-31.86c-8.67,0-16.6,3.15-22.71,8.37c-5.24-16.69-20.83-28.8-39.25-28.8
						c-8.39,0-16.18,2.52-22.69,6.83c7.36-11.11,19.98-18.45,34.31-18.45c18.42,0,34.01,12.11,39.25,28.81
						c6.12-5.21,14.04-8.37,22.71-8.37c18.27,0,33.27,14.01,34.87,31.86c8.19,1.39,14.66,7.79,16.14,15.95
						c5.39-3.37,11.75-5.26,18.58-5.26c19.35,0,35.03,16.09,35.03,35.22h-13.63C415.07,95.82,402.1,85.83,386.85,85.83z"/>
				</g>
			</g>
		</g>
		<linearGradient id="SVGID_1_" gradientUnits="userSpaceOnUse" x1="223.4388" y1="-29.2172" x2="141.1979" y2="68.8948">
			<stop  offset="0" style="stop-color:#F6AB49"/>
			<stop  offset="1" style="stop-color:#E21E2D"/>
		</linearGradient>
		<circle class="st4" cx="183.2" cy="18.79" r="18.79"/>
		<path class="st5" d="M29.01,224.77c0,0-2.21,8.96,6.24,16.29c3.94,3.42,9.06,5.17,14.28,5.17h413.22c3.9,0,7.74-1,11.1-2.96
			c5.6-3.26,13.01-10.07,12.26-17.66"/>
		<path class="st6" d="M36.29,235.71h425.95c0.73,0,10.72,0.31,14.14-0.32c3.25-0.59,10.57-4.22,9.67-11.52
			c-0.1-0.77-0.35-1.51-0.7-2.21l-55.61-110.75c-0.21-0.42-0.46-0.82-0.75-1.2c-1.55-2.01-6.69-7.71-14.28-6.71
			c-0.32,0.04-0.65,0.07-0.98,0.07l-311.32-0.19c-0.24,0-0.47,0.01-0.71,0.03c-1.89,0.19-9.89,1.32-12.05,6.96
			c-0.13,0.34-0.26,0.68-0.43,0.99L29.57,223.41c-1.18,2.22-1.15,4.89,0.11,7.06C31.13,232.95,33.39,235.71,36.29,235.71z"/>
		<linearGradient id="SVGID_2_" gradientUnits="userSpaceOnUse" x1="54.5063" y1="168.5575" x2="453.3564" y2="168.5575">
			<stop  offset="0" style="stop-color:#F6AB49"/>
			<stop  offset="1" style="stop-color:#E21E2D"/>
		</linearGradient>
		<path class="st7" d="M57.08,226.67h392.06c3.08,0,5.12-3.19,3.83-5.98l-50.84-110.24H106.08L54.74,223.04
			C53.97,224.74,55.21,226.67,57.08,226.67z"/>
		<ellipse class="st5" cx="439.31" cy="157.55" rx="8.16" ry="3.95"/>
		<g>
			<linearGradient id="SVGID_3_" gradientUnits="userSpaceOnUse" x1="265.3562" y1="141.2396" x2="283.5272" y2="193.0655">
				<stop  offset="0" style="stop-color:#F6AB49"/>
				<stop  offset="1" style="stop-color:#E21E2D"/>
			</linearGradient>
			<path class="st8" d="M332.01,175.07c-4.47-2.35-9.11-4.38-13.82-6.02c-4.7-1.58-9.67-2.2-14.64-2.48
				c-2.49-0.13-4.99-0.16-7.5-0.19c-2.51,0.01-5.06-0.06-7.46,0.12c-4.88,0.34-9.74,1.51-14.73,2.52
				c-5.01,0.97-10.09,1.65-15.19,1.98c-5.11,0.3-10.21,0.29-15.3-0.08c-2.55-0.19-5.1-0.46-7.62-0.9c-2.52-0.47-5.03-1.09-7.46-1.95
				c-2.43-0.86-4.76-2.06-6.81-3.63c-2.05-1.56-3.76-3.57-4.83-5.87c1.36,2.15,3.22,3.88,5.31,5.19c2.1,1.3,4.39,2.28,6.79,2.91
				c4.77,1.35,9.76,1.77,14.75,1.92c10.01,0.26,20-0.52,29.79-2.5c4.91-0.93,9.92-2.14,15.14-2.41c2.64-0.12,5.15,0.03,7.68,0.09
				c2.54,0.08,5.08,0.23,7.63,0.48c5.08,0.49,10.2,1.46,14.97,3.43C323.38,169.74,327.86,172.15,332.01,175.07z"/>
		</g>
		<g>
			<linearGradient id="SVGID_4_" gradientUnits="userSpaceOnUse" x1="285.3562" y1="121.2396" x2="303.5272" y2="173.0655">
				<stop  offset="0" style="stop-color:#F6AB49"/>
				<stop  offset="1" style="stop-color:#E21E2D"/>
			</linearGradient>
			<path class="st9" d="M352.01,155.07c-4.47-2.35-9.11-4.38-13.82-6.02c-4.7-1.58-9.67-2.2-14.64-2.48
				c-2.49-0.13-4.99-0.16-7.5-0.19c-2.51,0.01-5.06-0.06-7.46,0.12c-4.88,0.34-9.74,1.51-14.73,2.52
				c-5.01,0.97-10.09,1.65-15.19,1.98c-5.11,0.3-10.21,0.29-15.3-0.08c-2.55-0.19-5.1-0.46-7.62-0.9c-2.52-0.47-5.03-1.09-7.46-1.95
				c-2.43-0.86-4.76-2.06-6.81-3.63c-2.05-1.56-3.76-3.57-4.83-5.87c1.36,2.15,3.22,3.88,5.31,5.19c2.1,1.3,4.39,2.28,6.79,2.91
				c4.77,1.35,9.76,1.77,14.75,1.92c10.01,0.26,20-0.52,29.79-2.5c4.91-0.93,9.92-2.14,15.14-2.41c2.64-0.12,5.15,0.03,7.68,0.09
				c2.54,0.08,5.08,0.23,7.63,0.48c5.08,0.49,10.2,1.46,14.97,3.43C343.38,149.74,347.86,152.15,352.01,155.07z"/>
		</g>
		<g>
			<linearGradient id="SVGID_5_" gradientUnits="userSpaceOnUse" x1="217.2187" y1="194.5728" x2="235.508" y2="233.3916">
				<stop  offset="0" style="stop-color:#F6AB49"/>
				<stop  offset="1" style="stop-color:#E21E2D"/>
			</linearGradient>
			<path class="st10" d="M271.43,215.42c-3.67-1.39-7.43-2.55-11.2-3.39c-3.75-0.8-7.61-0.84-11.46-0.65
				c-1.93,0.11-3.86,0.3-5.79,0.49c-1.93,0.22-3.91,0.37-5.73,0.71c-3.71,0.66-7.35,1.95-11.13,3.14
				c-3.81,1.15-7.69,2.08-11.62,2.73c-3.94,0.62-7.89,1.02-11.87,1.11c-1.99,0.04-3.99,0.03-5.99-0.13c-2-0.18-3.99-0.48-5.94-0.97
				c-1.95-0.5-3.86-1.26-5.56-2.34c-1.71-1.07-3.17-2.52-4.16-4.23c2.53,3.08,6.28,4.55,10.03,5.13c3.78,0.62,7.65,0.51,11.5,0.2
				c7.73-0.65,15.35-2.06,22.73-4.37c3.71-1.1,7.5-2.44,11.55-3.06c2.06-0.3,4-0.38,5.97-0.53c1.97-0.14,3.96-0.21,5.95-0.2
				c3.98,0,8.03,0.37,11.89,1.56C264.39,211.88,268.02,213.43,271.43,215.42z"/>
		</g>
		<path class="st11" d="M218.22,110.39c4.37,13.9-35.07,14.87-35.07,14.87s-25.33,4.63,1.54,15.12
			c26.86,10.49-106.4,31.34-106.4,31.34l27.28-59.83c0.42-0.91,1.33-1.5,2.34-1.5H218.22z"/>
		<linearGradient id="SVGID_6_" gradientUnits="userSpaceOnUse" x1="259.8937" y1="194.2453" x2="454.4438" y2="194.2453">
			<stop  offset="0" style="stop-color:#F6AB49"/>
			<stop  offset="1" style="stop-color:#E21E2D"/>
		</linearGradient>
		<path class="st12" d="M426.71,163.36c-1.19-2.59-5.13-1.57-4.87,1.26c0,0.02,0,0.04,0.01,0.06c1.72,17.84-22.45,28.79-36.58,31.51
			c-13.91,2.68-28.38,1.81-42.29-0.37c-57.38-8.99-77.32,16.96-82.78,27c-0.93,1.71,0.31,3.79,2.26,3.79h189.41
			c1.87,0,3.12-1.94,2.33-3.64L426.71,163.36z"/>
		<linearGradient id="SVGID_7_" gradientUnits="userSpaceOnUse" x1="290.2104" y1="207.2646" x2="336.7775" y2="206.472">
			<stop  offset="0" style="stop-color:#F6AB49"/>
			<stop  offset="1" style="stop-color:#E21E2D"/>
		</linearGradient>
		<ellipse class="st13" cx="309.03" cy="206.94" rx="21.33" ry="4.04"/>
		<linearGradient id="SVGID_8_" gradientUnits="userSpaceOnUse" x1="28.7171" y1="202.9443" x2="499.4949" y2="202.9443">
			<stop  offset="0" style="stop-color:#F6AB49"/>
			<stop  offset="1" style="stop-color:#E21E2D"/>
		</linearGradient>
		<ellipse class="st14" cx="384.03" cy="202.94" rx="21.33" ry="4.04"/>
		<path class="st15" d="M393.85,154.67c0,0-16.01,6.1-21.88,7.33c-5.88,1.23-8.85,8.23-8.85,8.23c-1.83-0.72-3.36-2.37-3.99-4.23
			c-0.64-1.86-0.68-3.86-0.61-5.82c0.11-2.71,0.49-5.53,2.06-7.74c1.26-1.77,3.19-2.98,5.24-3.71c2.05-0.73,4.22-1.01,6.39-1.23
			c2.43-0.24,4.88-0.39,7.32-0.46c1.35-0.04,1.62-0.15,2.69-0.82c0.9-0.57,2.01-0.78,3.05-0.76c1.43,0.03,2.82,0.48,4.17,0.98
			c2.26,0.82,4.21,1.73,4.77,4.24c0.31,1.37,0.07,2.82-0.35,4.16C393.72,155.27,394.18,154.98,393.85,154.67z"/>
		<path class="st16" d="M410.71,144.45c-1.1,1.89-3.14,5.46-5.48,5.71c-0.8,0.09-1.66,0.05-2.33,0.49
			c-0.95,0.63-1.12,1.93-1.75,2.87c-0.69,1.03-1.94,1.6-3.18,1.69c-1.08,0.08-3.11-0.07-4.13-0.54c-0.96-0.44-1.45-1.83-1.79-2.75
			c-0.61-1.64-0.98-3.4-1.21-5.14c1.73-1.73,2.91-3.68,5.17-4.61c0.4-0.16,0.81-0.32,1.24-0.28c0.44,0.04,0.84,0.28,1.22,0.5
			C402.13,144.48,406.57,145.11,410.71,144.45z"/>
		<path class="st17" d="M343.03,118.35c0,0-9.25,14.26-12.2,31.49c-2.95,17.23-26.99,46.54-26.99,46.54s-6.33,4.43-6.33,9.07
			c0,3.49,12.87,3.52,19.25,3.32c2.22-0.07,4.29-1.1,5.68-2.83c6.63-8.23,26.29-33.13,28.26-41.39c0.67-2.81,3.58-4.29,5.47-6.47
			c3.62-4.18,7.48-9.03,6.99-14.55c-0.49-5.53-5.16-9.63-9.55-13.03C349.23,127.1,343.97,123.82,343.03,118.35z"/>
		<path class="st18" d="M371.96,154.56c0,0,0.01,0,0.01,0c9.67-2.97,19.09-7.36,27.59-12.86c7.24-4.68,13.96-10.39,18.84-17.6
			c1.06-1.57,2-3.22,2.83-4.93c0.71-1.45,1.92-3.46,1.97-5.06c0.08-2.23-2.01-4.41-3.49-5.82c-3.41-3.24-7.27-5.96-11.11-8.68
			c-3.82-2.69-7.92-5.56-12.66-6.24c-1.82-0.26-3.93-0.12-5.55,0.85c-0.07,0.04-1.55,1.22-1.4,1.31
			c-0.17-0.09-18.45-9.83-38.29,5.33c-4.03,3.08-6.61,7.69-7.26,12.73c-1.18,9.09-0.88,24.08,11.34,32.99l7.88,5.15L371.96,154.56z"
			/>
		<path class="st19" d="M365.59,113.61c0,0,5.63-1.56,7.08,1.51c1.46,3.07,8.75,15.99,8.75,16.82s-0.83,7.08-3.75,8.96
			s-6.04,10.83-6.04,10.83l-18.54-7.29l8.13-19.59C361.21,124.87,360.41,113.7,365.59,113.61z"/>
		<path class="st20" d="M365.27,157.26c0,0-3.13,9.66-2.16,12.97c0.97,3.31,4.14,27.04,4.14,27.04c1.11,2.61,1.99,5.35,2.56,8.13
			c0.42,2.04,0.74,4.19,0.49,6.27c-0.13,1.08-0.47,1.77-0.94,2.71c-0.77,1.55-1.07,1.73-2.84,1.4c-0.7-0.13-1.44-0.23-2.1,0.02
			c-1,0.38-0.77,1.43-1.57,1.74c-0.58,0.23-1.93-0.12-1.87-0.9l0-5.48c0,0-3.77-5.98-3.64-11.03c0.14-5.05,0-6.82,0-6.82
			c-1.3-3.87-2.61-7.75-3.91-11.62c-0.78-2.33-1.73-4.66-2.46-6.99c-1.24-3.98-0.33-8.61-0.02-12.67c0.07-0.91,0.31-7.88,2.15-7.46
			c-0.25-0.39-1-1.05-0.59-1.25s0.9-0.16,1.36-0.11c2.34,0.26,4.67,0.6,6.98,1.01c0.99,0.18,2.01,0.38,2.86,0.92
			C364.55,155.7,365.4,156.27,365.27,157.26z"/>
		<path class="st21" d="M390.85,124.01c0,0,0.4,14.35,0,16.71c0,0,11.34-9.58,11.46-13.59"/>
		<path class="st19" d="M397.09,143.26c0,0,11.88,4.11,13.62,1.19s13.6-19.01,12.33-29.34"/>
		<path class="st22" d="M372.72,161.95c0.15,2.39,1.02,4.76,2.48,6.67c0.99,1.3,1.36,1.55,0.97,3.08c-1.42,5.47-2.9,10.9-3.81,16.49
			c-0.64,3.95-2.54,12.1,0.87,15.36c3.3,3.16,9.12,2.37,13.03,1.33c2.43-0.64,4.23-2.67,4.65-5.15c1.72-10.02,6.22-36.44,6.19-38.24
			c-0.04-2.23-3.24-6.82-3.24-6.82"/>
		<path class="st20" d="M415.93,115.11c0,0-1.54,8.72-10.34,10.56c0,0-4.09,1.13-4.91,3.17s-5.02,1.94-5.02,1.94
			s-10.49-3.58-2.28-28.45"/>
		<path class="st19" d="M410.61,111.53c0,0-18.82,3.52-17.12-10.32c1.15-9.33,13.28-12.47,20.97-9.13c2.61,1.13,4.45,3.24,5.92,5.58
			c0.86,1.36,1.57,2.89,1.75,4.5c0.2,1.84-0.57,2.87-1.09,4.51c0,0-2.91,9.23-6.07,8.38C411.83,114.2,410.61,113.35,410.61,111.53z"
			/>
		<path class="st16" d="M353.09,144.45c0,0-5.22,4.26-1.7,8.18c3.52,3.92,16.5,4.91,16.5,4.91s5.46-2.91,3.74-5.8"/>
		<ellipse class="st23" cx="154.15" cy="136.98" rx="13.58" ry="2.04"/>
		<ellipse class="st23" cx="114.72" cy="153.47" rx="11.01" ry="3.53"/>
		<line class="st24" x1="115.67" y1="147.06" x2="119.26" y2="129.43"/>
		<path class="st25" d="M119.99,46.25c0,0-12.98,3.46-9.62,13.22c-2.65,2.34-5.73,4.44-7.18,7.76c-0.36,0.82-0.64,1.68-0.91,2.54
			c-0.36,1.13-0.72,2.26-1.08,3.4c-0.56,1.75-0.66,3.55-1.15,5.34c-0.46,1.66-0.88,3.34-1.24,5.02c-0.76,3.48-1.31,7.01-1.47,10.57
			c-0.28,6.15,0.59,13.24,5.53,17.51c0,0,0.86-7.56,6.3-10.27c5.44-2.72,18.96-7.41,18.96-7.41s4.96-4.79,7.58-3.8
			c0,0-0.12-2.37,0.62-2.5l-6.14-6.12l3.89-7.87l4.62,6.37c0,0-4.5,10.36-3.25,11.86c1.25,1.5,7.87,0.37,7.87,0.37
			s11.03-27.86-5.86-36.36"/>
		<path class="st26" d="M121.16,51.79c0,0-8.27,1.67-6.26,7.86c1.47,4.52,6.74,8.19,9.49,9.84c1.01,0.61,2.29,0.48,3.15-0.31
			c2.19-2.01,6.03-6.08,5.85-9.8"/>
		<path class="st27" d="M102.86,111.62c0,0,8.12,7.57,6.07,14.79c0,0,10.49,6.63,11.33,1.01c0.84-5.62-2.04-24.53-2.04-24.53
			c-0.22-2.57,0.24-4.88-1.64-6.65c-1.62-1.54-4.25-1.3-6.32-0.48c-4.69,1.86-8.26,6.3-9.08,11.28
			C100.88,108.84,101.54,110.37,102.86,111.62z"/>
		<path class="st28" d="M143.07,93.6l9.53,4.46c1.3,0.61,2.35,1.7,2.78,3.07c1.34,4.22-0.12,10.49-0.12,10.49H143.8v-4.27
			c-0.48,0.72-21.72-4-21.72-4c-2.77-1.11-4.92-3.22-6.91-5.45c-0.7-0.78-1.36-1.74-1.23-2.77c0.16-1.25,1.38-2.04,2.5-2.61
			c4.49-2.29,9.36-3.83,14.35-4.55c1.28-0.18,2.58-0.32,3.85-0.11C137.97,88.39,140.82,91.08,143.07,93.6z"/>
		<path class="st6" d="M126.07,46.31l-5.79-3.8c0,0-0.8,4.1,0.3,4.89c-0.04,1.49,0.7,2.51,1.84,3.47c1.14,0.96,2.72,1.36,4.18,1.07
			c0.3-0.06,0.6-0.15,0.86-0.31c0.32-0.19,0.57-0.48,0.76-0.8c0.57-0.94,0.6-2.18,0.09-3.15C127.81,46.71,127.17,46.31,126.07,46.31
			z"/>
		<path class="st28" d="M119.99,56.27c0,0-3.93-2.07-2.17,3.62s9.29,5.19,9.29,5.19s4.98-1.05,2.28-5.42"/>
		<path class="st29" d="M106.82,100.88c0,0,19.63,4.15,20.85,2.02c1.22-2.12,2.32-8.23,1.72-8.63c-0.6-0.41-16.85-3.05-16.85-3.05
			s1.29-26.14-3.89-26.65s-5.9,4.07-5.9,4.07S97.05,97.01,106.82,100.88z"/>
		<path class="st30" d="M126.07,69.44c0,0-0.17,4.18-3.14,11.26s0,12.26,0,12.26"/>
		<path class="st19" d="M109.07,125.67c0,0-2.58,6.84,0.01,12.66c0.09,0.19,0.13,0.4,0.13,0.61c-0.04,1.46-0.81,9.07-1.12,12.06
			c-0.07,0.7,0.28,1.37,0.9,1.7c0.6,0.33,1.37,0.82,2.06,1.47c0.5,0.47,1.28,0.49,1.83,0.07l1.37-1.02c0,0,4.81,10.32,9.87,7.3
			c5.06-3.02,3.31-4.76,3.31-4.76l-9.92-10.82c-0.35-0.38-0.46-0.91-0.31-1.4l4.31-15.64c0.09-0.34-0.13-0.68-0.48-0.72
			L109.07,125.67z"/>
		<path class="st19" d="M143.8,111.62c0,0,0.82,6.93,1.29,8.51c0.43,1.45-0.46,7.65-0.62,8.73c-0.02,0.12-0.02,0.23-0.01,0.35
			c0.06,1.01,0.53,5.82,3.88,6.55c0.39,0.09,0.8-0.01,1.15-0.2c0.83-0.46,2.79-1.06,5.29,1.56c2.58,2.7,8.1,1.7,10.47,1.11
			c0.88-0.22,1.45-1.08,1.29-1.98c-0.11-0.63-0.45-1.35-1.29-1.99c-2.06-1.59-12.38-6.99-12.07-12.22c0.25-4.08,1.98-8.13,2.74-9.72
			c0.16-0.33-0.09-0.7-0.45-0.7H143.8z"/>
		<polyline class="st31" points="139.01,98.18 178.99,114.14 178.99,155.69 178.99,166.08 		"/>
		<linearGradient id="SVGID_9_" gradientUnits="userSpaceOnUse" x1="214.119" y1="200.9833" x2="493.0967" y2="200.9833">
			<stop  offset="0" style="stop-color:#F6AB49"/>
			<stop  offset="1" style="stop-color:#E21E2D"/>
		</linearGradient>
		<ellipse class="st32" cx="250.07" cy="200.98" rx="9.5" ry="3.04"/>
		<linearGradient id="SVGID_10_" gradientUnits="userSpaceOnUse" x1="214.119" y1="210.9833" x2="493.0967" y2="210.9833">
			<stop  offset="0" style="stop-color:#F6AB49"/>
			<stop  offset="1" style="stop-color:#E21E2D"/>
		</linearGradient>
		<ellipse class="st33" cx="100.07" cy="210.98" rx="9.5" ry="3.04"/>
		<linearGradient id="SVGID_11_" gradientUnits="userSpaceOnUse" x1="214.119" y1="131.9837" x2="493.0967" y2="131.9837">
			<stop  offset="0" style="stop-color:#F6AB49"/>
			<stop  offset="1" style="stop-color:#E21E2D"/>
		</linearGradient>
		<ellipse class="st34" cx="196.94" cy="131.98" rx="6.37" ry="2.04"/>
		<linearGradient id="SVGID_12_" gradientUnits="userSpaceOnUse" x1="214.119" y1="121.9837" x2="493.0967" y2="121.9837">
			<stop  offset="0" style="stop-color:#F6AB49"/>
			<stop  offset="1" style="stop-color:#E21E2D"/>
		</linearGradient>
		<ellipse class="st35" cx="326.94" cy="121.98" rx="6.37" ry="2.04"/>
		<linearGradient id="SVGID_13_" gradientUnits="userSpaceOnUse" x1="214.119" y1="127.9837" x2="493.0967" y2="127.9837">
			<stop  offset="0" style="stop-color:#F6AB49"/>
			<stop  offset="1" style="stop-color:#E21E2D"/>
		</linearGradient>
		<ellipse class="st36" cx="311.94" cy="127.98" rx="6.37" ry="2.04"/>
		<linearGradient id="SVGID_14_" gradientUnits="userSpaceOnUse" x1="214.119" y1="210.9888" x2="493.0967" y2="210.9888">
			<stop  offset="0" style="stop-color:#F6AB49"/>
			<stop  offset="1" style="stop-color:#E21E2D"/>
		</linearGradient>
		<ellipse class="st37" cx="424.67" cy="210.99" rx="12.64" ry="4.04"/>
		<path class="st38" d="M128.47,100.94l1.95,0.9c0,0,3.18,3.64,8.41,1.67c0,0,1.33-1.27,3.08-0.6c1.74,0.67,3.18-3.84,3.18-3.84
			s-0.82-2.36-1.64-3.59c-0.82-1.23-0.12-3.21-0.12-3.21l-5.72,0.35l-0.01,2.04c0,0-2.87,0-4,1.33c-1.13,1.33-4.04,0.82-4.04,0.82"
			/>
		<path class="st38" d="M139.58,46.3c-0.01,0.3-0.07,0.65-0.13,1.07c-0.09,0.62-0.1,1.25-0.18,1.87c-0.21,1.67-0.53,3.35-1.08,4.95
			c-1.16,3.36-3.59,6.16-7.43,4.94c-0.08-0.03-0.89-0.33-0.89-0.34l-1.53,2.85c0,0-6.76,1.67-9.06-4.12c0,0,3.2-4.2,1.3-10.09
			c0,0,0.4-2.83,2.8-1.12l0.2,2.92c0,0,2.2,1.9,2.4-0.2c0.2-2.12-0.71-3.75,2.1-4.02c3.32-0.32,6.66-0.09,9.99,0.14
			C139.33,45.22,139.6,45.59,139.58,46.3z"/>
		<path class="st11" d="M138.89,41.95c1.24-10.56-7.15-11.18-7.15-11.18c-8.46-1.37-10.31,8.32-10.31,8.32
			c0.62,0.87,1.69,1.89,2.77,2.5c2.08,1.18,4.75,1.65,7.23,1.58C133.91,43.09,136.71,42.67,138.89,41.95z"/>
		
			<linearGradient id="SVGID_15_" gradientUnits="userSpaceOnUse" x1="86.582" y1="43.5086" x2="86.7784" y2="75.9102" gradientTransform="matrix(0.9872 0.1596 -0.132 0.8165 52.2689 -21.0651)">
			<stop  offset="0" style="stop-color:#F6AB49"/>
			<stop  offset="1" style="stop-color:#E21E2D"/>
		</linearGradient>
		<path class="st39" d="M119.6,39.5c-0.37,0.89-1.08,2.36-0.81,3.34c0.51,1.86,3.32,2.61,4.92,2.96c3.2,0.7,6.47,1.04,9.74,1.03
			c1.51,0,3-0.12,4.49-0.03c1.05,0.06,2.36-0.21,2.57-1.49c0.31-1.92,0.38-2.37,0.38-2.37s-0.67-1.04-1.99-0.99
			c-1.32,0.05-14.54-1.25-16.09-2.65C122.8,39.3,119.92,38.63,119.6,39.5z"/>
		
			<linearGradient id="SVGID_16_" gradientUnits="userSpaceOnUse" x1="83.0369" y1="45.7895" x2="90.3303" y2="45.7895" gradientTransform="matrix(0.9872 0.1596 -0.132 0.8165 52.2689 -21.0651)">
			<stop  offset="0" style="stop-color:#F6AB49"/>
			<stop  offset="1" style="stop-color:#E21E2D"/>
		</linearGradient>
		<path class="st40" d="M135.4,30.73c-0.23,1.41-2.03,2.3-4.01,1.98c-1.99-0.32-3.41-1.73-3.19-3.14c0.23-1.41,2.03-2.3,4.01-1.98
			C134.2,27.91,135.63,29.32,135.4,30.73z"/>
		
			<linearGradient id="SVGID_17_" gradientUnits="userSpaceOnUse" x1="79.076" y1="52.2439" x2="94.6652" y2="52.2439" gradientTransform="matrix(0.9872 0.1596 -0.132 0.8165 52.2689 -21.0651)">
			<stop  offset="0" style="stop-color:#F6AB49"/>
			<stop  offset="1" style="stop-color:#E21E2D"/>
		</linearGradient>
		<polygon class="st41" points="124.39,33.18 125.15,34.02 126.81,33.57 128.15,34.5 130.08,34.1 131.83,35.43 133.81,34.7 
			135.27,35.46 136.79,34.77 138.3,35.74 138.74,37.22 138.16,37.77 136.3,36.51 135.04,37.27 133.35,36.03 131.62,37.12 
			129.63,35.62 127.94,36.53 126.7,34.96 124.74,35.77 123.4,34.43 		"/>
		
			<linearGradient id="SVGID_18_" gradientUnits="userSpaceOnUse" x1="77.9752" y1="56.1406" x2="95.37" y2="56.1406" gradientTransform="matrix(0.9872 0.1596 -0.132 0.8165 52.2689 -21.0651)">
			<stop  offset="0" style="stop-color:#F6AB49"/>
			<stop  offset="1" style="stop-color:#E21E2D"/>
		</linearGradient>
		<polygon class="st42" points="121.7,38.05 122.9,37.55 124.19,38.86 125.93,38.36 127.14,39.74 129.21,38.93 130.96,40.19 
			132.79,39.47 134.43,40.63 135.82,39.84 137.59,40.94 139.02,39.94 138.92,38.3 137.85,39.35 135.93,38.11 134.65,39.28 
			133.3,37.76 131.3,38.74 129.61,37.21 127.57,38.14 126.33,36.59 124.62,37.25 123.38,36.08 122.31,36.43 		"/>
		<g>
			<path class="st43" d="M174.33,168.31c-3.84-0.46-6.6-0.7-6.6-2.16c0-1.46,2.75-1.69,6.6-2.16"/>
			<path class="st43" d="M181.38,164.05c3.64,0.5,6.21,0.7,6.21,2.11c0,1.39-2.5,1.58-6.07,2.09"/>
			<path class="st43" d="M171.6,170.66c-7.34-0.66-12.6-2.43-12.6-4.51c0-2.08,5.26-3.85,12.6-4.51"/>
			<path class="st43" d="M185.07,161.71c6.96,0.71,11.87,2.43,11.87,4.44c0,1.98-4.78,3.68-11.59,4.41"/>
		</g>
		<rect x="310.97" y="73.19" class="st44" width="9.45" height="23.3"/>
		<polyline class="st45" points="218.27,96.49 218.27,77.42 193.09,77.42 193.09,96.49 		"/>
		<path class="st46" d="M253.95,96.49V82.04c0-2.94-1.26-5.73-3.47-7.67l-12.66-11.12l-19.55,14.17v19.06"/>
		<polyline class="st6" points="237.82,63.25 206.92,63.25 188.88,77.42 193.09,77.42 218.27,77.42 		"/>
		<rect x="215.42" y="56.46" class="st5" width="2.85" height="9.54"/>
		<polyline class="st6" points="227.39,96.49 227.39,81.96 236.11,81.96 236.11,96.49 		"/>
		<circle class="st19" cx="238.4" cy="73.19" r="3.39"/>
		<path class="st47" d="M311.79,95.84V73.19L291.84,57.5l-18.42,13.77c-1.61,1.21-2.57,3.11-2.57,5.12v20.09"/>
		<polyline class="st21" points="311.79,73.19 321.68,73.19 305.37,57.5 291.84,57.5 		"/>
		<rect x="311.42" y="59.32" class="st5" width="2.85" height="7.68"/>
		<circle class="st19" cx="297.06" cy="71.39" r="2.79"/>
		<polyline class="st48" points="294.96,96.66 294.96,80.87 305.72,80.87 305.72,96.66 		"/>
		<rect x="278.1" y="82.98" class="st19" width="9.89" height="7.79"/>
		<rect x="278.1" y="72.98" class="st19" width="9.89" height="7.79"/>
		<polyline class="st49" points="182.92,96.49 249.39,96.49 331.4,96.49 		"/>
		<line class="st49" x1="188.06" y1="115.12" x2="188.06" y2="96.66"/>
		<line class="st49" x1="209.06" y1="96.66" x2="209.06" y2="115.12"/>
		<line class="st49" x1="220.06" y1="96.66" x2="220.06" y2="115.12"/>
		<line class="st49" x1="251.06" y1="96.66" x2="251.06" y2="115.12"/>
		<line class="st49" x1="277.06" y1="96.66" x2="277.06" y2="115.12"/>
		<line class="st49" x1="296.06" y1="96.66" x2="296.06" y2="115.12"/>
		<line class="st49" x1="326.06" y1="96.66" x2="326.06" y2="115.12"/>
		<line class="st49" x1="188.06" y1="97.24" x2="209.06" y2="109.66"/>
		<line class="st49" x1="188.06" y1="108.99" x2="209.04" y2="97.24"/>
		<line class="st49" x1="296.06" y1="97.24" x2="326.06" y2="109.66"/>
		<line class="st49" x1="296.06" y1="108.99" x2="326.03" y2="97.24"/>
		<line class="st49" x1="220.39" y1="99.18" x2="251.06" y2="99.18"/>
		<line class="st49" x1="220.39" y1="105.18" x2="251.06" y2="105.18"/>
		<line class="st49" x1="220.39" y1="108.18" x2="251.06" y2="108.18"/>
		<line class="st49" x1="277.06" y1="99.18" x2="296.06" y2="99.18"/>
		<line class="st49" x1="277.06" y1="105.18" x2="296.06" y2="105.18"/>
		<line class="st49" x1="277.06" y1="108.18" x2="296.06" y2="108.18"/>
		<path class="st48" d="M229.13,183.84c0.44-1.69-3.04-4.94-4.8-6.46c-0.47-0.4-1.13-0.42-1.65-0.09
			c-9.22,5.97-108.64,11.01-108.64,11.01c12.31,0,23.91,6.74,35.98,9.12c1.95,0.39,3.92,0.77,5.91,0.81
			c2.59,0.06,5.16-0.47,7.7-0.99c7.75-1.57,15.52-3.04,23.31-4.39c3.59-0.62,7.19-1.22,10.83-1.36c3.17-0.12,6.36,0.12,9.52-0.17
			c3.31-0.3,6.54-1.17,9.69-2.21C221.12,187.76,225.24,185.81,229.13,183.84z"/>
		<path class="st44" d="M165.8,189.79c43.98,1.7,62.33-4.95,62.33-4.95c-0.12,0.64,0.49-0.31,0.08,1.94s-9.17,14.42-9.17,14.42
			l-56.72,6.61"/>
		<path class="st47" d="M114.37,189.04l6.78,17.46l41.17,1.32l3.47-18.02C165.8,189.79,118.34,188.04,114.37,189.04z"/>
		<path class="st21" d="M114.75,190.13l50.48,2.59l0.56-2.93c0,0-23.22-1.24-29.17-1.45c-5.95-0.21-22.59-0.03-22.59-0.03
			L114.75,190.13z"/>
		<polygon class="st21" points="162.92,204.73 119.91,203.32 121.15,206.49 162.32,207.82 		"/>
		<path class="st50" d="M165.23,192.72l0.56-2.93c0,0,13.48-0.12,28.26-1.18c13.34-0.95,25.67-2.1,35.08-4.78l-0.92,2.94
			C216.14,192.29,165.23,192.72,165.23,192.72"/>
		<path class="st50" d="M162.92,204.73c0,0,25.78-2.03,34.62-3.16c5.69-0.72,24.07-3.94,24.07-3.94l-2.56,3.57
			c0,0-16.68,2.46-22.31,3.1s-34.41,3.51-34.41,3.51L162.92,204.73z"/>
	</g>
</g>
</svg>
