<svg xmlns="http://www.w3.org/2000/svg" xmlns:xlink="http://www.w3.org/1999/xlink" version="1.1" x="0px" y="0px" viewBox="0 0 100 100" enable-background="new 0 0 100 100" xml:space="preserve"><g><g><path fill="#F69E4D" d="M86.805,13.194c-8.09-8.101-14.168-6.886-14.168-6.886L44.295,34.647L11.904,67.034L6.24,93.752    l26.72-5.665l60.736-60.723C93.695,27.364,94.908,21.292,86.805,13.194z M31.369,84.873l-9.112,1.961    c-0.878-1.647-1.937-3.285-3.872-5.228c-1.936-1.936-3.584-2.998-5.232-3.874l1.961-9.114l2.636-2.625    c0,0,4.963,0.097,10.549,5.694c5.595,5.601,5.702,10.549,5.702,10.549L31.369,84.873z"/><path fill="#F69E4D" d="M24.062,47.241l3.828-3.827L10.515,26.038l15.523-15.523l3.587,3.587l-4.836,4.836    c-1.059,1.055-1.057,2.771,0,3.826c1.055,1.059,2.767,1.059,3.826,0l4.836-4.836l6.615,6.611l-4.838,4.84    c-1.057,1.055-1.057,2.771,0.002,3.826c0.58,0.581,1.355,0.811,2.116,0.753l9.893-9.895L29.521,6.345    c-1.92-1.92-5.202-1.768-7.312,0.343L6.688,22.212c-2.109,2.11-2.262,5.388-0.341,7.312L24.062,47.241z"/><path fill="#F69E4D" d="M93.652,70.476L75.945,52.769L65.812,62.902c0.064,0.589,0.285,1.169,0.738,1.622    c1.055,1.059,2.766,1.059,3.824,0l4.838-4.837l6.613,6.615l-4.838,4.837c-1.057,1.055-1.057,2.771,0,3.825    c1.059,1.06,2.77,1.06,3.828,0l4.836-4.836l3.832,3.833c-0.002,0-0.002,0-0.002,0L73.961,89.485L56.596,72.12l-3.828,3.826    l17.709,17.708c1.922,1.921,5.201,1.768,7.312-0.339l15.521-15.523C95.424,75.678,95.574,72.399,93.652,70.476z"/></g></g></svg>