<?xml version="1.0" encoding="UTF-8" standalone="no"?><!DOCTYPE svg PUBLIC "-//W3C//DTD SVG 1.1//EN" "http://www.w3.org/Graphics/SVG/1.1/DTD/svg11.dtd"><svg width="100%" height="100%" viewBox="0 0 1968 1506" version="1.1" xmlns="http://www.w3.org/2000/svg" xmlns:xlink="http://www.w3.org/1999/xlink" xml:space="preserve" xmlns:serif="http://www.serif.com/" style="fill-rule:evenodd;clip-rule:evenodd;stroke-miterlimit:10;"><g id="Layer-12" serif:id="Layer 12"><path d="M345.338,575.12c5.929,-6.104 39.925,-5.342 47.891,-6.504c42.9,-6.259 85.667,-13.421 128.296,-21.313c60.046,-11.112 119.825,-23.712 179.183,-38.071c33.296,-8.05 66.463,-16.658 99.446,-25.929c24.779,-6.962 64.367,-28.504 88.909,-19.541c6.312,2.308 11.754,7.179 16.312,11.966c24.233,25.459 36.213,72.021 19.967,104.884c-14.879,30.1 -65.025,37.8 -95.05,46.979c-77.15,23.596 -157.496,37.262 -237.134,49.296c-38.1,5.762 -76.304,10.87 -114.562,15.487c-33.725,4.067 -78.967,17.104 -111.646,8.942c-52.837,-13.196 -52.604,-93.225 -21.612,-126.196Z" style="fill:none;fill-rule:nonzero;stroke:#fff;stroke-width:4.17px;"/><path d="M609.998,178.916c200.696,22.875 267.034,281.404 267.034,281.404" style="fill:none;fill-rule:nonzero;stroke:#fff;stroke-width:4.17px;"/><path d="M345.342,575.116c0,0 -51.121,-249.25 89.296,-353.354" style="fill:none;fill-rule:nonzero;stroke:#fff;stroke-width:4.17px;"/><path d="M440.001,223.399c-19.954,-2.85 -20.008,-40.621 -15.137,-54.559c2.004,-5.741 2.996,-12.4 -0.021,-17.679c-2.9,-5.066 -8.687,-7.571 -13.4,-11.008c-14.996,-10.942 0.513,-45.463 13.9,-53.233c7.292,-4.234 17.7,-1.313 23.954,-6.971c7.267,-6.567 3.9,-17.717 8.479,-25.509c5.217,-8.875 14.621,-11.837 24.121,-14.77c6.804,-2.105 15.917,-5.409 22.442,-2.763c9.208,3.733 10.658,14.063 23.808,13.329c6.8,-0.379 13.254,-3.496 20.063,-3.625c11.241,-0.208 26.287,3.459 34.596,11.65c9.987,9.854 0.37,23.584 11.375,32.775c3.008,2.513 6.929,3.584 10.42,5.359c12.325,6.266 17.18,21.837 18.375,36.037c0.359,4.292 0.384,8.458 0.184,12.204c-0.3,5.534 -2.904,11.279 -7.834,13.817c-2.008,1.033 -4.416,1.583 -5.783,3.383c-1.237,1.634 -1.267,3.859 -1.15,5.909c0.346,6.025 1.488,12.004 3.379,17.737c1.321,4 3.034,8.092 2.488,12.271c-0.629,4.846 -19.796,23.508 -24.088,26.383c-12.171,8.15 -32.05,-3.046 -42.216,9.663c-2.234,2.796 -3.246,6.362 -5.084,9.437c-9.612,16.096 -40.483,10.596 -55.116,6.2c-13.217,-3.971 -12.175,-4.883 -15.363,-17.371c-1.496,-5.858 -8.242,-8.783 -14.283,-9.054c-6.042,-0.271 -12.121,1.242 -18.109,0.388" style="fill:none;fill-rule:nonzero;stroke:#fff;stroke-width:4.17px;"/><path d="M338.642,491.442l65.45,46.034l68.292,-77.846l93.662,36.187l70.259,-70.354l83.912,24.4l59.734,-65.387l72.695,25.366" style="fill:none;fill-rule:nonzero;stroke:#fff;stroke-width:4.17px;"/><path d="M341.71,396.401l51.171,35.987l68.287,-77.841l93.663,36.187l70.262,-70.358l83.913,24.4l59.729,-65.388l21.054,7.35" style="fill:none;fill-rule:nonzero;stroke:#fff;stroke-width:4.17px;"/><path d="M1116.42,1231.03c5.08,-2.258 25.505,6.471 30.617,7.704c27.525,6.638 55.196,12.696 82.954,18.279c39.104,7.863 78.409,14.763 117.884,20.492c22.141,3.217 44.341,6.062 66.587,8.467c16.717,1.8 45.958,-1.63 58.65,9.77c3.267,2.934 5.379,7.213 6.979,11.225c8.5,21.325 4.442,52.463 -13.4,68.434c-16.333,14.629 -48.612,7.104 -69.046,5.371c-52.504,-4.463 -104.533,-15.717 -155.741,-27.784c-24.496,-5.775 -48.896,-11.971 -73.209,-18.471c-21.437,-5.737 -52.029,-8.833 -69.858,-21.729c-28.825,-20.85 -9.221,-69.308 17.583,-81.758Z" style="fill:none;fill-rule:nonzero;stroke:#fff;stroke-width:4.17px;"/><path d="M1373.21,1055.21c116.1,62.667 93.45,235.521 93.45,235.521" style="fill:none;fill-rule:nonzero;stroke:#fff;stroke-width:4.17px;"/><path d="M1116.43,1231.03c0,0 29.621,-163.529 140.059,-192.492" style="fill:none;fill-rule:nonzero;stroke:#fff;stroke-width:4.17px;"/><path d="M1259.34,1040.83c-11.4,-6.579 -2.25,-29.487 4.092,-36.754c2.608,-2.991 4.833,-6.787 4.287,-10.725c-0.525,-3.775 -3.429,-6.7 -5.45,-9.929c-6.429,-10.279 11.367,-27.437 21.375,-28.892c5.45,-0.791 11.046,3.509 16.217,1.6c6,-2.212 6.671,-9.791 11.342,-13.4c5.321,-4.112 11.741,-3.62 18.212,-3.091c4.638,0.379 10.963,0.591 14.275,3.783c4.675,4.504 3.046,11.117 11.196,13.871c4.213,1.421 8.883,1.104 13.046,2.679c6.862,2.608 15.096,8.492 18.133,15.479c3.663,8.4 -5.508,14.384 -1.071,22.634c1.213,2.254 3.33,3.854 5.013,5.783c5.946,6.796 5.104,17.412 2.375,26.308c-0.825,2.692 -1.821,5.225 -2.854,7.446c-1.529,3.288 -4.504,6.133 -8.109,6.471c-1.47,0.137 -3.066,-0.113 -4.329,0.646c-1.15,0.691 -1.704,2.033 -2.133,3.3c-1.258,3.737 -2.017,7.637 -2.267,11.575c-0.175,2.746 -0.129,5.641 -1.475,8.046c-1.558,2.783 -17.716,9.437 -21.016,10.137c-9.359,1.979 -18.692,-9.642 -27.942,-4.412c-2.038,1.154 -3.517,3.07 -5.375,4.491c-9.742,7.417 -27.121,-3.429 -34.921,-9.65c-7.05,-5.616 -6.196,-5.921 -5.092,-14.266c0.517,-3.913 -2.858,-7.325 -6.458,-8.959c-3.596,-1.637 -7.65,-2.196 -11.071,-4.171" style="fill:none;fill-rule:nonzero;stroke:#fff;stroke-width:4.17px;"/><path d="M1132.71,1178.68l28.488,43.821l60.325,-30.583l47.979,44.712l59.704,-25.566l44.934,35.2l52.108,-25.117l37.904,33.058" style="fill:none;fill-rule:nonzero;stroke:#fff;stroke-width:4.17px;"/><path d="M1157.69,1121.81l22.267,34.259l60.325,-30.584l47.983,44.713l59.7,-25.563l44.934,35.196l52.112,-25.116l10.975,9.57" style="fill:none;fill-rule:nonzero;stroke:#fff;stroke-width:4.17px;"/><path d="M1165.57,614.998l-165.659,165.059l418.717,0" style="fill:none;fill-rule:nonzero;stroke:#fff;stroke-width:4.17px;"/><path d="M1082.26,734.9l307.996,0l-18.109,24.333l-314.308,0l24.421,-24.333" style="fill:none;fill-rule:nonzero;stroke:#fff;stroke-width:2.08px;"/><path d="M1166.11,709.238l-16.987,16.925l-58.1,0l16.991,-16.925l58.096,0Z" style="fill:none;fill-rule:nonzero;stroke:#fff;stroke-width:2.08px;"/><path d="M1241.64,709.238l-16.987,16.925l-58.1,0l16.987,-16.925l58.1,0Z" style="fill:none;fill-rule:nonzero;stroke:#fff;stroke-width:2.08px;"/><path d="M1317.17,709.238l-16.987,16.925l-58.1,0l16.991,-16.925l58.096,0Z" style="fill:none;fill-rule:nonzero;stroke:#fff;stroke-width:2.08px;"/><path d="M1192.26,680.188l-16.988,16.925l-58.1,0l16.988,-16.925l58.1,0Z" style="fill:none;fill-rule:nonzero;stroke:#fff;stroke-width:2.08px;"/><path d="M1267.79,680.188l-16.987,16.925l-58.1,0l16.992,-16.925l58.095,0Z" style="fill:none;fill-rule:nonzero;stroke:#fff;stroke-width:2.08px;"/><path d="M1343.32,680.188l-16.987,16.925l-58.1,0l16.987,-16.925l58.1,0Z" style="fill:none;fill-rule:nonzero;stroke:#fff;stroke-width:2.08px;"/><path d="M1221.31,651.137l-16.988,16.925l-58.1,0l16.992,-16.925l58.096,0Z" style="fill:none;fill-rule:nonzero;stroke:#fff;stroke-width:2.08px;"/><path d="M1296.84,651.137l-16.987,16.925l-58.1,0l16.987,-16.925l58.1,0Z" style="fill:none;fill-rule:nonzero;stroke:#fff;stroke-width:2.08px;"/><path d="M1372.37,651.137l-16.987,16.925l-58.1,0l16.987,-16.925l58.1,0Z" style="fill:none;fill-rule:nonzero;stroke:#fff;stroke-width:2.08px;"/><path d="M1433.38,709.238l-16.988,16.925l-58.1,0l16.988,-16.925l58.1,0Z" style="fill:none;fill-rule:nonzero;stroke:#fff;stroke-width:2.08px;"/><path d="M1459.52,680.188l-16.987,16.925l-58.1,0l16.991,-16.925l58.096,0Z" style="fill:none;fill-rule:nonzero;stroke:#fff;stroke-width:2.08px;"/><path d="M1488.57,651.137l-16.988,16.925l-58.1,0l16.988,-16.925l58.1,0Z" style="fill:none;fill-rule:nonzero;stroke:#fff;stroke-width:2.08px;"/><path d="M1401.76,759.235l124.355,-123.9l-314.313,0" style="fill:none;fill-rule:nonzero;stroke:#fff;stroke-width:2.08px;"/><path d="M999.907,780.057l15.734,35.371l408.933,0l-6.021,-35.371l165.654,-165.058l-418.712,0l0,-251.992l418.712,0l0,296.109l-159.633,156.312" style="fill:none;fill-rule:nonzero;stroke:#fff;stroke-width:4.17px;"/><path d="M1584.21,614.998l13.775,-20.479l0,-244.583l-13.775,13.071" style="fill:none;fill-rule:nonzero;stroke:#fff;stroke-width:4.17px;"/><path d="M1165.5,363.006l22.145,-18.087l412.83,0" style="fill:none;fill-rule:nonzero;stroke:#fff;stroke-width:4.17px;"/><rect x="1181.67" y="381.652" width="384.808" height="197.983" style="fill:none;stroke:#fff;stroke-width:4.17px;"/><path d="M1374.08,595.666c0,-5.162 -4.191,-9.354 -9.354,-9.354c-5.163,0 -9.354,4.192 -9.354,9.354c0,5.163 4.191,9.354 9.354,9.354c5.163,0 9.354,-4.191 9.354,-9.354Z" style="fill:none;stroke:#fff;stroke-width:4.17px;"/><path d="M804.863,1199.08l-114.579,13.754c-27.304,3.275 -52.325,-16.383 -55.6,-43.687l-36.116,-300.913c-3.275,-27.308 16.379,-52.325 43.687,-55.604l114.575,-13.75c27.304,-3.279 52.325,16.379 55.604,43.683l36.113,300.917c3.279,27.304 -16.379,52.325 -43.684,55.6Z" style="fill:none;fill-rule:nonzero;stroke:#fff;stroke-width:4.17px;"/><path d="M621.136,843.217l164.988,-19.804l37.603,313.275l-164.989,19.804l-37.602,-313.275Z" style="fill:none;stroke:#fff;stroke-width:4.17px;"/><path d="M756.176,1176.01c-1.056,-8.795 -9.054,-15.079 -17.851,-14.023c-8.796,1.055 -15.08,9.053 -14.024,17.849c1.055,8.795 9.054,15.079 17.85,14.024c8.796,-1.056 15.08,-9.054 14.025,-17.85Z" style="fill:none;stroke:#fff;stroke-width:4.17px;"/><path d="M733.331,855.657l33.75,-4.05l4.05,33.746l-33.75,4.05l-4.05,-33.746Z" style="fill:none;stroke:#fff;stroke-width:4.17px;"/><path d="M739.787,909.44l33.75,-4.05l4.05,33.745l-33.751,4.05l-4.049,-33.745Z" style="fill:none;stroke:#fff;stroke-width:4.17px;"/><path d="M673.266,1089.48l33.75,-4.05l4.05,33.75l-33.75,4.05l-4.05,-33.75Z" style="fill:none;stroke:#fff;stroke-width:4.17px;"/><path d="M683.687,861.617l33.751,-4.05l4.049,33.745l-33.75,4.051l-4.05,-33.746Z" style="fill:none;stroke:#fff;stroke-width:4.17px;"/><path d="M277.269,1484.07c0,0 12.175,-99.258 109.484,-76.65c0,0 11.162,-31.42 47.541,-26.72c0,0 -12.371,-73.125 69.463,-95.575c0,0 66.346,-11.459 92.5,58.358c0,0 38.725,-38.492 92.687,0.596c0,0 24.1,21.425 23.971,46.996c0,0 22.029,3.337 32.704,32.308c0,0 52.779,-23.988 81.379,4.717c28.596,28.708 27.221,55.97 27.221,55.97l-576.95,0Z" style="fill:none;fill-rule:nonzero;stroke:#fff;stroke-width:4.17px;"/><path d="M1200.09,220.583c0,0 12.175,-99.258 109.479,-76.65c0,0 11.167,-31.425 47.546,-26.721c0,0 -12.367,-73.125 69.463,-95.575c0,0 66.345,-11.458 92.5,58.354c0,0 38.725,-38.487 92.687,0.6c0,0 24.1,21.421 23.971,46.992c0,0 22.029,3.342 32.704,32.308c0,0 52.779,-23.987 81.379,4.721c28.596,28.708 27.221,55.971 27.221,55.971l-576.95,0Z" style="fill:none;fill-rule:nonzero;stroke:#fff;stroke-width:4.17px;"/><path d="M1946.6,1059.62c0,0 -8.266,-67.396 -74.337,-52.046c0,0 -7.579,-21.333 -32.279,-18.146c0,0 8.4,-49.646 -47.163,-64.892c0,0 -45.05,-7.779 -62.804,39.625c0,0 -26.296,-26.133 -62.938,0.409c0,0 -16.366,14.541 -16.275,31.904c0,0 -14.958,2.271 -22.204,21.933c0,0 -35.841,-16.283 -55.254,3.209c-19.417,19.491 -18.487,38.004 -18.487,38.004l391.741,0Z" style="fill:none;fill-rule:nonzero;stroke:#fff;stroke-width:4.17px;"/><path d="M412.686,880.432c0,0 -8.267,-67.396 -74.338,-52.046c0,0 -7.579,-21.333 -32.279,-18.141c0,0 8.4,-49.65 -47.166,-64.896c0,0 -45.046,-7.779 -62.805,39.625c0,0 -26.291,-26.134 -62.929,0.408c0,0 -16.366,14.542 -16.279,31.904c0,0 -14.958,2.271 -22.204,21.938c0,0 -35.838,-16.288 -55.258,3.204c-19.413,19.492 -18.484,38.004 -18.484,38.004l391.742,0Z" style="fill:none;fill-rule:nonzero;stroke:#fff;stroke-width:4.17px;"/></g></svg>