<?xml version="1.0" encoding="UTF-8" standalone="no"?><!DOCTYPE svg PUBLIC "-//W3C//DTD SVG 1.1//EN" "http://www.w3.org/Graphics/SVG/1.1/DTD/svg11.dtd"><svg width="100%" height="100%" viewBox="0 0 2379 561" version="1.1" xmlns="http://www.w3.org/2000/svg" xmlns:xlink="http://www.w3.org/1999/xlink" xml:space="preserve" xmlns:serif="http://www.serif.com/" style="fill-rule:evenodd;clip-rule:evenodd;stroke-linejoin:round;stroke-miterlimit:2;"><path d="M9.461,350.485c-25.554,-90.558 -1.962,-215.029 103.008,-294.55c98.717,-74.787 237.2,-74.22 335.1,-0.458c106.25,80.054 129.434,205.846 104.25,295.129l-104.229,0c0.013,-42.037 -0.1,-84.075 0.121,-126.116c0.029,-5.584 -1.767,-9.409 -5.708,-13.296c-11.35,-11.2 -22.234,-22.867 -33.284,-34.371c-10.25,-10.671 -20.475,-21.367 -30.9,-32.25l-20.425,0l0,-19.079c0.538,-0.054 1.067,-0.067 1.592,-0.059c2.658,0.042 4.875,-2.012 4.875,-4.67l0,-1.93c0,-2.579 -2.096,-4.67 -4.675,-4.67l-52.679,0c-2.579,0 -4.671,2.091 -4.671,4.67l0,1.725c0,2.6 2.042,4.88 4.642,4.859c0.562,-0.004 1.141,0.012 1.737,0.075l0,18.704l-111.133,0c-12.763,13.392 -24.513,25.467 -36.954,39.867c-7.363,8.529 -15.529,16.32 -23.625,24.162c-6.775,6.571 -9.825,13.758 -9.75,23.071c0.296,36.183 0.125,72.367 0.125,108.55l0,10.637l-117.417,0Z" style="fill:#fff;fill-rule:nonzero;"/><path d="M348.011,490.905c4.354,-0.071 6.725,-2.55 6.908,-6.692c0.183,-4.175 -1.971,-6.829 -6.179,-7.391c-1.617,-0.217 -68.704,-0.417 -72.95,-0.067c-2.138,0.179 -4.575,0.967 -6.167,2.313c-2.321,1.954 -2.4,4.991 -1.221,7.733c1.205,2.8 3.48,4.175 6.634,4.162c12,-0.045 64.758,0.071 72.975,-0.058m-23.75,-90.75c2.983,0.021 5.562,-0.583 7.283,-3.179c3.342,-5.046 0.008,-11.196 -6.542,-11.246c-23.804,-0.179 -72.712,0.121 -73.345,0.275c-3.659,0.9 -5.567,3.346 -5.521,7.046c0.054,4.279 2.896,7.017 7.7,7.05c11.037,0.067 58.771,-0.021 70.425,0.054m101.512,29.625l-6.904,0c-12.492,0 -24.979,-0.037 -37.471,0.017c-5.15,0.021 -7.871,2.4 -7.95,6.671c-0.075,4.262 2.725,7.02 7.654,7.029c29.584,0.058 59.171,0.029 88.755,0.025c0.487,0 0.991,0.008 1.475,-0.071c4.57,-0.763 7.062,-4.675 5.637,-9.121c-1.204,-3.762 -4.25,-4.575 -7.808,-4.567c-14.463,0.038 -28.925,0.017 -43.388,0.017m-335.433,-21.704c-5.921,0 -11.842,-0.004 -17.763,0c-8.875,0 -17.758,-0.079 -26.637,0.033c-4.658,0.063 -7.2,2.584 -7.367,6.842c-0.166,4.229 2.234,6.979 6.734,7.583c1.129,0.154 2.295,0.088 3.445,0.088c27.792,0.004 55.588,0.008 83.375,-0.013c1.634,0 3.313,-0.021 4.884,-0.391c3.971,-0.93 6.012,-4.088 5.462,-8.08c-0.529,-3.82 -3.429,-6.037 -8.225,-6.05c-14.633,-0.037 -29.271,-0.012 -43.908,-0.012m84.754,25.379c-1.642,0 -3.296,-0.029 -4.921,0.163c-3.7,0.437 -5.958,3.012 -5.921,6.579c0.038,3.566 2.284,6.004 6.071,6.454c1.463,0.175 2.95,0.167 4.429,0.167c45.021,0.008 90.038,0.008 135.059,-0.009c1.804,0 3.641,0.013 5.4,-0.316c3.058,-0.575 4.954,-3.217 4.925,-6.446c-0.038,-3.213 -2,-5.8 -5.067,-6.321c-1.771,-0.296 -3.6,-0.267 -5.408,-0.267c-22.509,-0.016 -112.221,-0.012 -134.567,-0.004m228.221,99.513c-1.917,-5.684 -6.158,-5.996 -10.854,-5.992c-76.967,0.058 -237.817,-0.746 -242.55,0c-18.688,-9.754 -37.2,-20.358 -55.113,-36.025c2.884,0 71.129,0 103.521,-0.004c6.725,0 10.208,-2.534 10.079,-7.288c-0.125,-4.691 -3.308,-7.004 -9.933,-7.008c-37.492,-0.021 -116.421,-0.013 -118.138,-0.013c-22.979,-18.333 -64.687,-88.629 -65.904,-111.083l533.763,0c-4.492,11.558 -8.729,22.458 -13.059,33.6c-2.412,0 -86.22,-0.017 -126.183,0c-5.937,0.004 -8.979,3.179 -8.104,8.333c0.558,3.292 2.404,5.496 5.833,5.78c1.8,0.15 118.05,0 120.771,0c-11.604,22.366 -26.029,41.854 -42.954,59.916c-10.571,0 -58.567,-0.041 -71.888,0.025c-5.416,0.029 -7.97,2.821 -7.583,7.942c0.25,3.387 2.025,5.483 5.396,6c1.775,0.271 57.521,0.337 59.292,0.337l-0.896,0.984c-19.684,17.716 -41.167,32.808 -65.496,44.496" style="fill:#fff;fill-rule:nonzero;"/><path d="M205.111,241.088c-8.875,0 -17.75,-0.042 -26.625,0.012c-6.079,0.042 -8.329,2.296 -8.346,8.3c-0.029,12.821 -0.029,25.646 0,38.471c0.013,6.254 2.309,8.55 8.671,8.567c17.258,0.037 34.525,0.037 51.783,-0.004c6.267,-0.017 8.625,-2.392 8.642,-8.638c0.042,-12.662 0.038,-25.321 0.004,-37.979c-0.016,-6.558 -2.233,-8.696 -8.971,-8.725c-8.387,-0.033 -16.77,-0.004 -25.158,-0.004m61.65,109.537l-123.958,0l0,-126.345c20.221,-20.955 40.737,-42.205 60.912,-63.105c21.129,21.121 41.784,41.771 63.046,63.025l0,126.425Z" style="fill:#fff;fill-rule:nonzero;"/><path d="M431.592,310.41l0,13.712l-26.475,0c-3.262,0 -5.908,2.646 -5.908,5.908l0,1.992c0,3.263 2.646,5.908 5.908,5.908l26.438,0l0,12.592l-39.525,0c0,-1.817 0.008,-49.358 -0.004,-71.387c-0.004,-9.538 -2.529,-10.33 -14.446,-10.159l-40.2,0c-12.275,-0.033 -14.979,0.496 -14.983,9.95c-0.017,22.029 -0.005,69.625 -0.005,71.629l-41.416,0l0,-12.429l28.279,0c3.262,0 5.908,-2.641 5.908,-5.908l0,-1.863c0,-3.266 -2.646,-5.912 -5.908,-5.912l-28.154,0l0,-14.054l28.162,0c3.263,0 5.909,-2.646 5.909,-5.909l0,-1.904c0,-3.262 -2.646,-5.908 -5.909,-5.908l-28.191,0l0,-13.758l28.062,0c3.271,0 5.913,-2.642 5.913,-5.909l0,-2.208c0,-3.263 -2.642,-5.908 -5.913,-5.908l-28.112,0l0,-13.567l150.816,0l0,13.317l-26.662,0c-3.263,0 -5.909,2.641 -5.909,5.908l0,2.142c0,3.262 2.646,5.908 5.909,5.908l26.337,0l0,13.725l-26.421,0c-3.266,0 -5.908,2.646 -5.908,5.908l0,2.275c0,3.263 2.642,5.909 5.908,5.909l26.5,0Z" style="fill:#fff;fill-rule:nonzero;"/><path d="M179.326,541.479l202.688,0c-67.555,25.741 -135.117,25.746 -202.688,0" style="fill:#fff;fill-rule:nonzero;"/><rect x="336.546" y="324.433" width="41.217" height="26.025" style="fill:#fff;"/><rect x="336.596" y="282.858" width="13.392" height="27.267" style="fill:#fff;"/><rect x="322.679" y="126.275" width="20.413" height="17.9" style="fill:#fff;"/><rect x="364.434" y="282.892" width="13.271" height="27.188" style="fill:#fff;"/><rect x="184.304" y="255.104" width="13.142" height="27.254" style="fill:#fff;"/><rect x="212.009" y="255.292" width="13.096" height="27.254" style="fill:#fff;"/><path d="M420.089,213.303c0.146,-0.371 0.288,-0.742 0.434,-1.113c-17.45,-18.25 -34.9,-36.5 -51.904,-54.279l-146.084,0c18.867,18.871 36.988,36.992 55.8,55.813c4.738,0 104.767,-0.421 141.754,-0.421" style="fill:#fff;fill-rule:nonzero;"/><path d="M431.519,227.17l0,13.213l-150.475,0.77l0,-13.983l150.475,0Z" style="fill:#fff;fill-rule:nonzero;"/><path d="M1551.71,424.032c-1.68,-1.855 -3.645,-3.275 -5.886,-4.253c-2.241,-0.971 -4.663,-1.468 -7.259,-1.468c-4.482,0 -8.073,1.452 -10.771,4.355c-2.699,2.896 -4.048,6.747 -4.048,11.529c0,4.994 1.357,8.908 4.072,11.757c2.714,2.856 6.462,4.276 11.252,4.276c2.659,0 5.042,-0.497 7.133,-1.491c2.083,-0.994 3.929,-2.509 5.507,-4.521l0,12.632c-2.02,1.152 -4.182,2.013 -6.494,2.581c-2.312,0.576 -4.766,0.868 -7.362,0.868c-7.519,0 -13.642,-2.399 -18.385,-7.181c-4.734,-4.797 -7.101,-10.999 -7.101,-18.622c0,-7.717 2.454,-13.942 7.354,-18.684c4.908,-4.735 11.323,-7.102 19.253,-7.102c2.485,0 4.782,0.245 6.873,0.726c2.083,0.497 4.047,1.247 5.862,2.257l0,12.341Z" style="fill:#fff;fill-rule:nonzero;"/><path d="M1600.61,434.496c0,-4.442 -1.436,-8.214 -4.3,-11.299c-2.864,-3.086 -6.376,-4.632 -10.518,-4.632c-4.111,0 -7.615,1.546 -10.495,4.632c-2.88,3.085 -4.324,6.857 -4.324,11.299c0,4.45 1.444,8.222 4.324,11.307c2.88,3.085 6.384,4.632 10.495,4.632c4.119,0 7.614,-1.547 10.494,-4.632c2.88,-3.085 4.324,-6.857 4.324,-11.307m-41.22,-0.103c0,-3.503 0.671,-6.817 1.996,-9.926c1.334,-3.125 3.243,-5.902 5.745,-8.324c2.462,-2.399 5.294,-4.23 8.498,-5.508c3.203,-1.294 6.557,-1.933 10.06,-1.933c3.606,0 7.007,0.639 10.187,1.933c3.196,1.278 6.052,3.164 8.577,5.657c2.533,2.462 4.45,5.24 5.768,8.349c1.318,3.101 1.973,6.352 1.973,9.752c0,3.551 -0.647,6.865 -1.949,9.966c-1.294,3.109 -3.196,5.847 -5.689,8.246c-2.628,2.525 -5.547,4.434 -8.743,5.736c-3.212,1.302 -6.581,1.957 -10.124,1.957c-3.472,0 -6.809,-0.655 -10.013,-1.957c-3.196,-1.302 -6.052,-3.172 -8.545,-5.634c-2.525,-2.501 -4.451,-5.294 -5.768,-8.395c-1.318,-3.101 -1.973,-6.407 -1.973,-9.919" style="fill:#fff;fill-rule:nonzero;"/><path d="M1661.5,434.496c0,-4.442 -1.436,-8.214 -4.3,-11.299c-2.864,-3.086 -6.375,-4.632 -10.518,-4.632c-4.111,0 -7.614,1.546 -10.494,4.632c-2.881,3.085 -4.324,6.857 -4.324,11.299c0,4.45 1.443,8.222 4.324,11.307c2.88,3.085 6.383,4.632 10.494,4.632c4.119,0 7.614,-1.547 10.494,-4.632c2.881,-3.085 4.324,-6.857 4.324,-11.307m-41.22,-0.103c0,-3.503 0.671,-6.817 1.996,-9.926c1.334,-3.125 3.251,-5.902 5.745,-8.324c2.462,-2.399 5.294,-4.23 8.498,-5.508c3.204,-1.294 6.557,-1.933 10.06,-1.933c3.606,0 7.007,0.639 10.187,1.933c3.196,1.278 6.052,3.164 8.577,5.657c2.541,2.462 4.458,5.24 5.776,8.349c1.31,3.101 1.973,6.352 1.973,9.752c0,3.551 -0.655,6.865 -1.949,9.966c-1.294,3.109 -3.204,5.847 -5.697,8.246c-2.628,2.525 -5.547,4.434 -8.743,5.736c-3.211,1.302 -6.581,1.957 -10.124,1.957c-3.471,0 -6.809,-0.655 -10.005,-1.957c-3.203,-1.302 -6.06,-3.172 -8.553,-5.634c-2.525,-2.501 -4.45,-5.294 -5.768,-8.395c-1.318,-3.101 -1.973,-6.407 -1.973,-9.919" style="fill:#fff;fill-rule:nonzero;"/><path d="M1695.34,434.195c0,4.956 1.239,8.917 3.724,11.884c2.47,2.966 5.737,4.45 9.785,4.45c4.142,0 7.362,-1.373 9.634,-4.143c2.273,-2.769 3.409,-6.699 3.409,-11.78c0,-5.066 -1.184,-9.019 -3.567,-11.868c-2.375,-2.84 -5.634,-4.269 -9.784,-4.269c-4.15,0 -7.386,1.381 -9.713,4.143c-2.328,2.77 -3.488,6.628 -3.488,11.583m-10.621,46.681l0,-70.502l10.976,0l0,7.843c1.286,-3.038 3.33,-5.381 6.147,-7.031c2.817,-1.657 6.178,-2.477 10.092,-2.477c6.368,0 11.536,2.343 15.497,7.054c3.961,4.703 5.942,10.881 5.942,18.535c0,8.056 -1.949,14.408 -5.839,19.04c-3.89,4.64 -9.232,6.959 -16.002,6.959c-3.378,0 -6.368,-0.678 -8.98,-2.027c-2.612,-1.35 -4.9,-3.409 -6.857,-6.171l0,28.777l-10.976,0Z" style="fill:#fff;fill-rule:nonzero;"/><path d="M1779.8,428.578c-0.442,-3.44 -1.76,-6.06 -3.946,-7.859c-2.185,-1.807 -5.192,-2.706 -9.003,-2.706c-3.606,0 -6.51,0.875 -8.695,2.627c-2.194,1.76 -3.733,4.403 -4.601,7.938l26.245,0Zm11.378,7.394l-38.333,0c0.269,4.481 1.602,7.977 3.993,10.494c2.399,2.509 5.579,3.764 9.563,3.764c3.535,0 6.486,-0.75 8.846,-2.225c2.367,-1.492 4.41,-3.875 6.17,-7.181l9.256,5.153c-2.699,4.821 -6.037,8.411 -10.013,10.77c-3.985,2.36 -8.648,3.551 -14.006,3.551c-7.693,0 -13.809,-2.343 -18.362,-7.038c-4.552,-4.687 -6.825,-10.944 -6.825,-18.764c0,-7.512 2.344,-13.69 7.054,-18.535c4.703,-4.837 10.739,-7.259 18.133,-7.259c7.725,0 13.737,2.217 18.053,6.628c4.317,4.419 6.471,10.605 6.471,18.566l0,2.076Z" style="fill:#fff;fill-rule:nonzero;"/><path d="M1813.58,418.014c1.176,-3.172 2.746,-5.515 4.68,-7.038c1.941,-1.507 4.347,-2.273 7.211,-2.273c1.547,0 3.07,0.19 4.569,0.561c1.499,0.37 2.983,0.907 4.427,1.617l-3.946,9.303c-0.946,-0.678 -1.964,-1.168 -3.053,-1.491c-1.097,-0.316 -2.32,-0.482 -3.669,-0.482c-3.646,0 -6.258,1.46 -7.836,4.38c-1.586,2.911 -2.383,7.811 -2.383,14.684l0,21.044l-10.975,0l0,-48.038l10.975,0l0,7.733Z" style="fill:#fff;fill-rule:nonzero;"/><path d="M1875.18,434.195c0,-4.955 -1.152,-8.813 -3.456,-11.583c-2.312,-2.762 -5.547,-4.143 -9.69,-4.143c-4.142,0 -7.409,1.429 -9.784,4.269c-2.383,2.849 -3.567,6.802 -3.567,11.868c0,5.081 1.145,9.011 3.433,11.78c2.296,2.77 5.531,4.143 9.713,4.143c3.945,0 7.157,-1.499 9.634,-4.498c2.478,-3.006 3.717,-6.951 3.717,-11.836m10.676,24.13l-10.976,0l0,-6.226c-1.957,2.762 -4.237,4.821 -6.857,6.171c-2.612,1.349 -5.602,2.027 -8.979,2.027c-6.77,0 -12.104,-2.319 -16.002,-6.959c-3.89,-4.632 -5.839,-10.984 -5.839,-19.04c0,-7.654 1.98,-13.832 5.965,-18.535c3.977,-4.711 9.169,-7.054 15.576,-7.054c3.914,0 7.259,0.813 10.037,2.446c2.785,1.641 4.813,3.993 6.099,7.062l0,-7.843l10.976,0l0,47.951Z" style="fill:#fff;fill-rule:nonzero;"/><path d="M760.43,160.9l-4.695,26.986c-15.836,-0.292 -30.504,-0.584 -41.354,-0.584c-26.102,0 -34.9,8.798 -34.9,40.77c0,31.965 8.798,40.771 34.9,40.771c9.09,0 27.57,-0.3 44.29,-2.643l3.819,28.153c-15.553,6.747 -36.376,9.682 -56.031,9.682c-53.08,0 -72.443,-20.247 -72.443,-75.963c0,-56.023 19.663,-76.262 73.035,-76.262c14.96,0 37.543,2.044 53.379,9.09" style="fill:#fff;fill-rule:nonzero;"/><path d="M908.278,109.28l-65.988,31.972l-12.909,-18.479l58.958,-43.406l19.939,29.913Zm-82.117,119.084c0,34.608 6.155,43.406 29.03,43.406c22.298,0 28.745,-8.798 28.745,-43.406c0,-35.2 -6.447,-43.997 -28.745,-43.997c-22.875,0 -29.03,8.797 -29.03,43.997m103.24,0c0,55.424 -20.239,75.963 -74.21,75.963c-54.256,0 -74.495,-20.539 -74.495,-75.963c0,-55.739 20.239,-76.554 74.495,-76.554c53.971,0 74.21,20.815 74.21,76.554" style="fill:#fff;fill-rule:nonzero;"/><path d="M1021.81,268.247c12.901,0 19.939,-3.803 32.264,-11.733l0,-66.865c-10.565,-2.935 -18.772,-5.578 -30.797,-5.578c-18.479,0 -25.518,6.154 -25.518,42.53c0,34.608 7.039,41.646 24.051,41.646m75.67,-173.048l0,205.313l-34.316,0l-3.227,-21.407c-11.726,13.485 -29.913,24.926 -55.431,24.926c-36.96,0 -51.329,-27.862 -51.329,-77.13c0,-57.783 19.064,-75.095 55.432,-75.095c17.012,0 33.732,3.819 46.925,12.909c-0.876,-9.682 -1.46,-19.655 -1.46,-30.205l0,-39.311l43.406,0Z" style="fill:#fff;fill-rule:nonzero;"/><path d="M1177.58,300.508l-43.114,0l0,-144.595l43.114,0l0,144.595Zm0.584,-195.923l0,15.836c0,8.514 -4.103,12.617 -12.609,12.617l-19.356,0c-8.514,0 -12.617,-4.103 -12.617,-12.617l0,-15.836c0,-8.214 4.103,-12.609 12.617,-12.609l19.356,0c8.506,0 12.609,4.395 12.609,12.609" style="fill:#fff;fill-rule:nonzero;"/><path d="M1305.47,198.149c0,-14.369 -6.447,-18.48 -27.862,-18.48c-21.415,0 -28.161,4.111 -28.161,18.48c0,14.077 6.746,18.78 28.161,18.78c21.415,0 27.862,-4.703 27.862,-18.78m-14.96,96.794l-36.368,-4.111c-6.455,5.578 -9.382,9.681 -9.382,17.012c0,14.376 6.447,16.428 34.308,16.428c28.454,0 35.2,-2.651 35.2,-15.837c0,-10.557 -5.279,-11.449 -23.758,-13.492m69.807,-119.969l-17.887,2.352c2.335,5.862 3.219,12.609 3.219,20.823c0,33.148 -17.004,46.349 -68.041,46.349c-9.389,0 -17.895,-0.592 -25.234,-1.475c-3.511,6.162 -2.335,15.844 8.806,17.312l52.504,6.146c30.205,3.527 41.931,17.02 41.931,43.122c0,37.551 -20.232,46.925 -75.955,46.925c-60.134,0 -76.262,-10.849 -76.262,-43.114c0,-14.66 6.162,-23.458 22.882,-31.372c-13.493,-12.625 -9.389,-36.076 4.695,-44.598c-15.26,-7.03 -21.415,-19.648 -21.415,-39.003c0,-33.724 17.304,-46.633 68.34,-46.633c15.837,0 28.446,1.167 38.42,4.103l46.049,0l-2.052,19.063Z" style="fill:#fff;fill-rule:nonzero;"/><path d="M1421.94,228.363c0,34.608 6.154,43.406 29.045,43.406c22.283,0 28.737,-8.798 28.737,-43.406c0,-35.2 -6.454,-43.998 -28.737,-43.998c-22.891,0 -29.045,8.798 -29.045,43.998m103.248,0c0,55.423 -20.24,75.962 -74.203,75.962c-54.264,0 -74.503,-20.539 -74.503,-75.962c0,-55.731 20.239,-76.555 74.503,-76.555c53.963,0 74.203,20.824 74.203,76.555" style="fill:#fff;fill-rule:nonzero;"/><path d="M1777.74,191.992l0,108.519l-43.115,0l0,-95.026c0,-12.325 -3.519,-17.012 -15.252,-17.012c-9.682,0 -16.428,3.227 -32.257,12.893l0,99.145l-41.654,0l0,-95.026c0,-12.909 -4.687,-17.012 -15.544,-17.012c-9.39,0 -16.129,2.927 -31.973,12.609l0,99.429l-43.114,0l0,-144.595l34.616,0l2.927,21.115c18.188,-16.428 34.908,-25.226 55.14,-25.226c19.355,0 31.972,7.922 37.251,23.467c17.012,-15.844 33.432,-23.467 52.796,-23.467c26.102,0 40.179,14.077 40.179,40.187" style="fill:#fff;fill-rule:nonzero;"/><path d="M1856.67,300.508l-43.114,0l0,-144.595l43.114,0l0,144.595Zm0.592,-195.923l0,15.836c0,8.514 -4.111,12.617 -12.617,12.617l-19.356,0c-8.506,0 -12.617,-4.103 -12.617,-12.617l0,-15.836c0,-8.214 4.111,-12.609 12.617,-12.609l19.356,0c8.506,0 12.617,4.395 12.617,12.609" style="fill:#fff;fill-rule:nonzero;"/><path d="M1444.78,448.466c5.649,0.04 10.541,-1.112 13.792,-6.028c6.336,-9.548 0.016,-21.194 -12.388,-21.289c-45.079,-0.339 -800.498,0.221 -801.698,0.521c-6.935,1.696 -10.549,6.336 -10.463,13.343c0.103,8.103 5.484,13.288 14.59,13.343c20.902,0.134 774.097,-0.032 796.167,0.11" style="fill:#fff;fill-rule:nonzero;"/><path d="M1903.61,458.322l0,-38.332l-8.395,0l0,-9.611l8.395,0l0,-18.156l10.976,0l0,18.156l8.388,0l0,9.611l-8.388,0l0,38.332l-10.976,0Z" style="fill:#fff;fill-rule:nonzero;"/><path d="M1932.94,410.376l10.983,0l0,47.943l-10.983,0l0,-47.943Zm-1.468,-20.736c0,-1.855 0.686,-3.456 2.051,-4.806c1.366,-1.349 2.991,-2.02 4.877,-2.02c1.957,0 3.582,0.647 4.876,1.941c1.302,1.302 1.949,2.928 1.949,4.885c0,1.957 -0.655,3.598 -1.972,4.931c-1.31,1.334 -2.928,1.997 -4.853,1.997c-1.886,0 -3.511,-0.687 -4.877,-2.052c-1.365,-1.357 -2.051,-2.983 -2.051,-4.876" style="fill:#fff;fill-rule:nonzero;"/><path d="M1976.43,461.204l-25.14,-50.823l11.986,0l10.471,24.113c0.339,0.75 0.741,1.863 1.207,3.346c0.481,1.483 0.971,3.251 1.476,5.31c0.331,-1.451 0.733,-2.895 1.183,-4.324c0.458,-1.436 1.002,-2.872 1.641,-4.332l10.424,-24.113l11.93,0l-25.178,50.823Z" style="fill:#fff;fill-rule:nonzero;"/><path d="M2042.93,434.195c0,-4.955 -1.152,-8.813 -3.456,-11.583c-2.312,-2.762 -5.547,-4.143 -9.69,-4.143c-4.142,0 -7.409,1.429 -9.784,4.269c-2.383,2.849 -3.567,6.802 -3.567,11.868c0,5.081 1.144,9.011 3.433,11.78c2.296,2.77 5.531,4.143 9.721,4.143c3.937,0 7.149,-1.499 9.626,-4.498c2.478,-3.006 3.717,-6.951 3.717,-11.836m10.676,24.13l-10.976,0l0,-6.226c-1.957,2.762 -4.237,4.821 -6.849,6.171c-2.62,1.349 -5.61,2.027 -8.979,2.027c-6.778,0 -12.112,-2.319 -16.01,-6.959c-3.89,-4.632 -5.839,-10.984 -5.839,-19.04c0,-7.654 1.98,-13.832 5.965,-18.535c3.977,-4.711 9.169,-7.054 15.576,-7.054c3.914,0 7.259,0.813 10.037,2.446c2.785,1.641 4.821,3.993 6.099,7.062l0,-7.843l10.976,0l0,47.951Z" style="fill:#fff;fill-rule:nonzero;"/><path d="M2134.47,434.195c0,-4.955 -1.152,-8.813 -3.464,-11.583c-2.312,-2.762 -5.547,-4.143 -9.689,-4.143c-4.143,0 -7.402,1.429 -9.785,4.269c-2.375,2.849 -3.566,6.802 -3.566,11.868c0,5.081 1.144,9.011 3.44,11.78c2.288,2.77 5.524,4.143 9.713,4.143c3.977,0 7.197,-1.491 9.651,-4.474c2.469,-2.983 3.7,-6.936 3.7,-11.86m-0.307,-54.263l10.975,0l0,78.393l-10.975,0l0,-6.226c-1.957,2.762 -4.238,4.821 -6.849,6.171c-2.612,1.349 -5.611,2.027 -8.98,2.027c-6.778,0 -12.112,-2.319 -16.002,-6.959c-3.898,-4.632 -5.839,-10.984 -5.839,-19.04c0,-7.654 1.981,-13.832 5.957,-18.535c3.977,-4.711 9.169,-7.054 15.584,-7.054c3.906,0 7.252,0.813 10.029,2.446c2.786,1.641 4.821,3.993 6.1,7.062l0,-38.285Z" style="fill:#fff;fill-rule:nonzero;"/><path d="M2160.82,410.376l10.976,0l0,47.943l-10.976,0l0,-47.943Zm-1.468,-20.736c0,-1.855 0.679,-3.456 2.044,-4.806c1.373,-1.349 2.999,-2.02 4.884,-2.02c1.957,0 3.583,0.647 4.877,1.941c1.302,1.302 1.949,2.928 1.949,4.885c0,1.957 -0.655,3.598 -1.973,4.931c-1.318,1.334 -2.935,1.997 -4.853,1.997c-1.885,0 -3.511,-0.687 -4.884,-2.052c-1.365,-1.357 -2.044,-2.983 -2.044,-4.876" style="fill:#fff;fill-rule:nonzero;"/><path d="M2221.91,434.195c0,-4.955 -1.153,-8.813 -3.457,-11.583c-2.311,-2.762 -5.547,-4.143 -9.689,-4.143c-4.143,0 -7.409,1.429 -9.784,4.269c-2.383,2.849 -3.567,6.802 -3.567,11.868c0,5.081 1.144,9.011 3.432,11.78c2.297,2.77 5.532,4.143 9.722,4.143c3.945,0 7.148,-1.499 9.626,-4.498c2.486,-3.006 3.717,-6.951 3.717,-11.836m10.675,21.139c0,9.374 -1.877,15.971 -5.61,19.798c-3.748,3.834 -10.052,5.744 -18.921,5.744c-6.613,0 -11.884,-1.397 -15.829,-4.174c-3.945,-2.785 -5.957,-6.486 -6.012,-11.102l11.78,-0.047c0.166,2.051 1.121,3.629 2.88,4.702c1.76,1.081 4.214,1.618 7.386,1.618c4.679,0 8.056,-1.026 10.116,-3.085c2.059,-2.06 3.093,-5.492 3.132,-10.321l0.103,-6.368c-1.957,2.762 -4.238,4.821 -6.849,6.171c-2.612,1.349 -5.611,2.027 -8.98,2.027c-6.778,0 -12.112,-2.319 -16.01,-6.959c-3.89,-4.632 -5.839,-10.984 -5.839,-19.04c0,-7.654 1.989,-13.832 5.965,-18.535c3.977,-4.711 9.169,-7.054 15.576,-7.054c3.914,0 7.26,0.813 10.037,2.446c2.786,1.641 4.821,3.993 6.1,7.062l0,-7.843l10.975,0l0,44.96Z" style="fill:#fff;fill-rule:nonzero;"/><path d="M2248.27,410.376l10.976,0l0,47.943l-10.976,0l0,-47.943Zm-1.475,-20.736c0,-1.855 0.686,-3.456 2.051,-4.806c1.365,-1.349 2.999,-2.02 4.885,-2.02c1.949,0 3.574,0.647 4.876,1.941c1.294,1.302 1.949,2.928 1.949,4.885c0,1.957 -0.663,3.598 -1.973,4.931c-1.317,1.334 -2.935,1.997 -4.852,1.997c-1.886,0 -3.52,-0.687 -4.885,-2.052c-1.365,-1.357 -2.051,-2.983 -2.051,-4.876" style="fill:#fff;fill-rule:nonzero;"/><path d="M2277.49,458.322l0,-38.332l-8.388,0l0,-9.611l8.388,0l0,-18.156l10.976,0l0,18.156l8.395,0l0,9.611l-8.395,0l0,38.332l-10.976,0Z" style="fill:#fff;fill-rule:nonzero;"/><path d="M2340.76,434.195c0,-4.955 -1.152,-8.813 -3.464,-11.583c-2.312,-2.762 -5.539,-4.143 -9.689,-4.143c-4.143,0 -7.402,1.429 -9.785,4.269c-2.375,2.849 -3.558,6.802 -3.558,11.868c0,5.081 1.136,9.011 3.432,11.78c2.288,2.77 5.531,4.143 9.713,4.143c3.946,0 7.157,-1.499 9.627,-4.498c2.485,-3.006 3.724,-6.951 3.724,-11.836m10.676,24.13l-10.984,0l0,-6.226c-1.948,2.762 -4.237,4.821 -6.849,6.171c-2.611,1.349 -5.602,2.027 -8.979,2.027c-6.77,0 -12.112,-2.319 -16.002,-6.959c-3.89,-4.632 -5.839,-10.984 -5.839,-19.04c0,-7.654 1.98,-13.832 5.957,-18.535c3.985,-4.711 9.169,-7.054 15.584,-7.054c3.906,0 7.259,0.813 10.037,2.446c2.785,1.641 4.813,3.993 6.091,7.062l0,-7.843l10.984,0l0,47.951Z" style="fill:#fff;fill-rule:nonzero;"/><path d="M2034.13,191.992l0,108.519l-43.114,0l0,-95.026c0,-13.201 -3.511,-17.012 -14.076,-17.012c-12.026,0 -23.175,4.395 -40.471,13.201l0.292,98.837l-43.414,0l0,-144.595l35.192,0l3.227,21.415c19.947,-16.428 41.07,-25.526 61.886,-25.526c26.402,0 40.478,14.077 40.478,40.187" style="fill:#fff;fill-rule:nonzero;"/><path d="M2160.27,198.149c0,-14.369 -6.446,-18.48 -27.861,-18.48c-21.415,0 -28.162,4.111 -28.162,18.48c0,14.077 6.747,18.78 28.162,18.78c21.415,0 27.861,-4.703 27.861,-18.78m-14.96,96.794l-36.368,-4.111c-6.454,5.578 -9.382,9.681 -9.382,17.012c0,14.376 6.455,16.428 34.308,16.428c28.462,0 35.2,-2.651 35.2,-15.837c0,-10.557 -5.278,-11.449 -23.758,-13.492m69.808,-119.969l-17.888,2.352c2.343,5.862 3.219,12.609 3.219,20.823c0,33.148 -17.004,46.349 -68.04,46.349c-9.39,0 -17.896,-0.592 -25.226,-1.475c-3.528,6.162 -2.336,15.844 8.805,17.312l52.489,6.146c30.22,3.527 41.938,17.02 41.938,43.122c0,37.551 -20.232,46.925 -75.955,46.925c-60.126,0 -76.262,-10.849 -76.262,-43.114c0,-14.66 6.17,-23.458 22.883,-31.372c-13.493,-12.625 -9.382,-36.076 4.694,-44.598c-15.26,-7.03 -21.407,-19.648 -21.407,-39.003c0,-33.724 17.304,-46.633 68.333,-46.633c15.836,0 28.453,1.167 38.427,4.103l46.049,0l-2.059,19.063Z" style="fill:#fff;fill-rule:nonzero;"/><path d="M2290.23,271.476c9.981,0 23.766,-4.695 36.083,-14.077l0,-20.239l-39.011,0c-10.557,0.292 -14.077,5.571 -14.077,13.777l0,5.579c0,10.265 5.287,14.96 17.005,14.96m79.481,-66.581l0,95.618l-34.308,0l-4.403,-21.999c-10.265,12.026 -27.853,25.519 -53.379,25.519c-26.986,0 -47.218,-14.669 -47.218,-41.647l0,-14.676c0,-23.167 16.713,-36.652 44.282,-36.652l51.628,0l0,-6.462c-0.292,-14.661 -5.286,-18.764 -23.758,-18.764c-13.785,0 -37.836,0.884 -61.01,2.343l-4.103,-29.321c21.107,-3.819 55.139,-7.046 75.378,-7.046c37.244,0 56.891,12.325 56.891,53.087" style="fill:#fff;fill-rule:nonzero;"/><rect x="2367.11" y="379.934" width="10.976" height="78.393" style="fill:#fff;"/></svg>