<?xml version="1.0" encoding="UTF-8" standalone="no"?><!DOCTYPE svg PUBLIC "-//W3C//DTD SVG 1.1//EN" "http://www.w3.org/Graphics/SVG/1.1/DTD/svg11.dtd"><svg width="100%" height="100%" viewBox="0 0 3054 565" version="1.1" xmlns="http://www.w3.org/2000/svg" xmlns:xlink="http://www.w3.org/1999/xlink" xml:space="preserve" xmlns:serif="http://www.serif.com/" style="fill-rule:evenodd;clip-rule:evenodd;stroke-linejoin:round;stroke-miterlimit:2;"><path d="M112.467,59.572c-104.966,79.525 -128.558,203.992 -103.008,294.55l117.417,0l0,-10.633c0,-36.183 0.17,-72.371 -0.125,-108.55c-0.071,-9.313 2.975,-16.5 9.754,-23.071c8.091,-7.846 16.258,-15.637 23.625,-24.167c12.437,-14.4 24.187,-26.475 36.954,-39.866l111.133,0l0,-18.7c-0.6,-0.063 -1.179,-0.084 -1.737,-0.079c-2.6,0.02 -4.642,-2.255 -4.642,-4.85l0,-1.73c0,-2.583 2.092,-4.675 4.671,-4.675l52.675,0c2.579,0 4.675,2.092 4.675,4.675l0,1.93c0,2.654 -2.213,4.708 -4.871,4.666c-0.529,-0.008 -1.058,0.004 -1.592,0.063l0,19.071l20.421,0c10.429,10.891 20.659,21.587 30.904,32.254c11.05,11.504 21.934,23.171 33.284,34.371c3.941,3.891 5.737,7.716 5.704,13.295c-0.221,42.038 -0.104,84.08 -0.117,126.117l0,0.004l104.221,0c25.192,-89.287 2.008,-215.079 -104.242,-295.133c-48.966,-36.892 -108.091,-55.475 -167.312,-55.475c-59.175,0 -118.45,18.554 -167.792,55.933Z" style="fill:url(#_Linear1);fill-rule:nonzero;"/><path d="M14.426,369.193c1.216,22.454 42.925,92.75 65.9,111.083c1.72,0 80.645,-0.004 118.141,0.013c6.625,0.004 9.809,2.317 9.929,7.008c0.134,4.754 -3.354,7.288 -10.075,7.292l-103.52,0c17.912,15.671 36.42,26.271 55.112,36.025c3.029,-0.475 70.096,-0.317 138.146,-0.154c38.204,0.091 76.725,0.175 104.4,0.154c4.7,-0.004 8.942,0.312 10.858,5.992c24.325,-11.688 45.804,-26.78 65.496,-44.496l0.892,-0.984c-1.767,0 -57.517,-0.066 -59.292,-0.337c-3.367,-0.513 -5.142,-2.608 -5.4,-6c-0.387,-5.121 2.175,-7.913 7.592,-7.942c13.316,-0.066 61.316,-0.025 71.887,-0.025c16.925,-18.062 31.35,-37.546 42.954,-59.916c-2.72,0 -118.97,0.145 -120.775,0c-3.429,-0.28 -5.27,-2.484 -5.829,-5.78c-0.875,-5.154 2.163,-8.333 8.104,-8.333c39.963,-0.012 123.771,0 126.184,0c4.329,-11.142 8.566,-22.042 13.058,-33.6l-533.762,0Zm239.416,34.546c-4.808,-0.033 -7.65,-2.771 -7.704,-7.054c-0.046,-3.696 1.858,-6.142 5.521,-7.042c0.633,-0.154 49.542,-0.454 73.337,-0.275c6.55,0.05 9.888,6.2 6.546,11.246c-1.721,2.592 -4.304,3.2 -7.279,3.183c-6.033,-0.037 -21.712,-0.033 -36.975,-0.029l-13.146,0c-9.021,0 -16.662,-0.004 -20.3,-0.029Zm-208.537,22.437c-4.496,-0.608 -6.9,-3.358 -6.729,-7.587c0.166,-4.258 2.708,-6.783 7.366,-6.842c6.213,-0.075 12.429,-0.062 18.642,-0.046l39.121,0.009c10.183,-0.004 20.362,-0.004 30.546,0.016c4.791,0.013 7.691,2.23 8.22,6.05c0.555,3.992 -1.491,7.15 -5.458,8.08c-1.571,0.375 -3.25,0.391 -4.883,0.391c-27.792,0.021 -55.588,0.021 -83.379,0.017l-3.446,-0.088Zm423.858,7.225c3.554,-0.004 6.604,0.805 7.808,4.567c1.421,4.446 -1.066,8.358 -5.637,9.121c-0.483,0.083 -0.988,0.071 -1.479,0.071c-29.584,0.004 -59.167,0.033 -88.75,-0.025c-4.934,-0.009 -7.729,-2.763 -7.654,-7.029c0.079,-4.271 2.8,-6.646 7.95,-6.671c12.487,-0.054 24.979,-0.017 37.47,-0.017l30.567,0.008c6.575,0 13.15,-0.008 19.725,-0.025Zm-294.071,3.692c22.35,-0.008 112.059,-0.008 134.571,0.004c1.8,0.004 3.638,-0.029 5.404,0.271c3.071,0.521 5.034,3.108 5.067,6.317c0.033,3.229 -1.863,5.871 -4.921,6.446c-1.762,0.329 -3.596,0.32 -5.4,0.32c-45.021,0.017 -90.042,0.013 -135.058,0.005c-1.479,0 -2.967,0.008 -4.429,-0.163c-3.784,-0.45 -6.034,-2.892 -6.075,-6.458c-0.038,-3.567 2.22,-6.138 5.925,-6.579c1.391,-0.163 2.808,-0.163 4.212,-0.163l0.704,0Zm93.309,53.342c-1.171,-2.738 -1.096,-5.775 1.225,-7.729c1.591,-1.346 4.029,-2.134 6.162,-2.313c4.246,-0.346 71.333,-0.15 72.954,0.067c4.204,0.558 6.363,3.221 6.179,7.387c-0.183,4.146 -2.554,6.629 -6.912,6.696c-4.958,0.083 -26.146,0.067 -44.804,0.054l-28.217,0c-3.129,0 -5.387,-1.375 -6.587,-4.162Z" style="fill:url(#_Linear2);fill-rule:nonzero;"/><path d="M142.805,227.918l0,126.342l123.958,0l0,-126.421c-21.262,-21.254 -41.917,-41.904 -63.046,-63.021c-20.175,20.896 -40.691,42.15 -60.912,63.1Zm36.004,72.154c-6.358,-0.012 -8.654,-2.312 -8.667,-8.562c-0.033,-12.825 -0.033,-25.65 0,-38.475c0.017,-6 2.267,-8.259 8.346,-8.292c8.875,-0.062 17.75,-0.017 26.625,-0.017c8.383,0 16.775,-0.029 25.154,0.005c6.742,0.033 8.954,2.17 8.975,8.725c0.034,12.654 0.038,25.32 0,37.979c-0.025,6.246 -2.383,8.621 -8.646,8.637c-8.445,0.021 -16.887,0.034 -25.333,0.034c-8.817,0 -17.637,-0.013 -26.454,-0.034Z" style="fill:url(#_Linear3);fill-rule:nonzero;"/><path d="M281.026,258.956l0,13.566l28.112,0c3.263,0 5.904,2.65 5.904,5.913l0,2.208c0,3.263 -2.641,5.908 -5.904,5.908l-28.067,0l0,13.755l28.188,0c3.267,0 5.912,2.645 5.912,5.908l0,1.908c0,3.263 -2.645,5.909 -5.912,5.909l-28.154,0l0,14.054l28.146,0c3.262,0 5.912,2.641 5.912,5.908l0,1.867c0,3.262 -2.65,5.908 -5.912,5.908l-28.275,0l0,12.425l41.416,0c0,-2 -0.008,-49.596 0.004,-71.629c0.005,-9.45 2.713,-9.979 14.984,-9.95l40.204,0c11.917,-0.171 14.442,0.621 14.442,10.158c0.012,22.034 0.004,69.575 0.004,71.388l39.525,0l0,-12.592l-26.442,0c-3.262,0 -5.904,-2.642 -5.904,-5.908l0,-1.988c0,-3.262 2.642,-5.912 5.904,-5.912l26.475,0l0,-13.709l-26.496,0c-3.262,0 -5.908,-2.65 -5.908,-5.912l0,-2.271c0,-3.267 2.646,-5.908 5.908,-5.908l26.425,0l0,-13.725l-26.337,0c-3.263,0 -5.913,-2.65 -5.913,-5.917l0,-2.137c0,-3.259 2.65,-5.913 5.913,-5.913l26.658,0l0,-13.312l-150.812,0Z" style="fill:url(#_Linear4);fill-rule:nonzero;"/><path d="M179.33,545.114c67.566,25.75 135.129,25.746 202.687,0l-202.687,0Z" style="fill:url(#_Linear5);fill-rule:nonzero;"/><rect x="336.542" y="328.072" width="41.213" height="26.025" style="fill:url(#_Linear6);"/><rect x="336.601" y="286.497" width="13.392" height="27.271" style="fill:url(#_Linear7);"/><rect x="322.676" y="129.914" width="20.421" height="17.9" style="fill:url(#_Linear8);"/><rect x="364.434" y="286.526" width="13.267" height="27.196" style="fill:url(#_Linear9);"/><rect x="184.305" y="258.743" width="13.142" height="27.254" style="fill:url(#_Linear10);"/><rect x="212.009" y="258.931" width="13.092" height="27.254" style="fill:url(#_Linear11);"/><path d="M222.534,161.551c18.871,18.871 36.987,36.992 55.796,55.809c4.741,0 104.771,-0.417 141.762,-0.417c0.138,-0.371 0.288,-0.742 0.434,-1.112c-17.455,-18.25 -34.905,-36.5 -51.905,-54.28l-146.087,0Z" style="fill:url(#_Linear12);fill-rule:nonzero;"/><path d="M281.042,230.81l0,13.987l150.475,-0.775l0,-13.212l-150.475,0Z" style="fill:url(#_Linear13);fill-rule:nonzero;"/><path d="M1912.14,475.93c-2.331,-2.56 -5.034,-4.511 -8.128,-5.862c-3.094,-1.351 -6.439,-2.037 -10.024,-2.037c-6.189,0 -11.146,2.005 -14.873,6.014c-3.726,3.999 -5.589,9.316 -5.589,15.919c0,6.897 1.874,12.301 5.622,16.235c3.737,3.944 8.924,5.905 15.526,5.905c3.683,0 6.974,-0.686 9.861,-2.059c2.877,-1.373 5.426,-3.465 7.605,-6.243l0,17.444c-2.789,1.59 -5.774,2.778 -8.967,3.563c-3.192,0.806 -6.581,1.198 -10.166,1.198c-10.383,0 -18.838,-3.312 -25.387,-9.915c-6.548,-6.625 -9.806,-15.189 -9.806,-25.703c0,-10.656 3.378,-19.264 10.155,-25.812c6.777,-6.537 15.635,-9.806 26.575,-9.806c3.443,0 6.613,0.338 9.501,1.002c2.876,0.687 5.589,1.722 8.095,3.127l0,17.03Z" style="fill:#1d1d1b;fill-rule:nonzero;"/><path d="M1979.67,490.39c0,-6.145 -1.983,-11.353 -5.938,-15.614c-3.955,-4.26 -8.804,-6.395 -14.524,-6.395c-5.677,0 -10.514,2.135 -14.491,6.395c-3.977,4.261 -5.971,9.469 -5.971,15.614c0,6.134 1.994,11.342 5.971,15.603c3.977,4.26 8.814,6.395 14.491,6.395c5.688,0 10.514,-2.135 14.491,-6.395c3.977,-4.261 5.971,-9.469 5.971,-15.603m-56.919,-0.153c0,-4.837 0.915,-9.413 2.757,-13.706c1.841,-4.315 4.478,-8.15 7.932,-11.495c3.388,-3.313 7.311,-5.84 11.734,-7.606c4.413,-1.776 9.055,-2.669 13.892,-2.669c4.98,0 9.676,0.893 14.067,2.669c4.412,1.766 8.346,4.37 11.843,7.813c3.498,3.399 6.146,7.234 7.965,11.527c1.809,4.282 2.724,8.771 2.724,13.467c0,4.904 -0.893,9.48 -2.691,13.762c-1.787,4.293 -4.413,8.074 -7.856,11.386c-3.639,3.486 -7.66,6.134 -12.083,7.921c-4.424,1.809 -9.076,2.702 -13.969,2.702c-4.794,0 -9.403,-0.893 -13.826,-2.702c-4.424,-1.787 -8.357,-4.38 -11.8,-7.78c-3.487,-3.453 -6.156,-7.311 -7.965,-11.593c-1.82,-4.282 -2.724,-8.847 -2.724,-13.696" style="fill:#1d1d1b;fill-rule:nonzero;"/><path d="M2063.75,490.39c0,-6.145 -1.983,-11.353 -5.938,-15.614c-3.955,-4.26 -8.804,-6.395 -14.524,-6.395c-5.677,0 -10.514,2.135 -14.491,6.395c-3.977,4.261 -5.971,9.469 -5.971,15.614c0,6.134 1.994,11.342 5.971,15.603c3.977,4.26 8.814,6.395 14.491,6.395c5.688,0 10.514,-2.135 14.491,-6.395c3.977,-4.261 5.971,-9.469 5.971,-15.603m-56.919,-0.153c0,-4.837 0.915,-9.413 2.757,-13.706c1.841,-4.315 4.478,-8.15 7.932,-11.495c3.388,-3.313 7.311,-5.84 11.734,-7.606c4.413,-1.776 9.055,-2.669 13.892,-2.669c4.98,0 9.676,0.893 14.067,2.669c4.413,1.766 8.357,4.37 11.843,7.813c3.498,3.399 6.156,7.234 7.965,11.527c1.82,4.282 2.724,8.771 2.724,13.467c0,4.904 -0.893,9.48 -2.68,13.762c-1.798,4.293 -4.424,8.074 -7.867,11.386c-3.628,3.486 -7.66,6.134 -12.083,7.921c-4.424,1.809 -9.076,2.702 -13.969,2.702c-4.794,0 -9.403,-0.893 -13.826,-2.702c-4.413,-1.787 -8.357,-4.38 -11.8,-7.78c-3.487,-3.453 -6.156,-7.311 -7.965,-11.593c-1.82,-4.282 -2.724,-8.847 -2.724,-13.696" style="fill:#1d1d1b;fill-rule:nonzero;"/><path d="M2110.47,489.965c0,6.843 1.711,12.312 5.143,16.409c3.41,4.108 7.91,6.145 13.511,6.145c5.72,0 10.154,-1.896 13.303,-5.72c3.138,-3.824 4.707,-9.25 4.707,-16.267c0,-6.995 -1.634,-12.454 -4.925,-16.377c-3.279,-3.933 -7.79,-5.905 -13.51,-5.905c-5.731,0 -10.199,1.907 -13.413,5.72c-3.214,3.825 -4.816,9.153 -4.816,15.995m-14.666,64.459l0,-97.353l15.156,0l0,10.83c1.766,-4.195 4.598,-7.431 8.488,-9.708c3.89,-2.288 8.521,-3.421 13.936,-3.421c8.793,0 15.918,3.236 21.399,9.741c5.47,6.494 8.204,15.025 8.204,25.594c0,11.124 -2.691,19.895 -8.062,26.291c-5.383,6.407 -12.748,9.61 -22.108,9.61c-4.652,0 -8.782,-0.937 -12.399,-2.8c-3.607,-1.863 -6.755,-4.707 -9.458,-8.51l0,39.726l-15.156,0Z" style="fill:#1d1d1b;fill-rule:nonzero;"/><path d="M2227.1,482.218c-0.61,-4.761 -2.43,-8.379 -5.448,-10.863c-3.029,-2.495 -7.169,-3.737 -12.432,-3.737c-4.99,0 -8.989,1.209 -12.007,3.628c-3.029,2.43 -5.154,6.08 -6.363,10.972l36.25,0Zm15.701,10.199l-52.921,0c0.371,6.188 2.201,11.015 5.513,14.491c3.313,3.465 7.704,5.197 13.195,5.197c4.892,0 8.967,-1.035 12.225,-3.072c3.258,-2.06 6.091,-5.35 8.521,-9.916l12.78,7.115c-3.726,6.658 -8.335,11.626 -13.837,14.873c-5.492,3.269 -11.931,4.903 -19.34,4.903c-10.613,0 -19.057,-3.236 -25.344,-9.719c-6.286,-6.472 -9.424,-15.101 -9.424,-25.899c0,-10.384 3.236,-18.915 9.729,-25.605c6.505,-6.679 14.84,-10.024 25.039,-10.024c10.667,0 18.969,3.062 24.929,9.152c5.96,6.102 8.935,14.644 8.935,25.638l0,2.866Z" style="fill:#1d1d1b;fill-rule:nonzero;"/><path d="M2273.75,467.62c1.623,-4.369 3.781,-7.605 6.461,-9.708c2.68,-2.092 5.993,-3.149 9.948,-3.149c2.146,0 4.249,0.262 6.319,0.774c2.07,0.512 4.108,1.264 6.102,2.244l-5.437,12.835c-1.308,-0.926 -2.713,-1.612 -4.228,-2.048c-1.514,-0.447 -3.192,-0.675 -5.055,-0.675c-5.034,0 -8.641,2.015 -10.831,6.047c-2.179,4.02 -3.279,10.786 -3.279,20.277l0,29.058l-15.156,0l0,-66.333l15.156,0l0,10.678Z" style="fill:#1d1d1b;fill-rule:nonzero;"/><path d="M2358.81,489.965c0,-6.842 -1.591,-12.17 -4.783,-15.995c-3.181,-3.813 -7.649,-5.72 -13.38,-5.72c-5.72,0 -10.22,1.972 -13.511,5.905c-3.279,3.923 -4.914,9.382 -4.914,16.377c0,7.017 1.58,12.443 4.74,16.267c3.171,3.824 7.638,5.72 13.413,5.72c5.448,0 9.882,-2.07 13.292,-6.21c3.433,-4.141 5.143,-9.589 5.143,-16.344m14.742,33.319l-15.167,0l0,-8.586c-2.691,3.803 -5.851,6.647 -9.457,8.51c-3.607,1.863 -7.736,2.8 -12.399,2.8c-9.349,0 -16.725,-3.203 -22.097,-9.61c-5.372,-6.396 -8.063,-15.167 -8.063,-26.291c0,-10.569 2.735,-19.1 8.226,-25.594c5.503,-6.505 12.661,-9.741 21.519,-9.741c5.394,0 10.025,1.122 13.86,3.389c3.846,2.255 6.646,5.502 8.411,9.74l0,-10.83l15.167,0l0,66.213Z" style="fill:#1d1d1b;fill-rule:nonzero;"/><path d="M2398.05,523.28l0,-52.932l-11.582,0l0,-13.271l11.582,0l0,-25.071l15.167,0l0,25.071l11.582,0l0,13.271l-11.582,0l0,52.932l-15.167,0Z" style="fill:#1d1d1b;fill-rule:nonzero;"/><path d="M2438.56,457.075l15.156,0l0,66.203l-15.156,0l0,-66.203Zm-2.026,-28.634c0,-2.56 0.937,-4.772 2.822,-6.635c1.896,-1.863 4.14,-2.789 6.744,-2.789c2.702,0 4.947,0.893 6.734,2.691c1.808,1.787 2.702,4.031 2.702,6.733c0,2.702 -0.904,4.969 -2.724,6.81c-1.82,1.842 -4.064,2.757 -6.712,2.757c-2.604,0 -4.848,-0.937 -6.744,-2.833c-1.885,-1.885 -2.822,-4.13 -2.822,-6.734" style="fill:#1d1d1b;fill-rule:nonzero;"/><path d="M2498.61,527.259l-34.713,-70.179l16.561,0l14.448,33.308c0.468,1.024 1.035,2.56 1.678,4.609c0.653,2.048 1.34,4.489 2.026,7.333c0.469,-2.005 1.024,-3.988 1.646,-5.971c0.632,-1.983 1.383,-3.966 2.266,-5.971l14.393,-33.308l16.474,0l-34.779,70.179Z" style="fill:#1d1d1b;fill-rule:nonzero;"/><path d="M2590.45,489.965c0,-6.842 -1.591,-12.17 -4.783,-15.995c-3.182,-3.813 -7.649,-5.72 -13.38,-5.72c-5.72,0 -10.22,1.972 -13.5,5.905c-3.29,3.923 -4.925,9.382 -4.925,16.377c0,7.017 1.58,12.443 4.74,16.267c3.17,3.824 7.638,5.72 13.412,5.72c5.448,0 9.883,-2.07 13.304,-6.21c3.421,-4.141 5.132,-9.589 5.132,-16.344m14.742,33.319l-15.156,0l0,-8.586c-2.702,3.803 -5.862,6.647 -9.468,8.51c-3.607,1.863 -7.736,2.8 -12.4,2.8c-9.348,0 -16.725,-3.203 -22.096,-9.61c-5.372,-6.396 -8.063,-15.167 -8.063,-26.291c0,-10.569 2.735,-19.1 8.226,-25.594c5.503,-6.505 12.672,-9.741 21.519,-9.741c5.394,0 10.024,1.122 13.86,3.389c3.846,2.255 6.646,5.502 8.422,9.74l0,-10.83l15.156,0l0,66.213Z" style="fill:#1d1d1b;fill-rule:nonzero;"/><path d="M2716.85,489.965c0,-6.842 -1.591,-12.17 -4.772,-15.995c-3.193,-3.813 -7.66,-5.72 -13.38,-5.72c-5.721,0 -10.231,1.972 -13.511,5.905c-3.291,3.923 -4.925,9.382 -4.925,16.377c0,7.017 1.58,12.443 4.74,16.267c3.17,3.824 7.638,5.72 13.423,5.72c5.492,0 9.937,-2.059 13.326,-6.178c3.41,-4.118 5.099,-9.577 5.099,-16.376m-0.414,-74.93l15.156,0l0,108.249l-15.156,0l0,-8.586c-2.702,3.803 -5.851,6.647 -9.458,8.51c-3.617,1.863 -7.747,2.8 -12.399,2.8c-9.359,0 -16.725,-3.203 -22.107,-9.61c-5.372,-6.396 -8.063,-15.167 -8.063,-26.291c0,-10.569 2.735,-19.1 8.237,-25.594c5.491,-6.505 12.661,-9.741 21.508,-9.741c5.404,0 10.024,1.122 13.859,3.389c3.847,2.255 6.658,5.502 8.423,9.74l0,-52.866Z" style="fill:#1d1d1b;fill-rule:nonzero;"/><path d="M2753.24,457.075l15.155,0l0,66.203l-15.155,0l0,-66.203Zm-2.038,-28.634c0,-2.56 0.948,-4.772 2.833,-6.635c1.885,-1.863 4.129,-2.789 6.744,-2.789c2.692,0 4.936,0.893 6.734,2.691c1.787,1.787 2.691,4.031 2.691,6.733c0,2.702 -0.915,4.969 -2.724,6.81c-1.819,1.842 -4.053,2.757 -6.701,2.757c-2.615,0 -4.859,-0.937 -6.744,-2.833c-1.885,-1.885 -2.833,-4.13 -2.833,-6.734" style="fill:#1d1d1b;fill-rule:nonzero;"/><path d="M2837.59,489.965c0,-6.842 -1.591,-12.17 -4.783,-15.995c-3.182,-3.813 -7.649,-5.72 -13.369,-5.72c-5.731,0 -10.231,1.972 -13.511,5.905c-3.29,3.923 -4.925,9.382 -4.925,16.377c0,7.017 1.58,12.443 4.74,16.267c3.171,3.824 7.638,5.72 13.413,5.72c5.447,0 9.882,-2.07 13.303,-6.21c3.422,-4.141 5.132,-9.589 5.132,-16.344m14.742,29.201c0,12.933 -2.593,22.042 -7.758,27.326c-5.164,5.295 -13.881,7.932 -26.117,7.932c-9.13,0 -16.42,-1.928 -21.867,-5.764c-5.437,-3.835 -8.216,-8.956 -8.303,-15.33l16.278,-0.065c0.229,2.833 1.547,5.012 3.977,6.494c2.419,1.492 5.819,2.233 10.199,2.233c6.461,0 11.124,-1.416 13.968,-4.26c2.833,-2.844 4.271,-7.584 4.326,-14.252l0.141,-8.782c-2.702,3.803 -5.862,6.647 -9.468,8.51c-3.607,1.863 -7.736,2.8 -12.4,2.8c-9.348,0 -16.724,-3.203 -22.096,-9.61c-5.372,-6.396 -8.063,-15.167 -8.063,-26.291c0,-10.569 2.735,-19.1 8.237,-25.594c5.492,-6.505 12.661,-9.741 21.508,-9.741c5.405,0 10.024,1.122 13.86,3.389c3.846,2.255 6.646,5.502 8.422,9.74l0,-10.83l15.156,0l0,62.095Z" style="fill:#1d1d1b;fill-rule:nonzero;"/><path d="M2873.97,457.075l15.167,0l0,66.203l-15.167,0l0,-66.203Zm-2.027,-28.634c0,-2.56 0.948,-4.772 2.833,-6.635c1.885,-1.863 4.13,-2.789 6.734,-2.789c2.702,0 4.946,0.893 6.744,2.691c1.787,1.787 2.681,4.031 2.681,6.733c0,2.702 -0.905,4.969 -2.724,6.81c-1.809,1.842 -4.043,2.757 -6.701,2.757c-2.604,0 -4.849,-0.937 -6.734,-2.833c-1.885,-1.885 -2.833,-4.13 -2.833,-6.734" style="fill:#1d1d1b;fill-rule:nonzero;"/><path d="M2914.34,523.28l0,-52.932l-11.594,0l0,-13.271l11.594,0l0,-25.071l15.155,0l0,25.071l11.594,0l0,13.271l-11.594,0l0,52.932l-15.155,0Z" style="fill:#1d1d1b;fill-rule:nonzero;"/><path d="M3001.7,489.965c0,-6.842 -1.591,-12.17 -4.772,-15.995c-3.193,-3.813 -7.66,-5.72 -13.38,-5.72c-5.721,0 -10.22,1.972 -13.511,5.905c-3.28,3.923 -4.925,9.382 -4.925,16.377c0,7.017 1.58,12.443 4.751,16.267c3.159,3.824 7.627,5.72 13.412,5.72c5.448,0 9.883,-2.07 13.293,-6.21c3.432,-4.141 5.132,-9.589 5.132,-16.344m14.742,33.319l-15.156,0l0,-8.586c-2.702,3.803 -5.851,6.647 -9.458,8.51c-3.606,1.863 -7.746,2.8 -12.399,2.8c-9.359,0 -16.725,-3.203 -22.096,-9.61c-5.383,-6.396 -8.063,-15.167 -8.063,-26.291c0,-10.569 2.735,-19.1 8.226,-25.594c5.492,-6.505 12.661,-9.741 21.508,-9.741c5.405,0 10.024,1.122 13.86,3.389c3.846,2.255 6.657,5.502 8.422,9.74l0,-10.83l15.156,0l0,66.213Z" style="fill:#1d1d1b;fill-rule:nonzero;"/><rect x="3038.08" y="415.04" width="15.156" height="108.249" style="fill:#1d1d1b;"/><path d="M644.949,205.341c0,76.934 26.727,104.882 100.034,104.882c27.13,0 55.895,-4.053 77.359,-13.369l-5.273,-38.865c-23.077,3.225 -48.595,3.65 -61.158,3.65c-36.032,0 -48.192,-12.149 -48.192,-56.298c0,-44.15 12.16,-56.299 48.192,-56.299c14.982,0 35.237,0.404 57.116,0.807l6.482,-37.264c-21.867,-9.729 -53.062,-12.541 -73.72,-12.541c-73.699,0 -100.84,27.937 -100.84,105.297Z" style="fill:url(#_Linear14);fill-rule:nonzero;"/><path d="M914.716,59.937l17.815,25.507l91.131,-44.138l-27.544,-41.306l-81.402,59.937Zm-67.237,145.807c0,76.531 27.947,104.893 102.877,104.893c74.516,0 102.453,-28.362 102.453,-104.893c0,-76.957 -27.937,-105.7 -102.453,-105.7c-74.93,0 -102.877,28.743 -102.877,105.7Zm62.781,0c0,-48.617 8.499,-60.766 40.096,-60.766c30.77,0 39.682,12.149 39.682,60.766c0,47.778 -8.912,59.926 -39.682,59.926c-31.597,0 -40.096,-12.148 -40.096,-59.926Z" style="fill:url(#_Linear15);fill-rule:nonzero;"/><path d="M1224.98,21.868l0,54.271c0,14.568 0.795,28.362 2.026,41.709c-18.228,-12.552 -41.316,-17.804 -64.797,-17.804c-50.229,0 -76.553,23.884 -76.553,103.673c0,68.033 19.841,106.506 70.877,106.506c35.226,0 60.34,-15.799 76.542,-34.42l4.456,29.582l47.386,0l0,-283.517l-59.937,0Zm-77.763,181.435c0,-50.218 9.719,-58.728 35.226,-58.728c16.616,0 27.947,3.65 42.537,7.714l0,92.331c-17.019,10.939 -26.738,16.191 -44.553,16.191c-23.491,0 -33.21,-9.708 -33.21,-57.508Z" style="fill:url(#_Linear16);fill-rule:nonzero;"/><path d="M1352.18,17.4c-11.745,0 -17.411,6.08 -17.411,17.423l0,21.867c0,11.757 5.666,17.434 17.411,17.434l26.738,0c11.746,0 17.412,-5.677 17.412,-17.434l0,-21.867c0,-11.343 -5.666,-17.423 -17.412,-17.423l-26.738,0Zm-16.191,287.985l59.534,0l0,-199.686l-59.534,0l0,199.686Z" style="fill:url(#_Linear17);fill-rule:nonzero;"/><path d="M1439.68,164.427c0,26.727 8.509,44.15 29.571,53.858c-19.438,11.756 -25.115,44.149 -6.472,61.582c-23.099,10.918 -31.609,23.067 -31.609,43.322c0,44.563 22.282,59.534 105.307,59.534c76.946,0 104.882,-12.955 104.882,-64.797c0,-36.043 -16.18,-54.675 -57.899,-59.534l-72.501,-8.51c-15.384,-2.015 -17.008,-15.395 -12.148,-23.894c10.122,1.22 21.867,2.038 34.833,2.038c70.463,0 93.954,-18.24 93.954,-64.002c0,-11.342 -1.209,-20.658 -4.456,-28.754l24.711,-3.236l2.833,-26.335l-63.576,0c-13.773,-4.042 -31.195,-5.655 -53.062,-5.655c-70.474,0 -94.368,17.804 -94.368,64.383Zm55.078,-0.403c0,-19.841 9.326,-25.529 38.886,-25.529c29.571,0 38.473,5.688 38.473,25.529c0,19.438 -8.902,25.932 -38.473,25.932c-29.56,0 -38.886,-6.494 -38.886,-25.932Zm-6.472,151.472c0,-10.111 4.042,-15.798 12.955,-23.491l50.218,5.666c25.518,2.833 32.807,4.053 32.807,18.632c0,18.228 -9.316,21.878 -48.606,21.878c-38.462,0 -47.374,-2.844 -47.374,-22.685Z" style="fill:url(#_Linear18);fill-rule:nonzero;"/><path d="M1670.17,205.744c0,76.531 27.947,104.893 102.877,104.893c74.516,0 102.452,-28.362 102.452,-104.893c0,-76.957 -27.936,-105.7 -102.452,-105.7c-74.93,0 -102.877,28.743 -102.877,105.7Zm62.781,0c0,-48.617 8.498,-60.766 40.096,-60.766c30.77,0 39.682,12.149 39.682,60.766c0,47.778 -8.912,59.926 -39.682,59.926c-31.598,0 -40.096,-12.148 -40.096,-59.926Z" style="fill:url(#_Linear19);fill-rule:nonzero;"/><path d="M2095.86,132.427c-7.278,-21.465 -24.689,-32.383 -51.427,-32.383c-27.937,0 -51.025,12.149 -76.14,34.812l-4.053,-29.157l-47.788,0l0,199.686l59.534,0l0,-137.308c21.878,-13.38 31.183,-17.422 44.149,-17.422c14.971,0 21.465,5.677 21.465,23.491l0,131.239l57.507,0l0,-136.915c21.879,-13.359 31.184,-17.815 44.542,-17.815c16.202,0 21.083,6.472 21.083,23.491l0,131.239l59.524,0l0,-149.87c0,-36.043 -19.438,-55.471 -55.492,-55.471c-26.728,0 -49.402,10.504 -72.904,32.383Z" style="fill:url(#_Linear20);fill-rule:nonzero;"/><path d="M2289.92,17.4c-11.746,0 -17.422,6.08 -17.422,17.423l0,21.867c0,11.757 5.676,17.434 17.422,17.434l26.727,0c11.746,0 17.412,-5.677 17.412,-17.434l0,-21.867c0,-11.343 -5.666,-17.423 -17.412,-17.423l-26.727,0Zm-16.202,287.985l59.534,0l0,-199.686l-59.534,0l0,199.686Z" style="fill:url(#_Linear21);fill-rule:nonzero;"/><path d="M2436.93,135.27l-4.456,-29.571l-48.595,0l0,199.686l59.948,0l-0.414,-136.501c23.905,-12.149 39.29,-18.229 55.895,-18.229c14.589,0 19.438,5.274 19.438,23.491l0,131.239l59.534,0l0,-149.87c0,-36.043 -19.438,-55.471 -55.895,-55.471c-28.754,0 -57.911,12.541 -85.455,35.226Z" style="fill:url(#_Linear22);fill-rule:nonzero;"/><path d="M2620.05,164.427c0,26.727 8.499,44.15 29.56,53.858c-19.438,11.756 -25.125,44.149 -6.483,61.582c-23.077,10.918 -31.586,23.067 -31.586,43.322c0,44.563 22.282,59.534 105.296,59.534c76.956,0 104.893,-12.955 104.893,-64.797c0,-36.043 -16.18,-54.675 -57.922,-59.534l-72.489,-8.51c-15.385,-2.015 -17.008,-15.395 -12.149,-23.894c10.133,1.22 21.879,2.038 34.823,2.038c70.485,0 93.965,-18.24 93.965,-64.002c0,-11.342 -1.21,-20.658 -4.446,-28.754l24.69,-3.236l2.855,-26.335l-63.588,0c-13.783,-4.042 -31.194,-5.655 -53.062,-5.655c-70.462,0 -94.357,17.804 -94.357,64.383Zm55.078,-0.403c0,-19.841 9.316,-25.529 38.865,-25.529c29.593,0 38.495,5.688 38.495,25.529c0,19.438 -8.902,25.932 -38.495,25.932c-29.549,0 -38.865,-6.494 -38.865,-25.932Zm-6.494,151.472c0,-10.111 4.054,-15.798 12.966,-23.491l50.229,5.666c25.518,2.833 32.807,4.053 32.807,18.632c0,18.228 -9.326,21.878 -48.616,21.878c-38.462,0 -47.386,-2.844 -47.386,-22.685Z" style="fill:url(#_Linear23);fill-rule:nonzero;"/><path d="M2859.03,109.753l5.666,40.499c32,-2.027 65.211,-3.247 84.235,-3.247c25.517,0 32.414,5.677 32.828,25.921l0,8.913l-71.29,0c-38.081,0 -61.158,18.631 -61.158,50.632l0,20.255c0,37.242 27.937,57.497 65.189,57.497c35.259,0 59.534,-18.632 73.731,-35.226l6.069,30.388l47.386,0l0,-132.045c0,-56.298 -27.141,-73.296 -78.569,-73.296c-27.948,0 -74.93,4.457 -104.087,9.709Zm49.401,134.867l0,-7.693c0,-11.342 4.881,-18.642 19.449,-19.034l53.879,0l0,27.936c-17.03,12.966 -36.054,19.449 -49.837,19.449c-16.191,0 -23.491,-6.483 -23.491,-20.658Z" style="fill:url(#_Linear24);fill-rule:nonzero;"/><path d="M1764.48,509.682c7.79,0.044 14.546,-1.547 19.045,-8.324c8.739,-13.195 0.022,-29.266 -17.117,-29.408c-62.236,-0.468 -1105.36,0.305 -1107.02,0.719c-9.578,2.354 -14.568,8.749 -14.448,18.425c0.142,11.19 7.572,18.359 20.146,18.425c28.863,0.196 1068.91,-0.044 1099.39,0.163" style="fill:#f8ad49;fill-rule:nonzero;"/><defs><linearGradient id="_Linear1" x1="0" y1="0" x2="1" y2="0" gradientUnits="userSpaceOnUse" gradientTransform="matrix(0,360.365,-360.365,0,280.558,71.9293)"><stop offset="0" style="stop-color:#f8ac49;stop-opacity:1"/><stop offset="1" style="stop-color:#e4032a;stop-opacity:1"/></linearGradient><linearGradient id="_Linear2" x1="0" y1="0" x2="1" y2="0" gradientUnits="userSpaceOnUse" gradientTransform="matrix(0,360.365,-360.365,0,281.305,71.9293)"><stop offset="0" style="stop-color:#f8ac49;stop-opacity:1"/><stop offset="1" style="stop-color:#e4032a;stop-opacity:1"/></linearGradient><linearGradient id="_Linear3" x1="0" y1="0" x2="1" y2="0" gradientUnits="userSpaceOnUse" gradientTransform="matrix(0,360.365,-360.365,0,204.783,71.9293)"><stop offset="0" style="stop-color:#f8ac49;stop-opacity:1"/><stop offset="1" style="stop-color:#e4032a;stop-opacity:1"/></linearGradient><linearGradient id="_Linear4" x1="0" y1="0" x2="1" y2="0" gradientUnits="userSpaceOnUse" gradientTransform="matrix(0,360.365,-360.365,0,356.406,71.9293)"><stop offset="0" style="stop-color:#f8ac49;stop-opacity:1"/><stop offset="1" style="stop-color:#e4032a;stop-opacity:1"/></linearGradient><linearGradient id="_Linear5" x1="0" y1="0" x2="1" y2="0" gradientUnits="userSpaceOnUse" gradientTransform="matrix(0,360.365,-360.365,0,280.672,71.9293)"><stop offset="0" style="stop-color:#f8ac49;stop-opacity:1"/><stop offset="1" style="stop-color:#e4032a;stop-opacity:1"/></linearGradient><linearGradient id="_Linear6" x1="0" y1="0" x2="1" y2="0" gradientUnits="userSpaceOnUse" gradientTransform="matrix(0,360.365,-360.365,0,357.151,71.9293)"><stop offset="0" style="stop-color:#f8ac49;stop-opacity:1"/><stop offset="1" style="stop-color:#e4032a;stop-opacity:1"/></linearGradient><linearGradient id="_Linear7" x1="0" y1="0" x2="1" y2="0" gradientUnits="userSpaceOnUse" gradientTransform="matrix(0,360.365,-360.365,0,343.294,71.9293)"><stop offset="0" style="stop-color:#f8ac49;stop-opacity:1"/><stop offset="1" style="stop-color:#e4032a;stop-opacity:1"/></linearGradient><linearGradient id="_Linear8" x1="0" y1="0" x2="1" y2="0" gradientUnits="userSpaceOnUse" gradientTransform="matrix(0,360.365,-360.365,0,332.884,71.9293)"><stop offset="0" style="stop-color:#f8ac49;stop-opacity:1"/><stop offset="1" style="stop-color:#e4032a;stop-opacity:1"/></linearGradient><linearGradient id="_Linear9" x1="0" y1="0" x2="1" y2="0" gradientUnits="userSpaceOnUse" gradientTransform="matrix(0,360.365,-360.365,0,371.069,71.9293)"><stop offset="0" style="stop-color:#f8ac49;stop-opacity:1"/><stop offset="1" style="stop-color:#e4032a;stop-opacity:1"/></linearGradient><linearGradient id="_Linear10" x1="0" y1="0" x2="1" y2="0" gradientUnits="userSpaceOnUse" gradientTransform="matrix(0,360.365,-360.365,0,190.873,71.9293)"><stop offset="0" style="stop-color:#f8ac49;stop-opacity:1"/><stop offset="1" style="stop-color:#e4032a;stop-opacity:1"/></linearGradient><linearGradient id="_Linear11" x1="0" y1="0" x2="1" y2="0" gradientUnits="userSpaceOnUse" gradientTransform="matrix(0,360.365,-360.365,0,218.554,71.9293)"><stop offset="0" style="stop-color:#f8ac49;stop-opacity:1"/><stop offset="1" style="stop-color:#e4032a;stop-opacity:1"/></linearGradient><linearGradient id="_Linear12" x1="0" y1="0" x2="1" y2="0" gradientUnits="userSpaceOnUse" gradientTransform="matrix(0,360.365,-360.365,0,321.53,71.9293)"><stop offset="0" style="stop-color:#f8ac49;stop-opacity:1"/><stop offset="1" style="stop-color:#e4032a;stop-opacity:1"/></linearGradient><linearGradient id="_Linear13" x1="0" y1="0" x2="1" y2="0" gradientUnits="userSpaceOnUse" gradientTransform="matrix(0,360.365,-360.365,0,356.28,71.9293)"><stop offset="0" style="stop-color:#f8ac49;stop-opacity:1"/><stop offset="1" style="stop-color:#e4032a;stop-opacity:1"/></linearGradient><linearGradient id="_Linear14" x1="0" y1="0" x2="1" y2="0" gradientUnits="userSpaceOnUse" gradientTransform="matrix(1982.24,0,0,1982.24,679.664,205.129)"><stop offset="0" style="stop-color:#f8ac49;stop-opacity:1"/><stop offset="1" style="stop-color:#e4032a;stop-opacity:1"/></linearGradient><linearGradient id="_Linear15" x1="0" y1="0" x2="1" y2="0" gradientUnits="userSpaceOnUse" gradientTransform="matrix(1982.24,0,0,1982.24,679.664,155.314)"><stop offset="0" style="stop-color:#f8ac49;stop-opacity:1"/><stop offset="1" style="stop-color:#e4032a;stop-opacity:1"/></linearGradient><linearGradient id="_Linear16" x1="0" y1="0" x2="1" y2="0" gradientUnits="userSpaceOnUse" gradientTransform="matrix(1982.24,0,0,1982.24,679.664,166.045)"><stop offset="0" style="stop-color:#f8ac49;stop-opacity:1"/><stop offset="1" style="stop-color:#e4032a;stop-opacity:1"/></linearGradient><linearGradient id="_Linear17" x1="0" y1="0" x2="1" y2="0" gradientUnits="userSpaceOnUse" gradientTransform="matrix(1982.24,0,0,1982.24,679.664,161.39)"><stop offset="0" style="stop-color:#f8ac49;stop-opacity:1"/><stop offset="1" style="stop-color:#e4032a;stop-opacity:1"/></linearGradient><linearGradient id="_Linear18" x1="0" y1="0" x2="1" y2="0" gradientUnits="userSpaceOnUse" gradientTransform="matrix(1982.24,0,0,1982.24,679.664,241.379)"><stop offset="0" style="stop-color:#f8ac49;stop-opacity:1"/><stop offset="1" style="stop-color:#e4032a;stop-opacity:1"/></linearGradient><linearGradient id="_Linear19" x1="0" y1="0" x2="1" y2="0" gradientUnits="userSpaceOnUse" gradientTransform="matrix(1982.24,0,0,1982.24,679.664,205.333)"><stop offset="0" style="stop-color:#f8ac49;stop-opacity:1"/><stop offset="1" style="stop-color:#e4032a;stop-opacity:1"/></linearGradient><linearGradient id="_Linear20" x1="0" y1="0" x2="1" y2="0" gradientUnits="userSpaceOnUse" gradientTransform="matrix(1982.24,0,0,1982.24,679.664,202.703)"><stop offset="0" style="stop-color:#f8ac49;stop-opacity:1"/><stop offset="1" style="stop-color:#e4032a;stop-opacity:1"/></linearGradient><linearGradient id="_Linear21" x1="0" y1="0" x2="1" y2="0" gradientUnits="userSpaceOnUse" gradientTransform="matrix(1982.24,0,0,1982.24,679.664,161.39)"><stop offset="0" style="stop-color:#f8ac49;stop-opacity:1"/><stop offset="1" style="stop-color:#e4032a;stop-opacity:1"/></linearGradient><linearGradient id="_Linear22" x1="0" y1="0" x2="1" y2="0" gradientUnits="userSpaceOnUse" gradientTransform="matrix(1982.24,0,0,1982.24,679.664,202.703)"><stop offset="0" style="stop-color:#f8ac49;stop-opacity:1"/><stop offset="1" style="stop-color:#e4032a;stop-opacity:1"/></linearGradient><linearGradient id="_Linear23" x1="0" y1="0" x2="1" y2="0" gradientUnits="userSpaceOnUse" gradientTransform="matrix(1982.24,0,0,1982.24,679.664,241.379)"><stop offset="0" style="stop-color:#f8ac49;stop-opacity:1"/><stop offset="1" style="stop-color:#e4032a;stop-opacity:1"/></linearGradient><linearGradient id="_Linear24" x1="0" y1="0" x2="1" y2="0" gradientUnits="userSpaceOnUse" gradientTransform="matrix(1982.24,0,0,1982.24,679.664,205.129)"><stop offset="0" style="stop-color:#f8ac49;stop-opacity:1"/><stop offset="1" style="stop-color:#e4032a;stop-opacity:1"/></linearGradient></defs></svg>