<svg xmlns="http://www.w3.org/2000/svg" xmlns:xlink="http://www.w3.org/1999/xlink" version="1.1" x="0px" y="0px" viewBox="0 0 100 100" style="enable-background:new 0 0 100 100;" xml:space="preserve"><path fill="#F69E4D" d="M87.3,88.5c5.4-5.9,8.7-13.7,8.6-22.3c0-9-3.6-17.1-9.5-23C84,64.3,65.9,80.5,44,80.4l-10.5,0  c5.3,11.1,16.6,18.8,29.7,18.7L99,99L87.3,88.5z"/><path fill="#F69E4D" d="M71.5,11.8c-7-7-16.3-10.9-26.2-11c-20.5,0-37.2,16.6-37.2,37c0,8.4,2.8,16.5,7.9,22.9l0.3,0.4L1,75  l44.3,0.1c20.4,0,37-16.6,37-37C82.3,28.1,78.5,18.8,71.5,11.8z M45.3,70.4l-31.7-0.1l9.6-8.6l-1.7-1.8c-5.5-6-8.5-13.8-8.5-22  C13,20.2,27.5,5.8,45.3,5.8c8.7,0,16.9,3.4,22.9,9.5c6,6.2,9.4,14.3,9.4,22.9C77.5,55.9,63,70.4,45.3,70.4z"/><path fill="#F69E4D" d="M33.7,37.8c0.1-2,0.7-4,1.8-5.7l8,8.6l4.8-4.4l-8-8.5c1.7-0.8,3.5-1.2,5.4-1.1c6.4,0.2,11.4,5.6,11.2,12  c-0.1,1.3-0.3,2.5-0.8,3.8L56,42.6l10.9,11.7l-6.6,6.1L49.6,49L49.4,49c-1.5,0.6-3,0.8-4.6,0.8C38.4,49.6,33.5,44.2,33.7,37.8z"/><path fill="#F69E4D" d="M21.7,33.8h4c0.6-2.5,1.5-4.6,2.9-6.6l-3.3-3.3c-0.2-0.2-0.4-0.6-0.4-0.8c0-0.4,0.2-0.6,0.4-0.8l4.4-4.4  c0.4-0.4,1.3-0.4,1.9,0l3.3,3.3c1.9-1.3,4-2.1,6-2.7v-4.5c0-0.6,0.6-1.3,1.3-1.3h6.1c0.6,0,1.3,0.6,1.3,1.3v4.2  c2.3,0.4,4.4,1.5,6.2,2.5l3.5-3.5c0.4-0.4,1.3-0.4,1.9,0l4.4,4.4c0.2,0.2,0.4,0.6,0.4,0.8c0,0.2-0.2,0.6-0.4,0.8L62,26.7  c1.3,2.1,2.3,4.4,2.9,6.8h4c0.6,0,1.3,0.6,1.3,1.3v6.3c0,0.6-0.6,1.3-1.3,1.3h-4c-0.3,1.5-0.8,2.8-1.4,4.1L60,42.9  c0.5-1.6,0.8-3.2,0.8-5c0-8.6-7-15.6-15.6-15.6c-8.7,0-15.7,7-15.7,15.6s7,15.6,15.6,15.6c1.5,0,3-0.2,4.4-0.6l1.6,4.1  c-0.6,0.2-1.1,0.3-1.7,0.5V61c0,0.6-0.6,1.3-1.3,1.3H42c-0.6,0-1.3-0.6-1.3-1.3v-3.8c-2.5-0.6-4.6-1.5-6.6-2.9l-2.7,2.7  c-0.2,0.2-0.6,0.4-0.8,0.4c-0.2,0-0.6-0.2-0.8-0.4l-4.4-4.4c-0.2-0.2-0.4-0.6-0.4-0.8c0-0.4,0.2-0.6,0.4-0.8l2.7-2.7  c-1.3-1.9-2.1-4-2.5-6.2h-4c-0.6,0-1.3-0.6-1.3-1.3v-6.2C20.4,34.5,20.9,33.8,21.7,33.8z"/></svg>