<svg xmlns:x="http://ns.adobe.com/Extensibility/1.0/" xmlns:i="http://ns.adobe.com/AdobeIllustrator/10.0/" xmlns:graph="http://ns.adobe.com/Graphs/1.0/" xmlns="http://www.w3.org/2000/svg" xmlns:xlink="http://www.w3.org/1999/xlink" version="1.1" x="0px" y="0px" viewBox="0 0 100 100" enable-background="new 0 0 100 100" xml:space="preserve"><metadata><sfw xmlns="http://ns.adobe.com/SaveForWeb/1.0/"><slices/><sliceSourceBounds width="1449.4" height="1439" y="-1445.4" x="0.4" bottomLeftOrigin="true"/></sfw></metadata><g><g><path fill="#F69E4D" d="M10,75.9h31.4v8.6h-6.1c-1,0-1.9,0.8-1.9,1.9v5.4c0,1,0.8,1.9,1.9,1.9h29.5c1,0,1.9-0.8,1.9-1.9v-5.4c0-1-0.8-1.9-1.9-1.9    h-6.1v-8.6H90c4.3,0,7.7-3.5,7.7-7.7V14.1c0-4.3-3.5-7.7-7.7-7.7H10c-4.3,0-7.7,3.5-7.7,7.7v54.1C2.3,72.5,5.7,75.9,10,75.9z     M12.8,16.9h74.5v48.4H12.8V16.9z M38.6,32.4l-9.3,9.3l9.3,9.3L33.6,56L19.4,41.7l14.3-14.3L38.6,32.4z M66.4,27.4l14.3,14.3    L66.4,56L61.4,51l9.3-9.3l-9.3-9.3L66.4,27.4z M53.6,22.6l6.5,2.6L46.4,59.8l-6.5-2.6L53.6,22.6z"/></g></g></svg>